{"glyphs":{":":{"x_min":0,"x_max":116,"ha":116,"o":"m 68 209 q 79 209 88 201 q 97 192 97 182 q 97 171 89 163 q 80 154 70 154 q 60 154 51 163 q 42 171 42 182 q 42 192 50 201 q 58 209 68 209 z m 68 80 q 79 80 88 72 q 97 63 97 53 q 97 42 89 34 q 80 25 70 25 q 60 25 51 34 q 42 42 42 53 q 42 63 50 72 q 58 80 68 80 z"},"$":{"x_min":0,"x_max":215,"ha":215,"o":"m 123 138 l 137 134 q 182 123 194 111 q 206 99 206 83 q 206 66 188 50 q 169 33 123 11 l 123 -34 q 123 -37 118 -37 q 113 -37 113 -34 l 113 6 q 92 -4 71 -21 q 67 -21 67 -17 q 67 -15 75 -8 q 59 6 46 6 q 21 6 10 -16 l 8 -18 q 2 -18 2 -14 q 2 -8 24 10 q 46 28 77 28 q 100 28 113 19 l 113 95 q 66 108 52 122 q 38 136 38 156 q 38 197 113 232 l 113 276 q 113 279 118 279 q 123 279 123 276 l 123 237 q 140 247 152 255 l 154 251 q 154 249 151 247 q 149 245 149 242 q 161 231 175 231 q 179 231 188 239 q 192 239 192 236 q 153 202 146 202 q 137 202 123 210 z m 113 141 l 113 217 l 106 222 q 78 206 78 175 q 78 153 113 141 z m 123 18 q 145 28 153 39 q 161 49 161 66 q 161 83 123 92 z"},"?":{"x_min":0,"x_max":180,"ha":180,"o":"m 63 395 q 103 395 130 368 q 158 341 158 287 q 158 267 149 245 q 140 223 105 182 q 71 141 62 119 q 54 98 54 78 q 54 72 50 72 q 46 72 46 77 q 46 94 52 114 q 58 134 81 177 q 103 219 109 239 q 114 259 114 276 q 114 310 97 331 q 80 352 52 352 q 34 352 10 327 q -14 302 -17 302 q -21 302 -21 307 q 16 337 44 376 q 72 415 74 415 l 76 412 q 76 403 63 395 z m 62 50 q 72 50 81 42 q 90 33 90 23 q 90 12 82 4 q 74 -5 63 -5 q 53 -5 44 4 q 36 13 36 23 q 36 34 43 42 q 51 50 62 50 z"},"<":{"x_min":0,"x_max":181,"ha":181,"o":"m 161 32 l 132 3 l 14 121 l 137 244 l 146 236 l 52 142 z"},"'":{"x_min":0,"x_max":40,"ha":40,"o":"m 8 297 q 9 323 9 338 l 8 352 q -1 346 -3 346 q -7 346 -5 349 q 0 353 21 375 q 42 397 44 397 l 49 395 q 40 387 40 383 l 41 297 l 24 261 z"},"=":{"x_min":0,"x_max":169,"ha":169,"o":"m 163 174 l 165 170 q 165 167 142 147 q 120 128 115 121 q 112 121 112 124 l 118 135 q 118 139 25 139 q 21 139 14 128 l 12 132 q 12 136 36 157 q 59 178 61 182 q 64 182 64 179 q 64 177 60 170 q 60 166 151 166 q 154 166 163 174 z m 155 114 q 157 114 157 110 q 157 107 135 87 q 112 68 107 61 q 104 61 104 64 l 110 75 q 110 79 17 79 q 14 79 6 68 l 4 72 q 4 77 27 97 q 51 118 53 122 q 56 122 56 119 l 52 110 q 52 106 143 106 q 146 106 155 114 z"},"a":{"x_min":0,"x_max":211,"ha":211,"o":"m 129 55 q 114 34 79 9 q 50 -12 36 -34 l 33 -37 q 31 -37 31 -34 q 31 -30 41 -18 q 52 -6 52 -1 l 47 6 q 16 38 16 89 q 16 157 93 219 q 116 238 139 267 l 141 265 q 141 262 122 238 q 169 202 185 201 q 191 201 191 198 q 165 184 165 175 l 165 67 q 165 48 177 36 q 188 24 197 24 q 202 24 217 35 q 219 35 219 32 q 219 29 198 15 q 176 2 146 -31 l 145 -29 q 145 -25 161 -5 q 161 -2 154 4 q 129 26 129 55 z m 128 65 l 128 178 q 128 185 113 196 q 97 207 92 207 q 86 207 72 178 q 57 150 57 109 q 57 76 69 55 q 81 35 96 35 q 112 35 128 65 z"},"L":{"x_min":0,"x_max":763,"ha":763,"o":"m 297 404 q 276 385 276 359 q 276 333 294 310 l 299 305 q 304 299 326 278 q 348 258 356 239 q 364 220 364 201 q 364 150 316 113 l 312 110 l 310 109 l 306 106 q 291 95 285 95 l 283 97 q 296 104 302 109 l 305 112 q 309 116 311 119 l 315 124 q 327 141 327 164 q 327 181 320 197 q 312 213 284 239 q 255 265 247 281 q 239 296 237 311 l 236 315 l 236 323 q 236 375 289 409 q 292 411 294 412 q 310 420 324 425 q 337 429 340 429 q 343 429 343 427 q 315 417 301 407 z m 289 409 q 247 433 200 433 q 197 414 197 392 q 197 344 208 313 q 219 313 236 315 q 261 318 294 310 q 333 301 357 286 q 381 271 381 268 l 380 266 l 376 269 q 342 294 299 305 q 275 311 237 311 q 227 311 209 309 q 220 279 256 240 q 292 201 302 176 q 312 151 315 124 l 316 113 l 316 105 q 329 96 348 89 q 399 142 399 225 q 399 253 391 282 q 365 290 350 310 q 335 330 335 353 q 335 363 338 371 q 319 392 297 404 z m 202 312 q 189 346 189 392 q 189 414 192 433 q 163 431 138 417 q 149 399 149 381 q 149 368 143 358 q 174 347 181 309 z m 172 307 q 167 342 139 353 q 125 336 112 336 q 104 336 104 344 q 104 361 127 361 q 134 361 137 360 q 141 369 141 383 q 141 398 132 414 q 79 380 79 310 q 79 292 87 276 q 124 296 172 307 z m 389 286 q 376 330 341 368 q 339 360 339 353 q 339 332 352 313 q 366 294 389 286 z m 134 355 q 130 356 121 356 q 112 356 112 348 q 112 344 117 344 q 127 344 134 355 z m 173 297 l 173 302 q 128 292 92 268 q 105 248 127 248 q 146 248 159 262 q 173 276 173 297 z m 431 96 l 424 279 l 415 279 q 408 279 396 281 q 405 253 405 224 q 405 181 392 149 q 380 118 352 87 q 371 83 383 83 q 410 83 431 96 z m 459 122 q 470 138 470 154 q 470 167 462 167 q 453 167 453 151 q 453 136 459 122 z m 315 124 z m 498 74 q 467 90 455 112 q 448 104 436 95 l 436 69 l 434 62 l 431 92 q 410 79 385 79 q 349 79 316 97 q 316 80 313 63 q 307 31 294 10 q 278 -15 256 -29 q 233 -42 212 -42 q 191 -42 180 -32 q 168 -22 168 -11 q 168 10 185 10 q 197 10 197 -3 q 197 -12 176 -16 q 176 -23 185 -31 q 195 -38 212 -38 q 230 -38 252 -25 q 274 -12 290 12 q 307 38 310 66 q 312 83 312 95 l 312 102 l 302 109 l 299 112 l 295 111 q 289 111 289 119 l 288 121 l 284 120 q 276 120 276 127 l 277 131 l 275 133 q 271 130 265 130 q 258 130 251 134 q 244 139 242 152 q 254 144 258 144 q 261 144 263 145 l 248 160 l 245 160 q 239 160 239 166 l 240 169 l 236 172 l 233 172 q 227 172 227 180 q 226 182 224 184 l 220 183 q 214 183 214 191 q 181 221 143 221 q 115 221 98 209 q 82 196 82 187 q 82 184 92 184 q 102 184 102 174 q 102 164 90 164 q 75 164 75 180 q 75 197 94 211 q 113 225 147 225 q 181 225 217 194 l 221 195 q 227 195 227 189 l 227 186 l 230 183 l 234 184 q 240 184 240 178 q 240 175 238 174 q 240 173 242 171 l 246 172 q 252 172 252 166 l 251 163 l 266 148 q 268 150 268 152 q 268 156 261 168 q 264 170 272 163 q 280 156 280 145 q 280 140 278 136 l 280 133 q 282 135 284 135 q 292 135 292 127 l 291 124 l 293 123 l 296 123 q 302 123 302 115 l 305 112 l 310 109 l 312 110 l 311 119 q 309 146 298 173 q 288 200 251 240 q 214 280 204 308 q 190 306 182 304 l 182 297 q 182 273 166 259 q 150 244 127 244 q 103 244 86 264 q 16 216 16 160 q 16 127 33 102 l 38 95 q 56 75 84 64 q 112 53 137 53 q 182 53 212 68 l 220 70 l 215 66 q 179 48 137 48 q 112 48 83 59 q 55 71 34 91 l 29 96 q 4 126 4 164 q 4 225 80 272 q 67 292 67 323 q 67 353 83 378 q 99 404 128 420 q 118 439 118 455 q 118 471 125 480 q 132 489 142 489 q 155 489 155 478 q 155 469 147 469 q 141 469 136 478 q 124 478 124 457 q 124 442 134 423 q 161 437 193 438 q 204 498 239 537 q 275 577 326 587 q 338 616 365 632 q 393 649 426 649 q 467 649 496 624 q 525 600 525 563 q 525 529 498 509 q 527 463 527 413 q 527 359 503 324 q 479 289 436 281 l 436 99 q 445 105 453 115 q 445 131 445 151 q 445 164 450 171 q 455 178 461 178 q 474 178 474 156 q 474 137 460 118 q 486 66 571 58 q 571 94 556 124 q 537 130 515 148 l 519 147 q 533 134 554 128 q 531 170 484 203 l 481 205 l 483 207 q 486 207 513 185 q 540 163 559 127 q 571 124 588 124 q 617 124 636 134 q 636 140 643 140 l 646 139 l 651 142 l 650 146 q 650 152 657 152 l 659 151 l 662 155 q 659 158 659 161 q 659 169 667 169 l 669 176 q 663 179 663 184 q 663 190 668 192 l 667 199 q 660 201 660 206 q 660 209 662 211 l 658 217 q 652 217 652 223 l 652 226 l 649 230 l 645 229 q 639 229 639 237 q 625 247 603 247 q 564 247 533 226 l 530 224 l 529 226 q 529 229 552 240 q 576 251 603 251 q 625 251 642 240 l 646 241 q 652 241 652 233 q 654 232 656 229 l 659 229 q 665 229 665 223 l 664 219 l 668 214 q 676 214 676 206 q 676 202 672 200 l 673 193 q 681 191 681 184 q 681 178 673 176 q 673 173 671 167 q 675 165 675 161 q 675 154 666 154 q 664 153 662 149 l 663 146 q 663 140 656 140 l 653 140 q 651 138 649 137 l 649 134 q 649 128 642 128 q 639 128 637 130 q 618 120 589 120 q 573 120 561 123 q 576 93 576 60 l 576 56 l 599 55 q 657 55 698 90 q 739 125 739 184 q 739 242 700 278 q 662 315 601 315 q 515 315 466 258 l 462 256 q 462 259 479 276 q 497 293 529 307 q 562 321 602 321 q 669 321 712 282 q 756 243 756 186 q 756 124 711 86 q 666 49 602 49 q 583 49 576 50 q 572 -11 529 -54 q 486 -97 420 -108 q 423 -117 423 -125 q 423 -174 387 -202 q 352 -231 290 -231 q 240 -231 204 -212 q 168 -193 150 -165 q 132 -136 132 -120 l 134 -116 q 136 -116 136 -121 q 136 -135 153 -161 q 169 -188 203 -206 q 237 -224 286 -224 q 343 -224 380 -197 q 418 -170 418 -127 q 418 -118 415 -109 q 397 -111 388 -111 q 349 -111 318 -97 q 287 -83 287 -61 q 287 -51 299 -45 q 310 -39 329 -39 q 354 -39 379 -56 q 404 -73 416 -98 q 485 -88 526 -49 q 568 -9 571 51 q 533 56 502 71 z m 502 71 q 485 43 447 21 q 409 -2 366 -2 q 327 -2 294 10 l 290 12 q 264 23 225 58 l 215 66 l 212 68 q 183 96 157 107 q 132 117 101 117 q 63 117 38 95 l 34 91 q 12 72 12 43 q 12 36 9 36 q 7 36 7 44 q 7 72 29 96 l 33 102 q 80 146 150 146 q 175 146 204 136 q 232 125 267 99 q 302 72 310 66 l 313 63 q 358 31 402 31 q 457 31 497 72 q 500 76 502 75 z m 411 -98 q 399 -74 376 -60 q 354 -45 329 -45 q 293 -45 293 -62 q 293 -80 319 -90 q 344 -100 380 -100 q 392 -100 411 -98 z m 12 43 q 12 19 31 4 q 50 -11 76 -11 q 110 -11 136 13 l 140 16 l 143 14 q 143 10 122 -4 q 100 -18 76 -18 q 45 -18 26 -1 q 7 16 7 44 q 7 51 9 51 q 12 51 12 43 z m 495 513 q 515 530 515 561 q 515 599 490 621 q 465 643 426 643 q 395 643 369 628 q 343 614 331 588 q 345 590 354 590 q 395 590 432 570 q 469 550 495 513 z m 301 407 q 327 390 340 375 q 349 387 363 387 q 374 387 374 377 q 374 369 367 369 q 359 369 359 375 q 358 380 354 380 q 347 380 343 372 q 380 333 395 285 q 407 283 414 283 l 424 283 l 424 288 q 424 295 430 295 q 436 295 436 288 l 436 285 q 475 294 496 328 q 517 362 517 413 q 517 460 489 503 q 475 496 460 496 q 434 496 416 512 q 399 528 399 543 q 399 548 403 548 q 408 548 408 542 q 408 529 422 515 q 435 501 459 501 q 474 501 486 507 q 436 575 352 575 q 342 575 326 573 q 324 563 324 556 q 324 536 328 527 q 342 526 353 520 q 363 514 363 507 q 363 498 353 498 q 334 498 323 523 q 310 523 296 512 q 296 506 289 506 l 286 507 l 277 498 l 280 497 q 283 497 291 502 q 294 502 294 500 q 285 494 282 488 q 279 482 274 482 q 271 482 268 484 q 270 482 270 479 q 270 473 263 473 q 257 459 257 444 q 257 437 259 428 q 273 423 294 412 z m 398 449 q 398 442 403 435 q 408 428 430 415 q 453 402 460 390 q 467 378 467 364 q 467 336 444 321 q 422 305 402 305 l 400 309 l 405 311 q 430 316 430 335 q 430 344 425 353 q 419 362 397 379 q 375 396 369 406 q 363 417 363 428 q 363 457 387 473 q 411 489 425 489 q 429 489 429 486 l 424 483 q 398 471 398 449 z m 324 527 q 320 538 320 555 q 320 562 322 572 q 224 553 201 438 q 230 438 256 429 q 254 439 254 445 q 254 459 259 474 q 257 476 257 479 q 257 485 265 486 q 262 488 262 492 q 262 497 266 501 q 271 505 274 518 q 276 518 276 514 l 273 503 l 274 501 l 283 510 l 283 512 q 283 518 290 518 l 294 517 q 306 525 324 527 z m 353 511 q 353 514 347 518 q 341 521 330 523 q 337 505 348 505 q 353 505 353 511 z"},"3":{"x_min":0,"x_max":165,"ha":165,"o":"m 80 243 l 89 235 q 130 206 130 169 q 130 150 119 132 q 107 114 74 91 q 42 67 30 60 l 28 62 l 30 64 q 67 93 80 108 q 93 123 93 145 q 93 169 73 188 q 53 207 45 207 q 42 207 24 193 q 6 180 3 180 q 0 180 0 185 q 58 224 82 256 l 88 262 q 91 262 91 259 z m 108 108 q 116 108 137 72 q 159 37 159 -5 q 159 -47 122 -94 q 85 -140 53 -140 q 25 -140 7 -127 q -12 -114 -12 -94 q -12 -81 -4 -73 q 5 -65 17 -65 q 30 -65 38 -73 q 46 -80 46 -92 q 46 -101 40 -107 q 33 -113 25 -113 q 16 -113 5 -109 q 5 -119 18 -126 q 31 -134 52 -134 q 80 -134 104 -104 q 129 -73 129 -38 q 129 2 104 38 q 79 73 70 73 l 46 59 q 42 59 43 63 q 60 74 108 108 z"},";":{"x_min":0,"x_max":111,"ha":111,"o":"m 53 209 q 64 209 73 201 q 83 192 83 182 q 83 171 74 163 q 65 154 55 154 q 45 154 36 163 q 27 171 27 182 q 27 192 35 201 q 43 209 53 209 z m 74 37 q 74 33 92 9 q 109 -15 109 -19 q 109 -26 83 -51 q 58 -75 50 -73 q 74 -51 74 -41 q 74 -36 58 -14 q 42 7 36 7 q 33 7 22 1 l 18 3 q 18 5 46 24 q 73 43 89 65 l 90 63 q 90 59 74 37 z"},"J":{"x_min":0,"x_max":610,"ha":610,"o":"m 34 -122 q 32 -115 30 -88 q 28 -62 24 -58 q 24 -55 27 -52 q 31 -50 35 -50 q 40 -50 40 -55 q 40 -59 37 -66 q 34 -73 34 -85 q 34 -97 37 -113 l 43 -128 q 76 -210 180 -210 q 210 -210 239 -201 q 221 -178 221 -146 q 218 -147 212 -147 q 195 -147 178 -140 q 161 -134 137 -110 q 116 -88 103 -88 q 92 -88 83 -96 q 73 -105 73 -115 q 73 -127 79 -127 q 82 -127 87 -125 q 92 -125 92 -131 q 92 -136 83 -136 q 79 -136 74 -131 q 69 -125 69 -118 q 69 -104 80 -94 q 91 -84 107 -84 q 117 -84 127 -89 q 138 -93 157 -113 q 177 -132 189 -138 q 201 -143 213 -143 l 221 -143 q 223 -132 229 -124 q 235 -116 242 -116 q 250 -116 250 -124 q 250 -141 225 -145 l 225 -152 q 225 -177 243 -200 q 292 -184 321 -152 q 350 -120 350 -83 q 350 -71 347 -59 q 328 -52 320 -41 l 316 -36 q 309 -28 309 -21 q 309 -15 315 -15 q 321 -15 330 -21 l 336 -28 q 345 -36 350 -54 q 367 -59 389 -59 q 438 -59 475 -35 q 511 -10 511 28 q 511 56 489 79 q 467 102 440 102 q 420 102 404 89 q 379 69 390 42 q 396 28 417 28 q 426 28 432 34 q 438 40 443 40 q 449 40 449 35 q 449 30 440 26 q 431 21 420 21 q 400 21 388 37 q 378 50 385 71 q 390 84 405 95 q 421 106 441 106 q 470 106 493 81 q 516 56 516 24 q 516 -12 477 -38 q 438 -65 390 -65 q 372 -65 352 -61 q 354 -73 354 -82 q 354 -124 326 -157 q 298 -191 249 -207 q 284 -239 335 -239 q 377 -239 405 -214 q 432 -188 432 -150 q 432 -135 428 -127 q 388 -122 388 -105 q 388 -96 401 -96 q 424 -96 437 -124 q 441 -125 454 -125 q 515 -125 560 -81 q 605 -36 605 28 q 605 75 578 119 q 551 162 505 186 q 478 168 445 168 q 405 168 405 187 q 405 207 438 207 q 474 207 507 192 q 539 214 557 255 q 575 295 575 340 q 575 424 515 484 q 455 545 351 564 q 357 547 357 528 q 357 503 349 481 q 361 483 367 483 q 417 483 453 448 q 489 413 489 363 q 489 325 481 310 q 473 295 455 282 l 453 279 l 452 277 q 451 272 445 272 l 441 272 l 439 268 q 439 260 430 260 q 426 260 424 261 l 416 258 l 415 255 q 433 252 435 249 q 437 245 437 242 q 437 237 433 237 l 430 239 q 428 238 428 245 l 426 248 q 425 250 421 250 q 418 250 414 249 q 410 243 404 243 q 400 243 394 247 q 388 244 379 241 q 366 237 334 215 q 271 171 264 122 q 288 103 288 83 q 288 66 279 66 q 270 66 263 79 q 256 92 256 110 q 256 118 257 122 q 229 140 199 140 l 195 140 q 194 136 188 136 q 184 136 182 139 l 175 138 q 173 132 167 132 l 161 134 l 154 132 q 156 130 156 127 q 156 119 148 119 q 140 119 138 126 l 132 123 q 132 117 125 117 l 121 118 q 92 105 68 103 q 68 68 93 42 q 118 16 156 16 q 197 16 225 55 l 228 59 l 230 57 q 230 48 210 30 q 191 11 154 11 q 110 11 85 36 q 59 61 59 103 q 2 103 2 138 q 2 150 12 150 q 20 150 20 143 q 20 140 14 137 q 8 134 8 131 q 8 120 23 113 q 38 106 59 106 q 59 164 88 202 q 51 226 31 267 q 11 308 11 355 q 11 418 45 471 q 80 523 143 554 l 143 560 q 143 594 170 621 q 198 648 234 648 q 268 648 298 630 q 328 611 344 580 q 451 560 517 494 q 583 428 583 342 q 583 297 564 256 q 544 214 511 190 q 560 167 588 124 q 617 81 617 32 q 617 -34 568 -82 q 520 -129 456 -129 q 443 -129 438 -128 q 442 -139 442 -152 q 442 -192 411 -218 q 380 -244 335 -244 q 279 -244 245 -208 q 215 -217 182 -217 q 131 -217 94 -196 q 57 -175 40 -135 z m 40 -135 q 33 -152 33 -170 q 33 -188 30 -188 q 27 -188 27 -165 q 27 -146 34 -122 l 37 -113 q 58 -65 101 -35 q 145 -6 193 -6 q 215 -6 235 -14 q 254 -22 268 -39 q 282 -56 285 -56 q 305 -46 316 -36 l 319 -34 l 327 -26 l 330 -21 q 358 17 358 104 q 358 132 347 170 q 336 208 334 215 l 332 222 q 326 253 326 269 q 326 323 373 366 q 339 353 308 353 q 289 353 277 359 q 265 364 251 375 q 238 386 227 391 q 216 396 199 396 q 170 396 150 378 q 129 360 129 331 q 129 311 142 297 q 154 283 172 283 q 188 283 197 291 q 207 299 207 311 q 207 313 205 322 q 205 325 208 325 q 212 325 212 312 q 212 296 200 287 q 188 278 169 278 q 149 278 135 294 q 120 310 120 336 q 120 379 150 407 q 181 435 221 435 q 236 435 253 429 q 270 423 296 403 q 322 382 334 378 q 347 373 358 373 q 375 373 410 388 l 412 386 l 408 384 q 363 356 363 314 q 363 291 378 246 l 379 241 q 407 163 407 124 q 407 113 405 95 l 404 89 q 400 64 390 42 l 388 37 q 371 2 336 -28 l 332 -32 q 328 -36 323 -39 l 320 -41 q 305 -53 277 -67 q 250 -82 224 -107 l 222 -106 q 222 -103 232 -91 q 232 -85 210 -69 q 188 -53 165 -53 q 126 -53 93 -73 q 60 -94 43 -128 q 42 -130 40 -135 z m 426 -123 q 417 -101 404 -101 q 394 -101 394 -107 q 394 -118 426 -123 z m 225 -142 q 245 -139 245 -126 q 245 -121 239 -121 q 230 -121 225 -142 z m 339 581 q 309 635 241 635 q 206 635 177 612 q 148 590 148 561 l 148 556 q 211 585 285 585 q 315 585 339 581 z m 378 246 q 388 249 392 251 l 393 253 q 393 258 396 261 q 399 265 404 265 q 413 271 413 275 q 413 278 411 280 q 408 281 408 285 q 408 289 412 289 q 418 289 418 280 q 418 273 410 263 l 414 261 l 421 268 q 421 276 430 276 q 436 276 438 274 l 439 278 q 439 284 445 284 l 450 283 q 452 291 463 300 q 473 310 479 321 q 484 333 484 358 q 484 405 450 439 q 416 473 369 473 q 359 473 345 471 q 329 440 311 440 q 303 440 303 449 q 303 471 343 480 q 352 505 352 528 q 352 548 346 565 q 312 571 276 571 q 207 571 150 545 q 155 525 172 507 q 185 511 202 511 q 222 511 222 500 q 222 492 203 492 q 188 492 174 500 q 129 486 101 447 q 72 408 72 361 q 72 332 83 316 q 93 300 112 300 l 119 298 l 112 296 q 67 296 67 364 q 67 410 94 451 q 122 492 167 506 q 150 520 145 543 q 83 514 50 464 q 16 415 16 355 q 16 309 36 269 q 56 229 92 207 q 134 260 197 260 q 226 260 241 250 q 257 241 257 228 q 257 210 227 196 q 197 182 165 182 q 128 182 96 198 q 68 161 68 106 q 92 108 119 123 q 119 129 126 129 q 129 129 131 127 l 138 130 q 134 134 134 137 q 134 146 143 146 q 152 146 152 136 l 159 139 q 159 147 167 147 q 172 147 174 142 l 182 143 q 184 148 189 148 q 194 148 195 144 l 198 144 q 228 144 258 127 q 265 179 332 222 q 362 242 378 246 z m 180 502 q 189 496 201 496 q 214 496 214 500 q 214 505 204 505 q 192 505 180 502 z m 338 470 q 309 465 309 451 q 309 445 314 445 q 325 445 338 470 z m 100 203 q 130 187 166 187 q 196 187 224 199 q 253 212 253 226 q 253 237 236 243 q 219 250 199 250 q 140 250 100 203 z m 500 188 q 471 201 442 201 q 410 201 410 188 q 410 182 420 177 q 429 172 441 172 q 473 172 500 188 z m 284 80 q 284 100 264 115 q 264 101 268 86 q 272 72 278 72 q 284 72 284 80 z m 323 -39 q 330 -47 345 -53 q 340 -39 332 -32 l 327 -26 q 321 -21 318 -21 q 314 -21 314 -25 q 314 -27 319 -34 z"},"V":{"x_min":0,"x_max":681,"ha":681,"o":"m 206 271 q 156 304 146 374 q 143 394 143 412 q 143 458 167 496 q 191 535 235 561 q 233 575 233 584 q 233 633 275 672 q 317 712 373 712 q 421 712 460 686 q 499 659 499 624 q 499 593 476 593 q 468 593 462 596 q 455 600 455 604 q 455 611 461 611 q 466 611 467 605 q 467 599 476 599 q 495 599 495 624 q 495 655 457 681 q 418 706 372 706 q 317 706 278 669 q 238 631 238 582 q 238 570 239 564 q 290 591 336 591 q 429 591 494 535 q 559 480 559 409 q 559 384 548 362 q 540 345 525 330 q 493 297 438 287 l 438 269 q 442 271 446 271 q 459 271 459 262 q 459 251 438 245 l 438 225 q 451 206 480 204 q 505 202 526 223 q 532 229 552 255 q 572 281 592 290 q 611 300 632 300 q 659 300 679 282 q 699 264 699 238 q 699 218 683 203 q 667 187 647 187 q 624 187 607 201 q 590 216 590 237 q 590 250 599 258 q 609 267 622 267 q 632 267 640 262 q 647 257 647 248 q 647 240 639 240 q 631 240 631 246 q 631 251 637 251 l 639 253 q 639 256 635 260 q 630 263 623 263 q 611 263 603 255 q 594 247 594 237 q 594 219 610 205 q 625 191 645 191 q 664 191 679 206 q 694 220 694 239 q 694 262 675 279 q 656 295 630 295 q 612 295 594 286 q 576 277 556 251 q 536 225 529 218 q 509 198 483 199 q 453 201 438 217 l 438 162 q 460 172 496 175 q 524 177 554 169 q 616 152 653 110 q 690 67 690 14 q 690 -40 643 -78 q 597 -117 535 -117 l 529 -117 q 516 -176 474 -211 q 433 -245 383 -245 q 333 -245 301 -207 q 268 -169 268 -115 q 268 -110 270 -98 q 243 -107 213 -107 q 133 -107 70 -65 q 7 -24 7 42 q 7 89 39 120 q 72 152 120 152 q 170 152 209 123 q 248 94 268 44 l 271 37 q 276 26 276 17 l 275 9 q 269 27 267 34 l 265 41 q 227 140 120 140 q 77 140 47 111 q 17 82 17 41 q 17 -23 76 -63 q 136 -102 217 -102 q 245 -102 271 -93 q 279 -63 297 -42 q 315 -21 331 -21 q 350 -21 350 -38 q 350 -51 332 -67 q 313 -83 282 -94 q 279 -109 279 -127 q 279 -171 310 -205 q 340 -239 386 -239 q 434 -239 471 -207 q 509 -174 520 -116 q 492 -115 459 -102 l 460 -115 q 460 -142 440 -163 q 420 -185 391 -185 q 366 -185 350 -172 q 335 -159 335 -139 q 335 -130 343 -124 q 351 -117 361 -117 q 378 -117 378 -130 q 378 -138 370 -138 q 359 -138 359 -126 q 359 -123 355 -123 q 350 -123 344 -128 q 339 -134 339 -143 q 339 -159 354 -170 q 370 -181 390 -181 q 417 -181 435 -162 q 453 -144 453 -118 q 453 -112 449 -98 q 410 -79 410 -65 q 410 -58 418 -58 q 430 -58 441 -69 q 452 -79 457 -96 q 492 -109 521 -110 q 524 -93 524 -74 q 524 -58 521 -42 q 502 -38 491 -30 q 481 -22 481 -20 l 483 -17 l 487 -20 q 500 -34 520 -38 q 514 -3 493 40 l 488 49 q 476 75 463 91 q 456 88 436 77 q 433 77 433 85 l 433 130 l 421 149 q 356 118 343 76 q 335 52 344 28 l 349 14 l 346 12 q 343 12 338 30 q 331 56 338 76 q 354 122 418 154 q 396 196 392 237 l 373 235 q 362 234 328 236 q 251 241 209 269 z m 209 269 q 185 229 134 229 q 96 229 73 251 q 50 273 50 310 q 50 339 75 369 q 101 398 143 412 l 148 413 q 168 418 186 418 q 210 418 238 411 l 242 410 q 333 382 363 292 l 365 286 q 373 266 373 239 l 373 235 q 373 142 319 80 q 326 78 338 76 l 343 76 q 420 66 450 27 l 454 23 q 457 23 467 30 q 477 38 488 49 q 492 53 494 56 q 512 79 515 99 l 516 104 q 517 107 517 113 q 517 139 499 169 l 496 175 q 491 183 483 199 l 480 204 q 474 223 474 235 q 474 270 506 294 q 537 319 549 319 l 553 317 l 547 313 q 513 300 513 264 q 513 245 526 223 l 529 218 l 535 208 q 550 184 554 169 l 556 162 q 559 151 559 139 q 559 120 549 98 l 546 94 q 532 70 500 45 q 496 42 493 40 l 477 29 q 429 -1 417 -21 l 415 -23 q 410 -23 410 -19 q 410 5 344 28 l 338 30 l 324 35 q 298 45 289 50 l 271 37 l 267 34 q 208 -4 152 -4 q 117 -4 98 12 q 78 28 78 51 q 78 64 87 73 q 96 82 110 82 q 122 82 130 74 q 138 67 138 55 q 138 34 115 34 q 107 34 93 41 l 91 37 q 91 22 109 11 q 126 1 153 1 q 210 1 265 41 l 268 44 q 270 46 275 50 q 279 53 281 55 q 263 68 252 90 q 241 112 241 136 q 241 160 253 178 q 265 196 268 196 l 270 194 l 268 190 q 255 175 255 151 q 255 105 305 85 q 332 127 332 194 q 332 217 328 236 l 327 240 q 321 272 303 301 l 298 309 q 276 342 246 359 l 241 362 q 209 377 176 377 q 167 377 150 375 l 146 374 q 107 367 85 345 q 64 324 64 292 q 64 265 84 249 q 105 233 135 233 q 184 233 206 271 l 208 275 q 212 282 216 295 l 218 293 q 218 289 211 273 z m 211 273 q 256 244 327 240 q 354 239 373 239 q 385 239 391 240 l 391 253 q 391 269 396 284 q 376 284 365 286 q 320 294 303 301 q 254 321 241 362 q 232 390 238 411 q 247 448 282 473 q 249 507 238 549 q 148 501 148 413 q 148 389 150 375 q 159 309 208 275 z m 438 249 q 453 253 453 260 q 453 266 446 266 q 442 266 438 262 z m 433 160 l 433 224 q 428 232 428 242 q 411 238 396 237 q 399 199 424 156 z m 499 169 q 471 168 438 156 l 438 135 q 455 113 468 97 q 489 104 508 104 l 516 104 q 528 104 549 98 q 604 83 612 38 q 623 34 623 25 q 623 16 612 12 q 606 -14 586 -29 q 565 -44 542 -44 q 534 -44 530 -43 q 533 -60 533 -74 q 533 -93 530 -111 l 537 -111 q 591 -111 634 -74 q 677 -38 677 13 q 677 64 644 105 q 612 146 556 162 q 529 170 499 169 z m 433 143 l 433 154 l 427 152 z m 460 94 l 438 123 l 438 85 q 451 91 460 94 z m 515 99 l 504 99 q 488 99 471 94 q 478 85 494 56 q 496 52 500 45 q 522 1 530 -39 q 533 -40 541 -40 q 564 -40 583 -26 q 602 -12 606 12 q 596 16 596 25 q 596 34 606 38 q 597 80 546 94 q 529 99 515 99 z m 283 -89 q 311 -78 327 -64 q 343 -50 343 -37 q 343 -26 329 -26 q 317 -26 304 -43 q 291 -60 283 -89 z m 447 -92 q 434 -64 421 -64 q 417 -64 417 -69 q 417 -80 447 -92 z m 518 331 q 497 336 468 359 q 439 382 423 387 q 408 392 393 392 q 355 392 335 362 l 332 359 l 331 362 q 331 372 359 397 q 387 422 436 422 q 452 422 470 416 q 487 409 511 390 q 535 370 543 365 l 548 362 q 566 352 585 352 q 611 352 623 372 l 626 376 l 628 374 q 628 360 608 344 q 587 327 551 327 q 537 327 525 330 z m 294 470 q 340 428 385 428 q 398 428 408 433 q 417 438 417 447 q 417 462 397 471 q 376 480 346 480 q 317 480 294 470 z m 363 292 q 386 290 398 290 q 409 317 433 334 l 433 350 q 433 357 436 357 q 438 357 438 350 l 438 338 q 453 347 459 347 l 461 345 q 445 336 438 332 l 438 294 q 485 302 518 331 q 533 344 543 365 q 553 387 553 411 q 553 477 492 527 q 431 577 347 577 q 292 577 242 551 q 251 511 287 476 q 315 491 340 491 q 375 491 399 478 q 422 465 422 448 q 422 437 412 430 q 402 424 387 424 q 337 424 288 467 q 250 449 242 410 q 236 383 246 359 q 258 328 298 309 q 327 295 363 292 z m 433 293 l 433 328 q 411 311 403 290 q 418 290 433 293 z m 433 264 l 433 286 q 414 284 401 284 q 396 269 396 252 l 396 240 q 415 243 428 246 q 430 259 433 264 z"},"\"":{"x_min":0,"x_max":103,"ha":103,"o":"m 8 297 q 8 323 8 338 l 8 352 l -3 346 q -6 346 -5 351 q 0 354 21 375 q 42 397 45 397 l 49 395 q 40 387 40 383 l 40 297 l 24 261 z m 68 297 q 68 323 68 338 l 68 352 l 57 346 q 54 346 55 351 q 60 354 81 375 q 103 397 105 397 l 109 395 q 100 387 100 383 l 100 297 l 84 261 z"},"7":{"x_min":0,"x_max":165,"ha":165,"o":"m 160 233 l 162 234 l 164 232 l 161 228 q 125 190 80 190 q 57 190 15 215 q 9 215 -6 205 l -8 207 q 32 233 71 267 q 74 268 74 265 l 61 249 q 61 244 79 232 q 98 220 121 220 q 146 220 160 233 z m 171 233 l 174 231 q 141 197 125 155 q 108 113 91 29 q 74 -55 76 -65 q 78 -65 81 -62 q 84 -58 88 -60 l 86 -62 q 75 -71 43 -112 q -5 -175 -10 -175 q -14 -175 -14 -170 q 18 -137 28 -84 q 49 22 61 67 q 73 112 90 142 q 108 172 130 193 q 152 214 160 222 q 168 230 171 233 z"},"S":{"x_min":0,"x_max":723,"ha":723,"o":"m 567 332 q 632 314 670 268 q 707 222 707 165 q 707 76 632 16 q 639 0 639 -17 q 639 -73 595 -108 q 595 -115 587 -115 l 584 -114 q 584 -122 577 -122 l 572 -122 q 574 -127 574 -130 q 574 -135 568 -135 q 565 -135 563 -133 q 563 -140 557 -140 q 553 -140 550 -132 q 547 -139 541 -139 l 538 -137 q 536 -143 530 -143 q 526 -143 524 -140 q 503 -145 471 -145 q 444 -145 418 -137 l 418 -144 q 418 -187 388 -217 q 359 -248 318 -248 q 272 -248 242 -220 q 212 -192 212 -146 l 212 -139 q 182 -153 147 -153 q 84 -153 43 -119 q 3 -84 3 -31 q 3 15 33 57 q 62 98 117 126 q 61 161 61 228 q 61 265 85 297 q 110 329 150 345 q 121 384 121 435 q 121 511 193 560 q 265 608 364 608 q 465 608 533 558 q 601 508 601 429 q 601 375 567 332 z m 393 535 q 425 528 445 510 q 465 493 465 471 q 465 444 450 444 q 441 444 441 450 q 441 456 455 456 q 461 456 461 470 q 461 490 442 507 q 424 523 392 530 l 387 527 l 382 531 l 374 532 l 369 528 q 366 528 363 533 l 357 533 l 351 528 l 344 533 l 316 530 q 319 523 326 523 l 334 523 q 323 516 319 516 q 303 516 296 524 q 296 515 288 515 l 281 518 l 279 517 q 279 510 274 510 l 267 511 l 265 510 q 265 504 259 504 l 257 505 q 232 490 218 469 q 204 448 204 429 q 204 417 208 401 q 205 401 203 409 q 200 418 200 426 q 200 475 254 509 q 254 516 260 516 l 265 516 q 267 524 272 524 q 275 524 277 522 l 280 523 q 282 532 288 532 l 295 529 l 298 531 q 300 539 308 543 q 315 548 322 548 q 332 548 332 545 q 319 543 316 535 q 325 537 343 538 q 346 544 351 544 l 358 538 l 363 538 q 365 543 369 543 l 376 537 l 384 536 l 388 539 q 391 539 393 535 z m 266 512 z m 246 190 l 248 188 q 248 185 230 175 q 212 166 182 166 q 155 166 135 182 q 116 198 116 222 q 116 248 135 266 q 155 283 178 283 q 204 283 204 267 q 204 259 195 259 q 186 259 186 270 q 186 278 173 278 q 155 278 139 262 q 123 247 123 221 q 123 200 141 185 q 158 171 181 171 q 225 171 244 188 z m 387 364 q 359 372 329 397 l 322 402 q 313 402 291 375 q 268 349 268 305 q 268 272 289 253 q 309 233 346 233 q 363 233 387 243 l 393 245 q 435 265 472 265 q 518 265 543 238 q 568 211 568 172 q 568 138 543 110 q 519 83 465 57 l 460 55 q 412 32 399 27 l 393 26 q 355 13 336 1 q 316 -10 301 -30 l 298 -28 q 298 -21 319 -2 q 319 5 289 21 q 259 36 202 36 q 160 36 123 12 q 87 -11 87 -44 q 87 -65 102 -78 q 116 -91 140 -91 q 174 -91 196 -65 l 199 -62 l 200 -65 q 200 -70 183 -83 q 166 -96 138 -96 q 113 -96 97 -82 q 81 -68 81 -43 q 81 6 130 39 q 180 71 244 71 q 332 71 372 27 l 376 24 l 392 30 l 397 31 q 440 49 457 60 l 462 62 q 510 94 510 160 q 510 195 487 220 q 464 244 427 244 q 408 244 393 238 l 387 237 q 380 234 351 221 q 323 207 294 207 q 262 207 240 228 q 219 250 219 282 q 219 330 265 371 q 287 391 309 401 q 396 444 420 467 l 428 475 l 430 473 q 430 466 385 434 q 385 429 405 416 q 426 403 466 403 q 491 403 505 416 q 519 430 519 448 q 519 453 517 463 q 523 453 523 447 q 523 412 489 386 q 455 361 415 361 q 406 361 393 363 z m 393 363 l 393 304 q 442 339 504 339 q 540 339 561 334 q 596 375 596 429 q 596 501 527 549 q 458 596 358 596 q 267 596 197 551 q 127 505 127 435 q 127 388 157 347 q 170 352 181 352 q 196 352 206 345 q 216 338 216 327 q 216 316 200 316 q 172 316 152 340 q 117 326 96 296 q 74 266 74 230 q 74 161 127 131 q 184 156 242 156 q 286 156 327 147 q 364 170 385 203 l 387 206 l 387 283 l 375 287 q 365 278 351 258 l 349 259 q 361 278 370 288 q 348 296 348 299 l 350 301 q 365 294 374 291 q 381 298 387 301 l 387 364 q 387 371 390 371 q 393 371 393 363 z m 393 216 q 395 220 403 233 q 403 224 393 208 l 393 125 l 395 123 q 416 154 454 154 q 473 154 483 146 q 493 139 493 128 q 493 111 480 111 q 472 111 472 119 q 472 124 478 125 q 483 126 483 131 q 483 150 452 150 q 418 150 399 120 q 440 92 462 62 l 465 57 q 493 8 495 -17 q 500 -17 507 -18 q 515 -18 519 -18 q 545 -18 574 -8 q 603 2 625 20 q 608 55 577 67 q 556 54 538 54 q 518 54 518 64 q 518 71 526 75 q 533 79 543 79 q 558 79 578 73 q 601 88 614 112 q 628 136 628 160 l 624 158 q 621 158 620 160 q 619 161 619 168 q 619 178 623 178 l 627 176 q 617 249 550 269 l 545 271 l 547 273 q 564 273 594 251 q 625 229 632 176 q 632 178 636 178 q 640 178 640 168 q 640 158 637 158 q 635 158 633 160 q 630 107 582 70 q 610 58 629 23 q 659 50 677 88 q 694 126 694 165 q 694 220 660 264 q 626 308 564 327 q 516 277 436 277 q 415 277 393 282 z m 160 342 q 172 330 180 326 q 187 323 199 323 q 205 323 205 329 q 205 336 198 341 q 191 346 182 346 q 172 346 160 342 z m 558 329 q 533 335 504 335 q 446 335 393 300 l 393 287 q 414 282 435 282 q 471 282 504 294 q 538 307 558 329 z m 387 288 l 387 296 q 384 295 379 290 q 382 289 387 288 z m 387 127 l 387 199 q 371 171 335 145 q 361 139 387 127 z m 319 141 q 290 146 244 146 q 194 146 143 125 q 170 114 202 114 q 262 114 319 141 z m 392 30 q 382 56 382 73 q 382 85 386 99 q 377 101 377 104 q 387 110 387 120 q 352 136 328 140 q 276 108 201 108 q 160 108 130 120 q 78 94 47 54 q 17 13 17 -30 q 17 -84 52 -115 q 86 -146 147 -146 q 183 -146 213 -133 q 218 -101 234 -81 q 251 -60 271 -60 q 282 -60 282 -72 q 282 -84 265 -103 q 249 -122 221 -137 l 221 -143 q 221 -186 248 -211 q 275 -236 319 -236 q 359 -236 387 -209 q 414 -182 414 -145 l 414 -136 q 390 -125 390 -123 l 392 -121 q 406 -128 413 -131 q 405 -81 362 -54 l 359 -52 l 361 -50 q 368 -50 390 -71 q 412 -93 417 -132 q 438 -140 472 -140 q 508 -140 524 -135 l 530 -129 l 536 -131 q 538 -125 544 -125 l 548 -126 q 546 -120 546 -117 q 546 -110 551 -110 q 554 -110 557 -114 q 557 -106 562 -106 q 566 -106 570 -117 q 572 -108 577 -108 l 581 -109 q 583 -102 589 -102 l 592 -101 q 633 -69 633 -17 q 633 -5 627 13 q 572 -23 520 -23 q 504 -23 496 -22 q 498 -36 498 -45 q 498 -91 472 -91 q 463 -91 463 -83 q 463 -73 471 -73 q 477 -73 477 -78 q 477 -83 482 -83 q 486 -83 490 -74 q 493 -64 493 -45 q 493 -38 491 -22 q 419 -13 393 26 z m 573 69 q 553 74 545 74 q 531 74 531 66 q 531 59 544 59 q 555 59 573 69 z m 457 60 q 435 90 397 115 l 396 111 q 396 108 401 103 q 401 101 391 99 q 386 84 386 72 q 386 56 397 31 l 399 27 q 423 -9 490 -17 q 483 21 460 55 z m 222 -130 q 248 -115 262 -99 q 276 -83 276 -73 q 276 -65 266 -65 q 255 -65 241 -81 q 227 -97 222 -130 z"},"}":{"x_min":0,"x_max":195,"ha":195,"o":"m 84 465 q 135 341 143 214 q 143 201 166 174 q 189 147 189 142 q 189 136 169 111 q 149 86 148 75 q 134 -67 69 -173 q 48 -208 42 -208 q 38 -208 38 -205 l 40 -202 q 58 -180 79 -113 q 100 -45 106 50 q 107 62 130 86 q 153 110 153 113 q 153 117 130 144 q 107 171 106 185 q 103 267 82 349 q 62 431 52 431 q 40 423 36 423 l 33 425 l 37 429 q 66 451 85 479 q 87 482 90 482 q 93 482 93 479 q 93 476 90 472 q 86 469 84 465 z"},"Z":{"x_min":0,"x_max":753,"ha":753,"o":"m 150 444 q 150 476 173 501 q 197 526 239 542 q 239 548 246 548 q 250 548 251 545 l 255 546 q 255 552 262 552 q 267 552 267 548 l 271 549 q 271 551 273 554 q 276 556 279 556 q 284 556 287 551 q 287 561 292 561 q 297 561 298 552 q 298 561 303 561 q 308 561 309 552 q 311 557 316 557 q 321 557 325 551 q 327 554 331 554 q 335 554 337 549 l 342 548 q 343 552 349 552 q 355 552 355 545 q 390 537 408 523 q 427 510 427 505 l 425 504 l 421 507 q 396 534 354 543 q 353 540 348 540 q 342 540 342 545 l 336 546 q 336 542 330 542 q 324 542 324 547 q 322 542 316 542 q 310 542 308 548 q 308 535 304 535 q 300 535 299 537 q 298 540 297 548 q 297 535 293 535 q 289 535 288 537 q 287 540 287 548 q 287 541 279 541 q 274 541 272 546 l 268 545 q 268 540 261 540 q 258 540 256 542 l 252 541 q 252 536 245 536 l 240 537 q 203 524 181 500 q 159 476 159 447 q 159 438 154 438 q 150 438 150 444 z m 159 447 q 159 425 178 410 q 198 394 222 394 q 248 394 290 415 q 333 436 353 440 q 373 445 390 445 q 435 445 462 420 q 490 395 490 354 q 490 344 487 332 l 486 328 q 476 296 450 271 q 490 265 515 242 l 518 239 q 543 214 543 179 q 543 152 520 125 q 498 97 433 58 q 369 20 349 4 q 330 -13 314 -35 l 312 -34 q 312 -28 321 -18 q 329 -8 329 -5 q 329 3 299 19 q 269 34 217 34 q 167 34 128 5 q 90 -25 85 -72 l 85 -82 q 85 -90 83 -90 q 80 -90 80 -82 l 80 -79 l 81 -70 q 88 -7 142 37 q 195 81 261 81 q 299 81 333 68 l 338 66 q 359 56 382 35 q 385 35 415 56 q 445 78 461 104 q 478 131 478 162 q 478 181 474 203 l 472 207 q 461 245 432 254 q 394 223 371 223 q 357 223 357 232 q 357 246 379 259 q 402 272 432 272 l 440 272 q 457 294 457 319 q 457 348 437 367 q 417 387 386 387 q 367 387 338 377 l 333 375 q 282 353 254 353 q 212 353 181 379 q 150 406 150 444 q 150 453 154 453 q 159 453 159 447 z m 338 377 l 338 345 q 346 342 346 335 q 346 329 338 326 l 338 313 q 346 312 352 309 q 372 324 391 348 l 393 347 q 374 322 356 309 q 374 304 393 291 l 391 292 q 372 300 351 305 l 338 297 l 338 197 q 346 194 346 187 q 346 181 338 178 l 338 105 q 362 112 387 131 l 388 129 q 388 126 375 117 q 362 108 338 102 l 338 66 q 338 59 335 59 q 333 59 333 68 l 333 100 q 318 97 299 97 q 246 97 201 121 q 157 145 143 185 q 86 168 52 128 q 19 88 19 38 q 19 -31 81 -70 l 85 -72 q 125 -94 172 -94 q 230 -94 263 -64 l 265 -62 l 267 -63 q 267 -69 240 -83 q 213 -98 171 -98 q 125 -98 85 -81 l 80 -79 q 5 -42 5 34 q 5 87 42 130 q 79 173 141 191 q 139 203 139 212 q 139 251 168 279 q 100 297 61 341 q 22 384 22 446 q 22 532 102 592 q 182 652 299 652 q 414 652 502 584 q 590 516 590 417 q 590 370 575 328 q 647 309 691 261 q 735 212 735 151 q 735 107 713 70 q 690 32 650 10 q 662 -24 662 -59 q 662 -131 607 -185 q 552 -239 461 -239 l 451 -239 q 431 -274 397 -293 q 363 -312 323 -312 q 282 -312 250 -298 q 218 -284 202 -266 q 186 -248 186 -245 l 187 -242 l 190 -246 q 234 -308 328 -308 q 360 -308 393 -290 q 427 -271 446 -238 q 398 -235 360 -218 q 323 -201 309 -174 q 273 -202 215 -202 q 155 -202 118 -170 q 80 -138 80 -82 q 80 -74 83 -74 q 85 -74 85 -82 q 85 -127 123 -158 q 162 -188 226 -188 q 273 -188 305 -166 q 302 -157 302 -147 q 302 -133 308 -125 q 313 -117 323 -117 q 335 -117 335 -132 q 335 -151 311 -172 q 344 -226 449 -232 q 463 -202 463 -170 q 463 -160 461 -146 q 438 -141 423 -129 q 409 -117 409 -104 q 409 -91 424 -91 q 438 -91 450 -104 q 461 -118 467 -140 q 470 -141 477 -141 q 514 -141 540 -115 q 567 -88 567 -52 q 567 -28 558 -10 q 518 -9 493 4 q 469 17 469 33 q 469 40 475 44 q 481 48 489 48 q 510 48 529 34 q 549 21 561 -4 l 569 -4 q 604 -4 638 12 q 620 59 586 83 q 576 80 564 80 q 541 80 541 92 q 541 98 544 100 q 547 102 556 102 q 568 102 588 88 q 641 107 641 166 q 641 196 625 217 q 609 238 584 247 l 586 249 q 596 249 621 227 q 647 205 647 168 q 647 140 632 117 q 617 95 592 85 q 629 60 647 17 q 682 38 701 72 q 720 106 720 145 q 720 211 681 259 q 643 307 573 323 q 554 275 518 239 q 495 215 474 203 q 452 190 434 185 q 416 179 412 179 l 409 181 l 413 182 q 445 189 472 207 q 495 222 515 242 q 551 278 569 324 q 542 330 512 330 q 499 330 486 328 l 479 329 l 487 332 q 504 334 523 334 q 547 334 571 328 q 584 367 584 408 q 584 500 505 569 q 425 637 297 637 q 187 637 107 583 q 28 529 28 437 q 28 381 66 340 q 105 299 172 283 q 218 318 292 318 q 310 318 333 314 l 333 326 q 326 330 326 335 q 326 342 333 344 l 333 375 q 333 384 335 384 q 338 384 338 377 z m 333 298 l 333 309 q 315 312 293 312 q 229 312 185 280 q 211 275 233 275 q 287 275 333 298 z m 347 306 l 338 308 l 338 301 q 344 305 347 306 z m 333 104 l 333 178 q 326 182 326 187 q 326 194 333 196 l 333 294 q 287 270 234 270 q 208 270 180 276 q 150 249 150 214 q 150 206 152 194 q 177 199 199 199 q 253 199 286 185 q 319 170 318 165 l 315 167 q 271 194 205 194 q 179 194 153 188 q 166 147 208 124 q 250 101 303 101 q 319 101 333 104 z m 425 256 q 420 257 411 257 q 394 257 379 249 q 364 242 364 235 q 364 227 377 227 q 382 227 396 235 q 411 243 425 256 z m 582 86 q 568 96 556 96 q 550 96 550 91 q 550 84 564 84 q 570 84 582 86 z m 555 -4 q 544 18 526 31 q 508 44 495 44 q 476 44 476 36 q 476 25 499 12 q 521 0 555 -4 z m 454 -233 l 468 -233 q 539 -233 594 -180 q 649 -126 649 -55 q 649 -21 640 5 q 607 -10 564 -10 q 574 -33 574 -54 q 574 -95 548 -121 q 521 -147 477 -147 l 468 -147 q 470 -159 470 -166 q 470 -201 454 -233 z m 459 -139 q 454 -119 445 -107 q 435 -95 425 -95 q 413 -95 413 -105 q 413 -115 426 -125 q 438 -135 459 -139 z m 308 -164 q 330 -148 330 -133 q 330 -121 323 -121 q 305 -121 305 -147 q 305 -156 308 -164 z"},"x":{"x_min":0,"x_max":174,"ha":174,"o":"m 99 174 q 101 178 112 199 q 122 221 131 233 q 141 245 156 265 l 158 263 q 158 258 145 238 l 170 219 q 174 219 179 224 l 181 221 q 181 217 167 199 q 153 181 143 181 q 134 181 119 195 q 114 195 108 181 q 102 168 101 166 l 101 88 q 101 60 113 46 q 125 33 135 33 q 138 33 162 60 l 164 57 q 164 54 152 41 q 140 27 122 11 q 104 -4 91 -30 l 89 -34 q 86 -34 86 -31 q 86 -27 92 -18 q 98 -8 98 -5 l 93 0 q 62 28 62 68 q 47 34 25 2 l 2 -31 l -1 -33 l -3 -31 q 1 -24 13 -4 q 13 -1 6 4 q -1 10 -8 10 q -17 10 -23 5 l -34 -4 l -35 -2 q 1 43 21 43 q 25 43 31 42 q 36 40 38 40 q 42 40 49 54 q 57 67 62 84 l 62 148 q 62 170 50 184 q 37 198 30 198 q 25 198 10 184 l 4 188 q 10 192 21 201 q 31 210 44 221 q 57 231 75 255 l 74 253 q 74 248 60 231 l 68 223 q 99 201 99 174 z"},")":{"x_min":0,"x_max":185,"ha":185,"o":"m 73 433 q 114 388 140 320 q 166 252 166 176 q 166 4 72 -153 q 38 -210 30 -210 q 27 -210 27 -207 l 28 -204 q 70 -143 100 -42 q 130 58 130 173 q 130 225 112 277 q 95 330 72 364 q 48 399 41 399 q 36 399 31 393 q 26 387 23 387 l 21 389 q 21 393 41 413 q 61 432 81 457 q 84 457 84 453 q 76 441 73 433 z"},"&":{"x_min":0,"x_max":278,"ha":278,"o":"m 189 188 l 189 306 q 189 340 201 361 q 213 381 232 396 q 251 411 254 411 l 256 408 l 255 406 q 239 392 234 373 q 230 354 230 319 l 230 188 l 243 188 q 249 188 249 182 q 249 175 243 175 l 230 175 l 230 159 q 230 131 220 112 q 210 93 192 77 q 173 62 124 28 q 75 -6 41 -37 q 38 -37 38 -33 q 38 -29 62 -9 l 70 -1 l 63 4 q 16 35 16 98 q 16 156 80 219 q 99 237 109 257 q 112 257 112 253 q 104 240 104 238 l 113 231 q 153 204 153 178 q 153 161 141 142 q 129 124 107 105 q 85 87 72 71 q 67 71 68 76 l 91 100 q 116 127 116 156 q 116 172 102 187 q 87 201 83 201 q 72 201 62 181 q 52 160 52 118 q 52 79 73 56 q 94 33 115 33 q 120 33 128 39 q 156 59 167 69 q 179 80 184 96 q 189 112 189 141 l 189 175 l 174 175 q 168 175 168 182 q 168 188 174 188 z m 271 37 l 273 35 q 242 11 222 -10 q 202 -31 199 -31 l 197 -29 q 208 -16 208 -12 q 208 -4 194 11 q 180 26 151 26 q 142 26 128 17 q 125 17 125 20 q 175 58 190 58 q 202 58 249 26 q 253 26 260 31 q 268 37 271 37 z"},"_":{"x_min":0,"x_max":350,"ha":350,"o":"m -7 -210 l -7 -181 l 358 -181 l 358 -210 z"},"v":{"x_min":0,"x_max":217,"ha":217,"o":"m 79 189 q 86 199 113 219 q 140 238 170 266 l 172 264 q 154 246 154 240 q 154 236 162 228 q 171 220 178 220 q 184 220 197 227 q 210 233 214 233 l 216 231 q 197 220 177 205 q 158 189 146 189 q 131 189 110 208 q 90 192 79 178 l 79 67 q 79 51 90 41 q 101 31 117 31 q 130 31 142 43 q 155 56 155 77 q 155 90 149 107 q 143 125 143 135 q 143 169 172 189 l 176 192 q 191 202 194 202 l 197 200 l 195 198 q 177 188 177 168 q 177 156 186 139 q 195 123 195 106 q 195 85 181 66 q 167 47 125 25 q 83 2 68 -17 l 65 -20 l 63 -18 q 63 -16 66 -11 q 70 -6 70 -4 q 70 3 52 15 q 34 27 25 27 q 21 27 1 17 l -2 19 l 7 26 q 42 48 42 79 l 42 169 q 42 183 33 191 q 24 199 18 199 q 15 199 -2 187 l -4 189 q -4 192 21 214 q 46 235 62 257 l 64 255 l 53 237 q 53 234 66 227 q 79 220 79 204 z"},"O":{"x_min":0,"x_max":857,"ha":857,"o":"m 669 348 q 754 345 802 297 q 849 250 849 187 q 849 133 810 94 q 771 54 704 41 q 728 6 728 -42 q 728 -102 678 -151 q 628 -200 570 -200 q 521 -200 478 -176 q 435 -152 417 -113 q 375 -139 330 -139 q 274 -139 228 -116 q 182 -94 156 -52 q 136 -74 136 -108 q 136 -145 161 -167 q 187 -190 230 -190 q 277 -190 299 -164 l 302 -163 q 302 -168 282 -181 q 263 -195 229 -195 q 184 -195 156 -170 q 128 -146 128 -108 q 128 -73 153 -48 q 132 -11 132 35 l 132 47 q 72 60 36 98 q 1 136 1 191 q 1 253 47 293 q 93 333 161 337 q 155 359 155 388 q 155 484 223 545 q 291 606 413 606 q 520 606 595 540 q 671 475 671 373 q 671 363 669 348 z m 562 326 q 544 318 529 306 l 527 307 q 543 321 559 328 q 596 344 622 346 q 647 348 665 348 q 667 363 667 372 q 667 461 598 527 q 529 593 412 593 q 294 593 227 536 q 160 479 160 387 q 160 359 166 337 q 208 337 249 321 q 269 313 280 306 q 306 290 335 258 l 333 256 l 331 259 q 307 285 279 302 q 270 307 246 317 q 209 332 167 332 q 180 289 214 259 q 232 243 261 231 q 295 217 329 217 q 363 217 392 225 q 428 235 449 253 q 476 275 476 301 q 476 315 463 336 q 466 336 473 325 q 480 314 480 299 q 480 275 452 251 q 433 234 395 222 q 366 213 328 213 q 292 213 260 226 q 234 237 213 255 q 177 286 163 332 q 98 330 56 292 q 15 253 15 191 q 15 138 47 101 q 78 64 132 53 q 140 128 205 172 q 229 188 259 197 q 280 203 297 203 q 347 203 384 180 q 422 157 434 119 l 433 117 l 432 120 q 416 157 379 178 q 343 199 298 199 q 280 199 259 193 q 229 184 205 167 q 147 125 142 51 q 149 50 165 50 q 214 50 255 64 q 277 72 293 82 q 324 102 340 133 l 342 135 l 343 133 q 343 130 331 114 q 319 97 295 79 q 284 71 259 61 q 216 44 164 44 q 149 44 142 45 l 142 37 q 142 -7 161 -42 q 188 -22 222 -22 q 251 -22 290 -44 q 319 -61 336 -61 q 368 -61 390 -34 l 393 -30 l 394 -32 q 394 -37 375 -53 q 356 -69 334 -69 q 312 -69 298 -63 q 285 -58 262 -43 q 239 -28 213 -28 q 184 -28 163 -45 q 188 -86 232 -109 q 276 -132 323 -132 q 378 -132 415 -109 q 410 -93 410 -79 q 410 -63 417 -53 q 424 -44 434 -44 q 452 -44 452 -67 q 452 -90 421 -110 q 436 -146 474 -165 q 512 -185 566 -185 q 624 -185 673 -143 q 723 -100 723 -41 q 723 7 699 40 q 680 37 659 37 q 611 37 571 56 l 560 62 q 545 69 529 83 q 490 61 479 17 l 478 8 q 477 4 477 -5 q 477 -42 503 -66 q 528 -91 563 -91 q 588 -91 603 -76 q 618 -62 618 -40 q 618 -23 607 -10 q 595 3 582 3 q 567 3 559 -14 q 552 -31 534 -31 q 525 -31 520 -27 q 514 -23 514 -17 q 514 -13 519 -13 q 522 -13 524 -21 q 525 -28 534 -28 q 543 -28 549 -14 q 558 7 580 7 q 600 7 614 -9 q 627 -24 627 -44 q 627 -63 609 -79 q 590 -95 566 -95 q 524 -95 497 -69 q 470 -42 470 -2 l 470 6 l 472 15 q 482 61 526 86 q 512 99 512 101 l 513 103 q 523 93 529 88 q 551 99 576 99 l 587 99 q 597 99 612 96 q 670 85 701 45 q 763 58 800 95 q 836 133 836 181 q 836 245 791 293 q 747 341 668 344 q 664 316 650 292 q 633 262 606 243 q 566 216 526 216 q 510 216 510 220 l 512 222 q 522 219 526 219 q 567 219 605 247 q 630 266 648 297 q 661 319 663 344 q 648 344 625 342 q 588 338 562 326 z m 452 251 q 496 223 496 179 q 496 134 467 108 q 438 81 408 81 q 386 81 386 86 l 388 89 q 396 86 402 86 q 417 86 437 100 q 456 114 456 138 q 456 151 449 164 q 443 177 422 196 q 401 215 395 222 l 392 225 q 372 251 372 279 q 372 316 397 341 q 423 366 439 366 q 443 366 443 364 l 440 362 q 408 346 408 313 q 408 295 417 282 q 425 269 449 253 z m 332 507 q 336 479 364 457 q 392 436 475 424 q 528 416 564 396 q 599 377 622 346 l 625 342 q 640 322 648 297 l 650 292 q 660 265 660 230 q 660 172 631 124 l 629 120 q 622 107 612 96 l 609 92 q 596 75 574 58 l 571 56 q 530 22 478 8 l 470 6 q 445 -1 416 -1 q 322 -1 259 61 l 255 64 q 214 106 205 167 l 205 172 l 204 193 q 204 228 213 255 l 214 259 q 225 292 246 317 l 249 321 q 281 356 319 372 q 357 388 368 388 l 373 387 l 366 383 q 307 360 280 306 l 279 302 q 266 273 261 231 l 260 226 l 259 197 l 259 193 q 259 131 293 82 l 295 79 q 319 46 353 28 q 387 10 423 10 q 445 10 472 15 l 479 17 q 529 30 560 62 l 562 64 q 576 80 585 95 l 587 99 q 592 108 600 130 l 601 133 q 610 169 610 202 q 610 224 606 243 l 605 247 q 594 296 562 326 l 559 328 q 522 360 456 372 q 393 382 364 400 q 315 431 315 497 l 315 505 q 318 528 332 543 q 346 559 349 559 l 350 557 l 347 554 q 331 537 331 523 q 331 515 332 511 z m 315 501 q 239 466 239 408 q 239 395 249 394 q 259 393 259 382 q 259 373 249 373 q 234 373 234 405 q 234 436 255 463 q 277 490 315 505 q 330 511 332 511 l 345 514 q 345 520 352 520 q 357 520 357 517 l 361 518 q 361 523 368 523 q 373 523 373 519 q 378 520 391 520 l 403 520 q 402 525 390 526 q 378 527 378 532 q 378 537 382 537 q 385 537 386 533 q 388 530 393 530 q 396 530 403 532 q 419 532 422 519 l 431 518 q 433 521 437 521 q 443 521 443 516 l 449 515 q 451 517 455 517 q 461 517 461 512 q 520 496 546 466 q 572 436 572 428 l 571 426 l 570 428 q 539 488 461 509 q 459 505 454 505 q 448 505 448 512 l 443 513 q 441 509 436 509 q 430 509 430 514 l 422 515 q 419 505 407 505 q 405 505 395 507 q 388 507 386 502 q 385 498 382 498 q 376 498 376 502 q 376 507 389 510 q 402 514 403 517 l 390 517 q 380 517 374 516 q 374 511 367 511 q 362 511 361 515 l 358 514 q 358 508 351 508 q 347 508 345 511 q 337 509 332 507 z m 600 130 q 577 140 577 143 l 579 144 q 592 137 601 133 q 606 130 631 124 q 646 120 667 120 q 696 120 720 134 q 744 147 753 169 q 751 171 751 174 q 751 178 756 180 l 757 189 q 750 189 750 197 q 750 202 755 204 q 754 210 753 212 q 747 212 747 218 l 748 222 q 738 242 720 253 q 703 265 691 265 l 684 267 l 690 269 q 703 269 722 257 q 741 245 754 224 q 760 224 760 218 q 760 214 757 213 l 759 205 q 767 205 767 197 q 767 190 761 188 q 761 183 760 180 q 764 179 764 174 q 764 168 757 168 q 747 145 722 131 q 696 116 667 116 q 652 116 629 120 q 619 122 600 130 z m 86 222 q 108 256 146 256 q 162 256 174 252 q 185 248 184 244 l 181 245 q 164 253 147 253 q 108 253 90 221 q 92 219 92 216 q 92 210 85 210 q 83 206 83 203 q 88 201 88 195 q 88 189 81 187 l 81 180 q 87 180 87 174 q 87 170 83 168 q 90 148 110 135 q 129 123 145 123 l 153 122 l 145 120 q 128 120 107 133 q 86 146 79 168 q 74 168 74 174 q 74 178 77 179 l 77 187 q 71 188 71 195 q 71 203 79 203 l 81 211 q 79 213 79 216 q 79 222 86 222 z m 585 95 l 576 95 q 555 95 532 85 q 544 75 562 64 q 566 62 574 58 q 615 41 656 41 q 677 41 696 44 q 665 83 609 92 q 587 95 585 95 z m 419 -106 q 445 -90 445 -67 q 445 -59 441 -54 q 438 -49 432 -49 q 425 -49 419 -57 q 414 -64 414 -76 q 414 -91 419 -106 z"},"(":{"x_min":0,"x_max":185,"ha":185,"o":"m 166 -172 l 113 -230 q 109 -234 106 -234 l 105 -232 q 105 -227 110 -221 q 116 -216 117 -211 q 76 -151 50 -62 q 24 28 24 128 q 24 203 58 280 q 91 357 153 427 q 157 433 160 433 q 164 433 164 429 l 158 421 q 60 310 60 131 q 60 51 78 -20 q 95 -92 118 -134 q 141 -177 149 -177 q 163 -165 167 -165 l 169 -167 q 169 -169 166 -172 z"},"C":{"x_min":0,"x_max":706,"ha":706,"o":"m 224 136 q 245 83 286 53 q 327 23 377 23 q 407 23 443 35 l 447 37 q 508 62 531 124 l 534 129 q 537 129 537 126 q 537 113 516 80 q 496 47 456 23 l 451 20 q 405 -3 354 -3 q 290 -3 239 31 q 188 65 167 126 l 165 132 q 160 155 157 174 l 156 180 l 155 208 q 155 230 158 250 l 159 257 q 172 318 206 360 q 240 402 274 422 q 309 442 314 442 q 317 442 317 438 l 311 434 q 207 383 207 226 l 208 214 l 208 206 l 210 195 l 211 189 q 214 166 222 142 z m 167 126 q 50 89 50 -15 q 50 -72 96 -107 q 142 -142 210 -142 q 253 -142 277 -131 q 276 -127 276 -118 q 276 -93 290 -73 q 304 -52 321 -52 q 330 -52 335 -58 q 341 -64 341 -75 q 341 -90 326 -106 q 312 -122 289 -132 q 300 -162 330 -179 q 361 -196 405 -196 q 473 -196 522 -155 q 572 -115 572 -64 q 572 -55 571 -50 q 567 -51 557 -51 q 541 -51 529 -44 q 517 -37 517 -26 q 517 -18 522 -13 q 527 -8 535 -8 q 567 -8 576 -42 q 633 -35 667 3 q 700 42 700 100 q 700 127 687 152 q 674 178 652 195 q 621 181 590 181 q 538 181 493 206 q 477 193 464 186 l 464 76 q 464 68 461 68 l 459 76 l 455 182 l 434 171 l 432 173 l 455 186 l 454 218 q 454 226 459 226 q 464 226 464 218 l 464 190 l 489 208 q 459 229 459 236 l 460 238 q 482 220 494 212 q 593 288 593 397 q 593 415 587 443 l 576 442 q 539 442 511 417 q 511 392 508 384 q 505 376 497 376 q 491 376 491 387 q 491 405 506 422 q 504 459 472 492 q 440 525 394 541 l 387 539 q 381 539 379 545 l 375 546 q 371 542 368 542 l 361 547 l 355 547 q 353 537 343 537 q 334 537 332 547 l 329 547 q 326 542 322 542 q 317 542 314 545 l 311 544 q 309 537 303 537 q 300 537 296 539 q 259 525 235 495 q 211 466 209 428 q 227 415 227 402 q 227 392 220 392 q 213 392 208 400 q 204 408 204 418 l 204 424 q 179 438 147 438 q 128 438 115 434 q 112 416 112 394 q 112 315 159 257 q 177 234 208 214 q 217 208 227 203 q 253 221 271 252 l 275 257 l 277 254 q 277 251 264 233 q 251 215 233 201 q 251 193 291 178 q 287 178 265 184 q 244 190 227 197 q 219 192 211 189 q 189 180 157 174 q 147 172 139 172 q 82 172 41 207 q 1 243 1 299 q 1 346 31 385 q 61 423 109 438 q 127 526 196 580 q 264 634 354 634 q 440 634 507 582 q 573 531 592 448 q 654 443 689 404 q 725 365 725 310 q 725 277 708 246 q 690 216 661 199 q 682 183 694 155 q 707 127 707 100 q 707 41 671 0 q 636 -42 577 -50 q 578 -54 578 -64 q 578 -116 526 -160 q 473 -203 398 -203 q 357 -203 323 -185 q 289 -167 278 -136 q 252 -148 201 -148 q 131 -148 84 -111 q 36 -73 36 -15 q 36 36 70 75 q 104 114 165 132 q 180 136 222 142 q 236 144 242 144 q 292 144 352 116 q 359 113 371 106 q 422 76 447 37 l 456 23 q 469 -5 469 -32 q 469 -69 452 -92 q 435 -115 407 -115 q 384 -115 384 -104 q 384 -101 386 -98 q 389 -95 392 -95 q 395 -95 400 -102 q 406 -108 411 -108 q 435 -108 449 -88 q 463 -67 463 -32 q 463 -3 451 20 q 445 31 443 35 q 417 74 367 102 q 361 105 350 111 q 294 138 242 138 q 240 138 233 137 q 227 136 224 136 q 199 136 167 126 z m 158 250 q 105 310 105 395 q 105 410 107 432 q 65 417 40 379 q 15 341 15 298 q 15 244 53 211 q 91 178 140 178 q 147 178 156 180 q 200 190 210 195 l 220 199 q 214 203 208 206 q 188 216 158 250 z m 654 203 q 711 237 711 307 q 711 355 679 395 q 647 435 594 442 q 599 418 599 396 q 599 285 498 209 q 541 187 588 187 q 619 187 645 199 q 615 218 584 218 l 563 217 l 556 219 q 556 225 582 225 q 619 225 654 203 z m 221 407 q 221 412 209 422 q 209 414 211 407 q 214 400 217 400 q 221 400 221 407 z m 506 414 q 497 401 497 393 l 499 384 q 506 384 506 414 z m 570 -42 q 560 -13 537 -13 q 524 -13 524 -24 q 524 -31 533 -37 q 543 -43 554 -43 q 565 -43 570 -42 z m 288 -127 q 308 -118 321 -104 q 335 -89 335 -77 q 335 -58 318 -58 q 305 -58 295 -75 q 286 -92 286 -115 q 286 -121 288 -127 z m 585 447 q 564 525 501 572 q 438 618 354 618 q 263 618 199 570 q 136 521 117 439 q 129 443 146 443 q 177 443 204 429 q 210 510 295 544 q 298 551 303 551 q 307 551 309 549 l 313 550 q 315 557 322 557 l 328 553 l 332 554 q 334 565 343 565 q 351 565 355 553 l 361 553 q 365 557 368 557 q 375 557 376 551 l 380 550 q 384 552 387 552 q 391 552 395 546 q 440 531 473 498 q 506 465 511 425 q 524 435 544 442 q 563 448 577 448 z m 415 452 q 415 440 421 428 q 427 416 453 395 q 479 374 487 359 q 494 344 494 329 q 494 299 472 275 q 450 251 438 251 l 435 253 l 439 257 q 458 271 458 295 q 458 306 453 317 q 447 328 423 349 q 398 371 391 387 q 384 403 384 419 q 384 445 404 467 q 424 489 432 489 l 437 487 q 415 465 415 452 z m 155 -64 q 172 -75 190 -75 q 215 -75 233 -56 l 236 -54 l 238 -57 q 238 -60 223 -70 q 209 -80 191 -80 q 171 -80 152 -69 l 148 -70 q 142 -70 142 -62 q 136 -56 133 -53 q 125 -53 125 -46 q 125 -43 127 -41 q 124 -35 124 -30 q 119 -30 119 -24 q 119 -20 123 -18 q 123 17 145 35 q 167 53 180 53 q 183 53 183 51 l 178 48 q 129 29 129 -18 q 132 -20 132 -24 l 130 -28 q 130 -34 133 -38 q 141 -38 141 -46 q 141 -48 139 -50 q 144 -56 149 -58 q 155 -58 155 -64 z m 367 102 q 351 87 336 77 q 321 68 318 68 l 316 70 q 343 95 350 111 q 351 113 352 116 q 358 136 358 145 q 358 159 352 176 q 346 192 322 225 q 298 258 292 277 q 285 296 285 313 q 285 355 315 388 q 345 421 354 421 l 359 419 l 352 413 q 318 387 318 357 q 318 341 324 323 q 331 305 359 271 q 387 238 395 215 q 403 193 403 172 q 403 140 371 106 z"},"W":{"x_min":0,"x_max":885,"ha":885,"o":"m 680 372 q 695 367 707 367 q 745 367 764 401 l 767 405 l 769 403 q 769 387 742 361 q 715 336 659 334 l 654 334 q 618 334 573 359 q 528 383 513 388 q 497 392 484 392 q 437 392 402 352 q 399 349 399 352 q 399 364 436 395 q 474 425 521 425 q 540 425 564 419 q 588 413 625 396 q 663 378 675 374 z m 659 334 q 638 305 615 290 q 592 274 588 274 l 586 276 l 589 278 q 629 301 654 334 q 665 349 675 374 q 686 402 686 438 q 678 437 660 432 l 659 434 q 675 440 686 442 q 685 478 664 516 q 606 514 580 487 q 588 469 588 462 q 588 442 578 442 q 573 442 569 448 q 565 453 565 460 q 565 474 575 487 q 542 541 475 556 q 474 553 469 553 q 463 553 462 558 q 459 554 455 554 q 449 554 447 560 q 447 548 443 548 q 435 548 434 560 q 434 548 429 548 q 425 548 424 550 q 423 553 423 560 q 421 554 415 554 q 411 554 408 557 l 406 557 q 404 552 399 552 q 396 552 394 554 q 329 536 312 489 q 337 474 337 458 q 337 444 326 444 q 318 444 312 453 q 305 461 305 476 q 305 483 306 487 q 269 506 220 506 q 209 478 209 446 q 209 434 210 428 q 216 395 220 383 q 238 332 275 301 q 312 270 362 266 q 389 264 409 269 q 449 278 470 302 q 491 325 491 341 l 493 348 l 495 341 q 495 324 474 300 q 452 275 410 265 q 388 260 364 261 q 312 264 272 297 q 233 330 215 383 q 209 400 205 427 q 204 434 204 447 q 204 476 214 506 q 133 502 75 446 q 18 389 18 314 q 18 257 54 222 q 91 187 143 187 q 212 187 258 234 l 261 237 l 263 235 q 263 228 228 205 q 193 181 140 181 q 82 181 43 218 q 4 254 4 317 q 4 391 68 449 q 132 507 216 511 q 243 573 307 610 q 372 647 445 647 q 519 647 577 614 q 635 581 668 521 l 678 521 q 764 521 829 466 q 894 411 894 334 q 894 274 849 237 q 804 199 736 196 q 699 194 662 204 q 605 220 580 249 q 555 277 555 286 l 556 288 l 558 285 q 589 229 660 209 q 697 199 733 200 q 795 203 839 240 q 882 278 882 335 q 882 413 821 465 q 760 517 678 517 l 670 517 q 690 478 692 442 q 695 443 700 443 q 738 443 768 422 q 799 401 809 365 q 817 365 817 357 q 817 353 812 351 l 815 345 q 823 345 823 337 q 823 330 813 330 l 811 323 q 815 322 815 317 q 815 310 806 310 q 795 289 772 277 q 748 264 720 264 q 710 264 689 268 l 664 277 l 649 284 l 651 286 q 662 281 666 280 q 686 272 688 272 q 707 268 719 268 q 746 268 769 280 q 792 291 802 311 q 799 314 799 317 q 799 325 807 325 q 808 327 808 332 q 806 330 803 330 q 795 330 795 337 q 795 345 803 345 l 808 343 q 808 348 807 350 q 801 353 801 357 q 801 361 804 363 q 794 398 765 418 q 736 439 700 439 l 692 438 q 692 405 680 372 q 674 354 659 334 z m 689 268 q 692 253 710 231 q 728 209 733 200 l 736 196 q 740 189 743 175 l 743 169 q 744 166 744 160 q 744 131 723 102 l 719 97 q 699 70 664 48 q 579 -11 579 -31 q 579 -34 577 -34 l 575 -30 q 575 -26 579 -20 q 583 -14 583 -11 q 583 -8 582 -6 q 582 -3 578 2 q 575 6 569 12 q 562 19 550 26 q 538 34 521 42 l 486 57 q 410 -13 410 -33 q 410 -36 408 -36 l 406 -32 q 406 -28 409 -22 q 412 -16 412 -13 q 412 0 393 18 q 374 35 330 53 q 293 17 252 -2 l 243 -5 q 215 -16 190 -16 q 159 -16 135 2 q 112 20 112 41 q 112 59 122 70 q 132 82 149 82 q 163 82 171 73 q 180 63 180 48 q 180 35 173 26 q 165 18 136 14 q 136 7 151 -2 q 166 -11 191 -11 q 212 -11 242 0 q 244 1 251 4 q 292 23 322 57 q 279 81 272 125 l 271 131 l 271 142 q 271 175 285 195 q 298 215 305 215 l 307 214 l 305 211 q 288 196 288 177 q 288 166 291 155 l 293 151 q 306 121 350 99 q 371 143 373 191 l 373 207 q 373 234 364 261 l 362 266 q 345 316 308 348 q 271 379 220 383 l 209 383 q 162 383 127 354 q 93 326 93 289 q 93 265 109 249 q 125 232 142 232 q 164 232 188 243 l 190 241 q 190 238 176 233 q 162 227 141 227 q 111 227 91 250 q 70 272 70 307 q 70 347 106 385 q 142 422 205 427 l 219 428 q 296 428 347 385 q 397 343 409 269 l 410 265 q 412 246 412 236 q 412 216 409 198 l 408 194 q 397 140 363 93 l 370 90 q 420 69 448 40 l 454 35 l 481 59 q 462 72 450 92 q 439 113 439 133 q 439 154 447 167 q 454 179 458 179 q 461 179 460 174 q 454 167 454 152 q 454 134 472 117 q 490 101 516 92 q 544 117 544 150 q 544 161 540 172 q 535 184 517 208 q 498 231 493 246 q 488 261 488 274 q 488 308 514 335 q 541 363 547 363 l 550 361 l 547 358 q 525 342 525 313 q 525 301 530 289 q 534 276 553 252 q 572 229 577 214 q 582 199 582 185 q 582 144 523 90 q 597 69 622 33 l 625 29 q 629 29 661 52 q 692 75 698 95 l 699 100 q 701 108 701 115 q 701 144 685 166 l 681 171 q 667 190 662 204 l 660 209 q 656 220 656 239 q 656 259 664 277 l 666 280 q 676 300 691 312 q 705 325 710 325 l 712 323 l 709 320 q 688 307 688 281 l 688 272 z m 698 95 q 690 94 678 89 l 676 91 q 684 97 699 100 q 709 102 723 102 q 760 102 786 79 q 813 56 813 18 q 816 18 816 13 q 816 9 812 7 l 810 2 q 812 0 812 -3 q 812 -9 806 -9 l 802 -15 q 804 -19 804 -21 q 804 -27 799 -32 q 793 -37 782 -50 l 781 -47 q 781 -45 785 -39 q 790 -34 790 -30 l 789 -27 q 784 -32 777 -37 q 777 -43 770 -43 q 767 -43 765 -41 q 743 -51 714 -51 q 691 -51 672 -39 q 652 -26 652 -10 q 652 0 662 0 q 673 0 673 -8 q 673 -17 666 -17 l 657 -16 q 657 -26 675 -36 q 693 -46 716 -46 q 741 -46 764 -37 q 764 -31 771 -31 l 774 -32 l 787 -23 q 785 -20 781 -20 q 778 -20 771 -23 q 765 -27 762 -27 q 759 -27 759 -24 q 771 -21 775 -16 q 779 -11 786 -9 q 789 -7 791 -7 q 795 -7 798 -11 l 801 -8 q 799 -6 799 -3 q 799 3 806 3 l 807 7 q 803 8 803 13 q 803 17 808 19 q 808 55 783 76 q 759 97 722 97 q 708 97 698 95 z m 685 166 q 620 153 583 101 l 580 96 l 579 98 q 579 104 604 131 q 630 158 681 171 q 710 178 743 175 q 812 168 857 123 q 902 78 902 12 q 902 -47 846 -90 q 790 -132 710 -132 q 648 -132 599 -100 q 549 -67 536 -32 l 538 -30 q 553 -64 599 -94 q 645 -123 703 -123 q 784 -123 838 -81 q 893 -39 893 20 q 893 76 850 119 q 807 162 743 169 q 715 172 685 166 z m 329 460 q 329 471 311 484 q 310 481 310 475 q 310 464 314 457 q 318 450 323 450 q 329 450 329 460 z m 584 461 q 584 469 577 483 q 570 471 570 461 q 570 451 577 451 q 584 451 584 461 z m 373 191 q 326 183 293 151 q 282 140 272 125 q 263 111 257 95 q 274 83 284 72 q 294 60 294 57 l 292 56 l 290 59 q 275 79 256 92 q 247 68 247 41 q 247 20 251 4 l 252 -2 q 265 -49 298 -79 q 313 -70 333 -56 l 335 -57 q 317 -73 301 -82 q 340 -115 395 -119 q 407 -78 437 -53 q 467 -28 502 -28 q 517 -28 527 -36 q 536 -44 536 -57 q 536 -85 500 -107 q 464 -129 416 -129 l 400 -129 q 399 -132 399 -139 q 399 -200 433 -233 q 466 -265 531 -265 q 604 -265 650 -212 l 653 -209 l 655 -211 q 655 -214 638 -230 q 622 -246 593 -259 q 563 -271 529 -271 q 464 -271 428 -240 q 391 -208 391 -153 q 391 -144 393 -128 q 333 -122 292 -87 q 240 -113 190 -113 q 123 -113 82 -83 q 42 -53 42 1 q 42 51 81 86 q 120 121 170 121 q 218 121 253 98 q 261 116 271 131 q 282 146 291 155 q 326 187 373 195 q 396 199 409 198 q 465 195 494 171 q 522 147 522 140 l 520 138 l 518 141 q 484 193 408 194 q 391 194 373 191 z m 242 0 q 240 18 240 27 q 240 63 252 95 q 217 117 171 117 q 123 117 89 84 q 55 52 55 4 q 55 -47 93 -77 q 131 -107 190 -107 q 243 -107 289 -84 q 253 -49 243 -5 z m 401 -120 l 415 -120 q 458 -120 495 -100 q 532 -80 532 -57 q 532 -46 524 -39 q 515 -32 501 -32 q 467 -32 438 -57 q 410 -82 401 -120 z m 662 520 q 630 573 575 602 q 519 631 447 631 q 373 631 310 599 q 248 567 222 511 q 275 510 307 492 q 328 539 393 559 q 393 565 400 565 q 404 565 405 562 l 407 562 q 409 569 415 569 q 420 569 423 564 q 423 574 428 574 q 434 574 435 565 q 436 574 442 574 q 447 574 448 565 q 452 569 455 569 q 460 569 462 564 l 465 564 q 467 566 470 566 q 474 566 476 562 q 544 547 578 490 q 603 516 662 520 z m 439 480 q 461 480 479 471 q 498 463 498 459 l 496 458 l 494 459 q 472 475 439 475 q 411 475 385 459 l 381 457 l 379 458 q 379 462 398 471 q 418 480 439 480 z"},"A":{"x_min":0,"x_max":928,"ha":928,"o":"m 847 267 q 924 217 924 143 q 924 99 899 62 q 875 25 834 11 q 838 -2 838 -21 q 838 -96 791 -141 q 745 -187 669 -187 q 632 -187 605 -172 q 585 -210 546 -234 q 506 -257 464 -257 q 395 -257 351 -224 q 307 -190 294 -132 q 265 -136 245 -136 q 168 -136 121 -90 q 74 -44 74 23 q 74 89 114 130 q 65 146 37 188 q 8 229 8 280 q 8 347 66 411 q 125 475 210 492 q 244 556 321 591 q 398 627 477 627 q 580 627 667 584 q 753 542 803 470 q 853 398 853 323 q 853 292 847 267 z m 409 484 q 409 490 401 495 q 398 491 398 486 q 398 478 404 478 q 409 478 409 484 z m 535 413 q 510 411 496 393 q 482 375 482 352 q 482 318 504 293 q 514 306 518 327 l 520 323 q 520 309 507 290 q 517 277 535 269 l 541 266 q 566 255 597 252 q 625 249 634 250 q 671 253 693 277 q 714 300 714 336 q 714 347 712 364 q 707 407 682 444 q 652 488 579 514 l 573 516 l 566 515 q 560 515 558 521 l 555 522 q 551 520 549 520 q 545 521 542 524 l 538 525 q 535 515 526 515 q 518 515 515 525 l 512 526 q 510 523 504 523 q 500 523 494 528 q 493 523 486 523 q 483 523 478 528 l 466 524 q 415 512 404 498 q 413 492 413 484 q 413 471 404 471 q 394 471 394 488 q 394 493 397 497 q 385 501 377 501 q 348 501 323 483 q 297 466 293 439 q 289 412 300 383 q 313 349 349 336 l 352 335 l 349 333 q 339 333 322 345 q 305 358 295 384 q 285 410 289 439 q 293 469 319 487 q 344 505 374 505 q 390 505 400 500 q 412 513 437 522 q 461 531 474 531 l 477 531 q 483 537 487 537 l 492 533 l 496 533 q 497 538 506 538 q 508 538 511 533 l 515 533 q 518 543 526 543 q 535 543 539 532 l 542 531 q 546 535 549 535 q 555 535 558 528 l 562 526 l 566 528 q 570 528 575 521 q 650 495 685 450 q 708 415 718 361 q 719 355 719 343 q 719 301 696 275 q 673 248 634 246 q 616 245 596 248 q 562 253 541 262 l 535 265 q 518 273 504 286 q 485 268 463 258 q 449 252 422 248 q 401 245 376 245 q 314 245 263 279 q 211 313 196 371 q 191 389 191 414 q 191 454 208 486 q 130 470 76 410 q 21 350 21 283 q 21 233 47 192 q 74 151 120 136 q 153 164 192 164 q 229 164 229 147 q 229 136 210 129 q 192 123 161 123 q 140 123 120 129 q 84 92 84 36 q 84 -45 135 -86 q 186 -128 251 -128 q 274 -128 292 -125 l 291 -110 l 292 -103 l 296 -124 q 358 -112 390 -78 q 422 -44 422 -23 q 422 -13 425 -13 l 427 -19 q 427 -46 393 -82 q 359 -117 297 -131 q 309 -186 351 -217 q 394 -248 463 -248 q 503 -248 542 -226 q 582 -205 601 -170 q 560 -146 560 -103 q 560 -73 580 -73 q 595 -73 606 -89 q 617 -105 617 -124 q 617 -143 609 -164 q 633 -176 671 -176 q 739 -176 786 -130 q 832 -84 832 -17 q 832 -3 829 10 q 816 6 800 6 q 786 6 767 11 q 748 17 748 19 l 751 21 l 757 19 q 775 11 801 11 q 816 11 828 15 q 815 58 780 83 q 744 108 699 108 q 673 108 647 101 q 623 95 601 78 q 565 51 547 -2 l 545 -8 l 542 -6 q 542 4 556 32 q 569 60 599 83 q 620 99 646 106 q 672 113 700 113 q 747 113 783 87 q 820 61 833 16 q 870 29 890 62 q 910 96 910 146 q 910 214 846 261 q 812 127 641 123 q 614 123 589 128 q 567 133 541 144 l 535 147 q 513 160 499 172 q 486 184 486 187 l 488 188 q 505 167 535 151 l 541 148 q 567 137 589 132 q 611 127 640 128 q 804 134 840 265 q 820 278 798 284 q 788 287 779 287 l 771 287 q 756 287 746 282 q 736 276 736 267 q 736 253 752 253 q 760 253 760 250 q 760 248 752 248 q 730 248 730 264 q 730 276 741 284 q 751 292 769 292 l 779 292 q 786 292 800 288 q 822 282 841 271 q 846 297 846 323 q 846 399 798 467 q 750 534 667 573 q 584 613 488 613 q 405 613 330 581 q 256 549 221 493 q 237 495 247 495 q 258 495 272 493 q 285 490 285 488 q 285 485 281 485 l 277 486 q 267 490 241 490 q 233 490 218 488 q 199 455 199 419 q 199 396 204 375 q 218 315 267 282 q 316 249 381 249 q 403 249 421 252 q 440 255 463 263 q 488 272 501 289 q 475 318 475 360 q 475 386 491 404 q 507 421 535 423 l 541 423 q 572 423 597 404 q 622 385 622 359 q 622 342 613 331 q 603 320 587 320 q 579 320 572 324 q 565 328 557 345 q 549 361 541 361 l 535 346 l 532 345 q 522 345 522 354 q 522 365 535 366 q 538 367 541 366 q 552 365 560 348 q 567 332 573 328 q 580 324 587 324 q 616 324 616 358 q 616 379 593 396 q 570 413 541 413 z m 463 258 q 465 244 465 235 q 465 164 433 109 q 493 85 493 30 q 493 3 479 -14 q 465 -32 460 -32 l 459 -30 l 461 -27 q 468 -19 468 1 q 468 18 457 32 q 446 46 401 65 q 367 30 323 11 q 278 -8 234 -8 q 196 -8 175 10 q 155 29 155 54 q 155 73 166 86 q 177 98 196 98 q 234 98 234 60 q 234 47 225 40 q 217 33 203 33 q 194 33 185 39 q 176 45 174 52 q 174 32 178 21 q 183 11 198 4 q 213 -3 235 -3 q 274 -3 317 17 q 360 36 390 71 q 339 98 339 147 q 339 174 357 196 q 375 218 381 218 l 386 216 l 382 212 q 363 199 363 174 q 363 154 374 141 q 385 127 417 115 q 429 148 429 190 q 429 222 422 248 l 421 252 q 391 358 300 383 l 295 384 q 274 388 261 388 q 230 388 204 375 l 196 371 q 171 355 158 330 q 145 305 145 277 q 145 240 168 217 q 191 194 229 194 q 269 194 294 213 l 297 215 l 300 213 q 300 209 279 198 q 257 188 228 188 q 183 188 151 222 q 119 255 119 304 q 119 335 138 365 q 157 395 191 414 l 199 419 q 236 439 281 439 l 293 439 q 361 434 407 385 q 454 337 463 263 z m 712 364 q 677 385 677 419 q 677 432 682 444 l 685 450 q 695 466 710 475 q 726 485 737 485 l 741 483 l 734 479 q 709 471 709 450 q 709 439 716 429 q 723 418 755 399 q 788 379 798 361 q 808 343 808 324 q 808 304 800 288 l 798 284 q 789 268 776 258 q 762 248 752 248 q 744 248 744 250 q 744 253 752 253 q 760 253 769 262 q 777 272 779 287 l 779 292 q 779 309 770 323 q 761 338 726 356 l 718 361 z m 541 226 l 591 226 q 592 234 596 248 l 597 252 q 615 312 645 341 q 675 370 684 370 l 686 369 l 680 363 q 640 330 634 250 l 634 246 q 633 238 633 218 q 633 163 640 128 l 641 123 q 644 111 646 106 l 647 101 q 667 44 712 44 q 735 44 752 66 l 758 72 l 759 70 q 759 54 697 9 q 676 -6 655 -38 l 653 -35 q 653 -30 675 0 l 669 3 q 620 22 601 78 l 599 83 q 592 99 589 128 l 589 132 q 587 156 587 173 l 587 189 l 541 189 l 541 30 q 541 22 538 22 q 535 22 535 30 l 535 460 q 535 467 538 467 q 541 467 541 460 z m 126 134 q 146 128 168 128 q 188 128 205 133 q 222 139 222 145 q 222 151 214 155 q 207 159 195 159 q 154 159 126 134 z m 605 -162 q 612 -145 612 -131 q 612 -112 602 -96 q 593 -80 580 -80 q 573 -80 569 -87 q 565 -95 565 -103 q 565 -142 605 -162 z"},"f":{"x_min":0,"x_max":130,"ha":130,"o":"m 46 236 l 46 295 q 46 342 75 374 q 104 406 149 406 q 172 406 191 391 q 210 376 210 359 q 210 345 202 337 q 194 329 182 329 q 171 329 163 336 q 156 343 156 354 q 156 379 185 383 l 189 384 q 189 388 177 394 q 164 401 145 401 q 117 401 102 381 q 86 361 86 325 l 86 236 l 122 236 q 128 236 128 229 q 128 223 122 223 l 86 223 l 86 94 q 86 55 102 42 l 106 36 q 106 33 94 33 q 86 33 69 14 q 53 -5 53 -14 l 53 -107 l 53 -125 q 53 -143 47 -143 q 41 -143 41 -134 q 41 -130 43 -114 q 46 -98 46 -88 l 46 223 l 25 223 q 19 223 19 229 q 19 236 25 236 z"},"Q":{"x_min":0,"x_max":800,"ha":800,"o":"m 646 -63 q 629 -20 579 0 l 575 2 l 576 4 q 584 4 609 -12 q 635 -28 649 -62 q 650 -65 653 -73 q 658 -90 658 -109 q 658 -165 601 -206 q 543 -247 480 -247 q 412 -247 363 -217 q 313 -188 311 -134 q 292 -136 282 -136 q 223 -136 179 -99 q 135 -62 135 6 q 135 25 139 40 q 75 52 40 90 q 6 127 6 183 q 6 236 42 279 q 78 322 138 340 q 136 352 136 361 q 136 441 198 507 q 259 572 367 591 l 379 593 q 405 596 434 596 q 461 596 485 593 q 487 603 496 613 q 479 621 454 621 q 446 621 446 624 q 446 626 454 626 q 478 626 499 617 q 536 661 593 661 q 631 661 652 646 q 673 630 672 620 l 668 624 q 646 656 596 656 q 541 656 503 615 q 527 602 537 584 q 631 558 685 500 q 739 442 739 372 q 739 317 709 277 q 750 257 771 222 q 793 188 793 144 q 793 88 759 53 q 725 17 681 17 q 616 17 576 49 q 569 55 563 61 q 546 80 546 85 l 547 87 q 557 72 565 63 q 569 58 579 51 q 617 23 673 23 q 722 23 751 59 q 780 94 780 148 q 780 183 761 218 q 742 252 706 273 q 691 254 671 245 q 643 233 615 236 q 571 240 571 264 q 571 280 597 291 q 621 301 664 292 q 688 287 705 279 q 730 315 730 360 q 730 421 683 481 q 637 540 544 565 l 544 558 q 544 539 536 527 q 527 516 514 516 q 501 516 490 530 q 479 544 479 565 q 479 572 480 575 q 453 577 435 577 q 394 577 360 570 l 348 568 q 252 546 197 489 q 141 432 141 360 q 141 347 142 341 q 169 349 194 349 q 226 349 254 337 q 270 330 284 320 q 322 293 322 258 q 322 237 307 221 q 292 205 270 205 l 262 205 q 231 205 201 225 q 148 260 138 336 q 84 318 54 279 q 23 240 23 189 q 23 135 53 97 q 84 60 141 47 q 159 99 212 129 q 242 146 269 152 q 294 157 312 157 q 346 157 368 140 l 367 138 l 364 139 q 340 152 310 152 q 293 152 270 147 q 241 141 214 124 q 167 95 152 45 q 172 41 198 41 q 232 41 267 53 q 297 63 311 71 q 359 95 388 123 q 417 151 417 172 l 418 175 l 420 172 q 420 152 391 122 q 362 93 315 67 q 291 54 273 48 q 231 34 202 34 q 171 34 150 38 q 147 23 147 8 q 147 -57 190 -94 q 234 -132 287 -132 q 295 -132 311 -130 q 311 -97 330 -70 q 348 -43 370 -43 q 395 -43 395 -72 q 395 -116 324 -132 q 333 -180 379 -206 q 425 -232 488 -232 q 549 -232 601 -198 q 654 -163 654 -108 q 654 -88 650 -76 z m 650 -76 q 616 -104 581 -104 q 553 -104 528 -89 q 503 -73 485 -39 q 467 -4 464 1 q 445 -1 436 -1 q 339 -1 273 48 l 267 53 q 232 82 214 124 l 212 129 q 200 162 200 202 l 201 225 l 202 231 q 210 287 251 333 l 254 337 q 287 371 323 389 q 358 407 364 407 l 369 406 l 362 402 q 310 374 284 320 l 282 315 q 262 268 262 210 l 262 201 q 262 176 269 152 l 270 147 q 283 104 311 71 l 315 67 q 366 10 440 10 q 453 10 458 11 q 434 50 402 50 q 390 50 372 44 l 370 47 q 370 51 389 58 q 409 65 435 65 q 484 65 511 25 q 540 38 563 61 l 565 63 q 618 120 618 195 q 618 216 615 236 l 614 240 q 610 264 599 287 l 597 291 q 565 356 479 378 q 392 400 362 430 q 331 459 331 515 q 331 542 348 568 q 357 582 367 591 q 406 626 454 626 q 462 626 462 624 q 462 621 454 621 q 413 621 379 593 q 367 583 360 570 q 350 552 350 534 q 350 452 489 431 q 631 409 664 292 l 665 287 q 669 269 671 249 l 671 237 q 671 124 579 51 l 576 49 q 551 30 517 15 l 528 -5 q 551 -48 572 -59 q 593 -70 616 -70 q 632 -70 646 -63 l 649 -62 q 659 -57 673 -45 l 675 -47 q 675 -53 653 -73 z m 671 249 q 689 257 702 275 q 685 283 665 287 q 622 296 599 287 q 576 278 576 265 q 576 245 614 240 q 643 236 671 249 z m 323 -128 q 389 -110 389 -68 q 389 -47 371 -47 q 354 -47 338 -66 q 322 -85 322 -111 z m 532 585 q 521 602 500 611 q 493 602 488 593 q 506 591 532 585 z m 483 575 l 483 567 q 483 547 492 535 q 502 523 513 523 q 540 523 540 558 q 540 563 539 566 q 513 572 483 575 z m 251 333 q 223 344 195 344 q 166 344 142 337 q 152 267 202 231 q 232 210 262 210 l 271 210 q 292 210 304 225 q 317 239 317 260 q 317 290 282 315 q 265 327 251 333 z m 416 317 q 416 305 422 292 q 428 280 456 256 q 483 232 491 213 q 499 194 499 174 q 499 146 480 121 q 461 97 436 81 q 411 66 408 66 q 406 66 406 69 l 410 71 q 458 97 458 138 q 458 150 453 163 q 447 176 423 200 q 398 224 391 242 q 384 261 384 279 q 384 326 412 348 q 440 371 472 371 l 475 369 l 470 368 q 416 355 416 317 z"},"w":{"x_min":0,"x_max":316,"ha":316,"o":"m 181 179 q 199 206 238 236 q 251 247 261 270 l 263 268 q 263 260 249 237 q 249 233 261 228 q 272 222 279 222 q 284 222 300 230 l 303 228 q 303 223 283 205 q 264 186 248 186 q 234 186 214 206 q 211 206 201 195 q 190 185 181 169 l 181 67 q 181 47 193 35 q 204 23 219 23 q 231 23 243 36 q 256 49 256 70 q 256 87 245 105 q 235 123 235 135 q 235 159 254 175 q 274 190 280 190 l 282 188 l 280 185 q 271 178 271 165 q 271 157 282 137 q 293 118 293 103 q 293 80 269 54 q 245 27 215 10 q 185 -8 171 -29 l 168 -33 q 165 -33 165 -31 q 165 -28 173 -18 q 181 -9 181 -6 l 175 0 q 144 20 144 56 l 144 166 q 144 180 132 188 q 119 197 111 197 q 106 197 95 182 q 84 167 79 152 l 79 61 q 79 43 93 38 q 107 33 107 31 l 104 28 q 89 22 72 5 q 54 -12 53 -31 l 51 -36 l 48 -34 q 48 -30 51 -19 q 54 -8 54 -6 q 54 0 42 12 q 30 24 24 24 l 12 23 l 8 25 l 15 32 q 42 50 42 79 l 42 165 q 42 177 34 183 q 25 189 17 189 q 13 189 -1 179 l -3 182 l 3 189 q 34 215 47 246 l 52 253 q 54 253 54 250 q 54 248 47 231 l 51 229 q 79 217 79 178 l 79 166 q 88 188 115 212 q 143 237 156 262 q 159 262 159 260 q 159 255 145 232 l 149 229 q 181 214 181 185 z"},"-":{"x_min":0,"x_max":208,"ha":208,"o":"m 202 156 l 204 152 q 151 108 126 84 q 123 84 123 87 l 138 105 q 138 109 31 109 q 27 109 4 94 l 2 98 l 12 106 q 48 131 76 159 q 79 159 79 156 l 66 140 q 149 136 171 136 q 174 136 202 156 z"},"E":{"x_min":0,"x_max":695,"ha":695,"o":"m 121 101 q 152 113 192 113 q 218 113 247 105 q 276 97 324 68 q 372 39 396 32 q 421 25 443 25 q 508 25 551 83 l 556 86 q 556 82 537 57 q 517 33 479 14 q 441 -5 391 -5 q 366 -5 337 3 q 308 10 259 38 q 209 65 187 72 q 164 78 144 78 q 129 78 123 77 l 119 76 q 68 69 38 36 q 9 3 9 -37 q 9 -44 6 -44 q 4 -44 4 -36 q 4 4 34 43 q 64 81 117 100 z m 117 100 q 116 107 116 123 q 116 150 126 182 q 80 230 80 295 q 80 349 124 387 q 106 414 106 446 q 106 491 139 521 q 171 552 208 552 q 223 552 236 547 q 305 623 401 623 q 504 623 567 535 q 590 554 621 554 q 656 554 680 527 q 704 500 704 460 q 704 423 687 389 q 705 372 716 346 q 726 321 726 295 q 726 222 660 153 q 685 114 685 62 q 685 -12 606 -75 q 527 -138 417 -138 q 387 -138 347 -133 q 328 -150 304 -160 q 312 -210 351 -239 q 390 -268 448 -268 q 516 -268 564 -231 q 613 -194 613 -152 l 614 -140 q 617 -140 617 -152 q 617 -196 567 -234 q 517 -273 444 -273 q 385 -273 344 -244 q 302 -215 294 -165 q 244 -185 200 -185 q 123 -185 63 -146 q 4 -106 4 -36 q 4 -29 6 -29 q 9 -29 9 -37 q 9 -104 68 -143 q 127 -181 200 -181 q 246 -181 293 -161 l 292 -144 q 292 -130 296 -120 q 196 -90 149 -12 q 111 -35 111 -67 q 111 -79 116 -87 q 121 -96 127 -96 q 131 -96 134 -91 q 136 -85 142 -85 q 151 -85 151 -94 q 151 -103 135 -103 q 123 -103 115 -94 q 106 -84 106 -69 q 106 -32 147 -9 q 126 30 119 76 z m 491 178 q 438 148 415 81 l 412 77 q 412 88 431 123 q 449 157 490 181 q 500 187 553 202 q 557 203 567 203 q 581 203 593 200 q 619 259 619 336 l 613 336 q 599 336 591 344 q 583 351 583 362 q 583 390 613 406 q 600 474 563 523 q 557 516 557 506 q 557 498 564 495 q 572 493 572 488 q 572 481 564 481 q 552 481 552 503 q 552 517 561 527 q 500 607 399 607 q 304 607 243 545 q 268 532 268 513 q 268 505 264 501 q 260 497 256 497 q 245 497 245 506 q 245 512 252 512 q 264 512 264 515 q 264 521 258 528 q 251 536 239 541 q 190 490 181 408 q 202 407 216 397 q 229 387 229 374 q 229 362 219 354 q 208 347 192 347 q 183 347 178 348 q 179 314 188 278 q 219 306 254 322 q 251 340 251 360 q 251 412 278 456 q 304 500 351 522 q 354 530 359 530 q 363 530 365 528 l 369 530 q 372 538 378 538 l 384 535 l 388 537 q 390 547 399 547 q 409 547 411 538 l 417 537 l 424 542 q 431 542 432 536 l 436 535 q 440 537 443 537 q 447 537 451 531 q 489 519 513 488 q 536 458 536 423 q 536 399 524 378 q 507 349 485 339 q 463 329 445 329 q 425 329 408 341 q 391 354 391 369 q 391 379 397 379 q 400 379 400 369 q 400 355 413 344 q 426 333 444 333 q 462 333 482 343 q 509 356 521 383 q 531 404 531 423 q 531 456 509 485 q 488 514 450 527 l 443 524 q 438 524 435 530 l 431 531 q 427 527 424 527 l 417 532 l 411 532 q 409 521 400 521 q 390 521 388 530 l 385 529 q 382 523 378 523 q 372 523 370 525 l 367 523 q 365 517 357 517 q 354 517 352 518 q 261 475 261 370 q 261 347 264 326 q 290 336 311 339 q 328 341 344 341 q 362 341 395 331 l 394 329 l 391 330 q 368 337 344 338 q 329 338 310 336 q 293 334 264 324 q 270 285 295 232 q 321 180 326 160 q 331 139 331 122 q 331 108 327 92 q 323 75 319 76 l 321 81 q 327 99 327 120 q 327 139 322 160 q 316 181 288 229 q 260 276 254 319 q 218 303 189 275 q 208 197 261 126 l 264 121 l 263 119 q 260 119 232 163 q 205 207 186 272 q 147 233 131 186 q 156 156 198 137 l 201 135 l 199 134 q 195 134 173 146 q 151 158 129 180 q 120 151 120 123 q 120 108 121 101 l 123 77 q 130 29 152 -6 q 183 7 212 7 q 252 7 311 -22 l 315 -21 q 321 -21 321 -27 l 327 -30 q 329 -28 332 -28 q 338 -28 338 -34 l 343 -36 q 345 -33 349 -33 q 357 -33 357 -41 l 362 -42 q 364 -34 368 -34 q 375 -34 375 -40 q 376 -37 379 -37 q 386 -37 386 -42 l 385 -48 l 389 -49 q 393 -45 396 -45 q 402 -45 404 -52 l 410 -53 q 412 -49 417 -49 q 423 -49 423 -54 q 431 -55 448 -55 q 515 -55 561 -20 q 607 16 607 66 q 607 92 593 108 l 591 111 l 593 113 q 596 113 604 99 q 611 85 611 68 q 611 16 564 -22 q 518 -59 453 -59 q 431 -59 422 -58 q 420 -61 416 -61 q 410 -61 410 -56 l 403 -55 q 401 -60 396 -60 q 388 -60 388 -53 l 384 -52 q 380 -62 376 -62 q 370 -61 370 -56 q 369 -59 367 -59 q 359 -59 359 -54 q 359 -51 361 -46 l 356 -44 q 354 -48 349 -48 q 341 -48 341 -39 l 337 -38 l 331 -40 q 325 -40 325 -33 l 320 -31 l 314 -33 q 308 -33 308 -26 q 250 3 212 3 q 181 3 155 -9 q 200 -82 299 -111 q 318 -74 343 -74 q 366 -74 366 -99 q 366 -110 357 -122 q 383 -125 409 -125 q 526 -125 603 -67 q 680 -8 680 67 q 680 114 657 150 q 635 128 630 128 l 628 129 q 641 139 655 153 q 633 186 595 195 q 562 125 499 79 l 499 61 l 498 54 l 494 75 q 479 64 455 53 l 454 55 q 478 67 494 78 l 490 137 q 489 145 494 145 q 499 145 499 137 l 499 82 q 561 127 591 197 q 576 199 566 199 q 557 199 553 198 q 500 183 491 178 z m 344 338 q 347 315 375 282 q 404 250 410 232 q 417 215 417 199 q 417 159 386 127 q 356 95 349 95 l 347 97 l 350 99 q 378 120 378 154 q 378 168 372 183 q 366 198 342 228 q 318 258 312 275 q 305 292 305 308 q 305 321 310 336 l 311 339 q 324 372 350 396 q 376 421 380 421 l 383 419 l 380 417 q 343 390 343 352 q 343 344 344 341 z m 524 378 q 531 366 531 349 q 531 314 504 292 q 478 269 454 269 q 434 269 422 278 q 410 288 410 301 q 410 318 428 318 q 436 318 441 313 q 446 308 446 301 q 446 290 432 283 q 432 280 438 278 q 444 275 450 275 q 467 275 479 286 q 492 296 492 313 q 492 327 485 339 l 482 343 q 476 353 452 371 q 429 390 423 403 q 416 417 416 430 q 416 457 439 477 q 462 496 472 496 l 477 494 l 473 491 q 452 481 452 463 q 452 451 458 439 q 464 428 489 411 q 514 394 521 383 q 522 381 524 378 z m 553 198 q 549 162 517 162 q 501 162 491 178 l 490 181 q 488 187 488 191 q 488 207 496 215 q 503 224 516 224 q 524 224 524 228 q 524 233 516 239 q 509 244 495 244 q 459 244 429 199 l 426 195 l 424 197 q 424 204 445 226 q 466 249 496 249 q 522 249 538 234 q 553 219 553 202 z m 682 394 q 694 420 694 450 q 694 493 673 521 q 653 549 619 549 q 592 549 570 531 q 607 476 619 408 q 625 412 637 412 q 661 412 682 394 z m 233 544 q 224 547 211 547 q 176 547 147 519 q 117 491 117 449 q 117 417 130 391 q 152 407 175 408 q 186 488 233 544 z m 679 388 q 662 407 639 407 q 632 407 620 403 q 625 370 625 341 q 659 349 679 388 z m 178 352 q 183 351 192 351 q 205 351 214 357 q 223 363 223 372 q 223 383 211 392 q 198 401 180 402 q 178 379 178 365 z m 174 402 q 151 401 133 387 q 149 362 172 354 l 172 370 q 172 382 174 402 z m 619 340 q 619 367 614 400 q 587 383 587 364 q 587 353 594 346 q 602 340 614 340 z m 657 156 q 716 218 716 292 q 716 346 684 383 q 660 344 625 337 q 625 264 597 199 q 635 188 657 156 z m 185 274 q 174 318 172 350 q 148 357 127 383 q 92 352 92 295 q 92 236 128 189 q 147 237 185 274 z m 352 -121 q 362 -109 362 -98 q 362 -88 356 -83 q 351 -77 342 -77 q 321 -77 308 -113 q 322 -117 352 -121 z m 342 -132 q 322 -128 305 -123 q 303 -135 303 -143 l 303 -156 q 325 -146 342 -132 z"},"s":{"x_min":0,"x_max":215,"ha":215,"o":"m 87 215 q 49 187 49 154 q 49 112 79 112 q 90 112 113 130 q 137 149 159 149 q 181 149 194 138 q 207 127 207 109 q 207 92 190 73 q 173 54 129 31 q 86 7 74 -1 q 62 -9 54 -21 q 52 -21 52 -18 q 52 -16 55 -12 q 58 -9 58 -5 q 58 -2 50 5 q 42 12 29 12 q 4 12 -10 -13 l -12 -16 q -15 -16 -15 -13 q -15 -5 7 17 q 29 40 60 40 q 83 40 100 25 l 104 23 l 111 27 q 144 44 153 58 q 162 72 162 88 q 162 105 152 115 q 142 125 126 125 q 114 125 91 106 q 67 88 47 88 q 31 88 20 100 q 9 113 9 130 q 9 154 30 179 q 52 203 107 232 q 135 247 146 263 l 147 265 l 149 261 q 149 258 140 250 q 132 241 132 238 q 148 224 158 224 q 171 224 185 234 l 187 231 q 187 229 164 208 q 142 188 129 188 q 117 188 87 215 z"},">":{"x_min":0,"x_max":181,"ha":181,"o":"m 164 124 l 41 1 l 32 9 l 126 103 l 17 213 l 47 243 z"},"l":{"x_min":0,"x_max":125,"ha":125,"o":"m 10 35 q 8 34 8 38 q 29 55 35 68 q 41 81 41 117 l 41 295 q 41 342 69 374 q 98 406 144 406 q 167 406 184 391 q 202 376 202 359 q 202 345 194 337 q 186 329 173 329 q 163 329 155 336 q 147 343 147 354 q 147 370 155 376 q 162 382 181 384 q 181 388 169 394 q 158 401 140 401 q 112 401 97 381 q 82 362 82 325 l 82 132 q 82 108 69 87 q 57 65 35 51 q 13 37 10 35 z m 141 37 l 143 35 q 112 11 91 -10 q 71 -31 68 -31 l 66 -29 q 78 -16 78 -12 q 78 -4 63 11 q 49 26 21 26 q 18 26 3 17 q 0 17 0 20 q 0 22 27 39 q 54 56 68 56 q 81 56 119 26 q 123 26 130 31 q 137 37 141 37 z"},"8":{"x_min":0,"x_max":193,"ha":193,"o":"m 81 197 l 75 204 q 23 259 23 290 q 23 305 35 324 q 48 342 83 372 q 118 401 126 415 l 128 412 q 128 409 116 392 l 124 383 q 171 339 171 310 q 171 276 138 242 q 127 232 119 225 l 117 223 l 127 212 q 183 160 183 129 q 183 108 170 83 q 157 58 123 25 q 90 -8 75 -27 q 73 -27 72 -24 q 83 -10 83 -6 l 77 -1 q 21 36 21 90 q 21 114 33 138 q 44 162 80 195 z m 111 228 q 138 246 138 285 q 138 307 116 335 q 94 363 85 363 q 79 363 68 349 q 56 336 56 322 q 56 282 111 228 z m 154 104 q 154 120 134 145 q 114 170 87 192 l 84 189 q 56 160 56 123 q 56 80 79 52 q 102 25 114 25 q 121 25 137 49 q 154 72 154 104 z"},"\\":{"x_min":0,"x_max":189,"ha":189,"o":"m 244 -149 q 245 -151 234 -158 q 223 -164 217 -164 l 214 -163 l -42 457 q -44 460 -34 464 q -23 468 -16 468 l -12 467 z"},"e":{"x_min":0,"x_max":159,"ha":159,"o":"m 104 238 l 112 232 q 147 212 147 186 q 147 172 138 156 q 129 141 103 120 q 78 100 68 86 l 66 88 q 66 96 83 112 q 100 128 105 140 q 110 152 110 164 q 110 179 99 190 q 87 201 83 201 q 72 201 62 181 q 52 160 52 118 q 52 77 73 57 q 95 36 121 36 q 127 36 142 53 q 145 53 145 49 q 145 39 94 7 q 69 -8 62 -17 q 56 -26 55 -35 q 51 -35 51 -32 q 51 -19 70 -1 l 63 4 q 16 35 16 98 q 16 156 80 219 q 99 237 109 257 q 112 257 112 253 q 104 240 104 238 z"},"b":{"x_min":0,"x_max":230,"ha":230,"o":"m 77 181 q 87 192 117 215 q 147 238 155 259 l 158 263 l 160 260 q 160 256 152 242 q 152 235 173 216 q 194 196 202 177 q 210 157 210 137 q 210 102 188 72 q 167 41 111 14 q 86 1 66 -25 l 63 -23 l 73 -7 q 73 2 56 14 q 39 26 29 26 q 22 26 10 19 l 8 21 l 13 25 q 40 43 40 68 l 40 273 q 40 333 72 369 q 103 405 146 405 q 167 405 182 393 q 197 382 197 365 q 197 329 162 329 q 150 329 143 336 q 135 344 135 356 q 135 379 159 386 l 162 387 q 148 399 140 399 q 111 399 94 375 q 77 350 77 303 z m 77 169 l 77 76 q 77 53 92 41 q 106 28 118 28 q 132 28 153 47 q 173 67 173 107 q 173 139 165 154 q 157 169 147 178 q 138 187 136 189 q 120 205 116 205 q 114 205 100 194 q 85 183 77 169 z"},"%":{"x_min":0,"x_max":359,"ha":359,"o":"m 271 365 q 255 338 249 325 q 243 311 236 298 q 229 286 225 277 l 94 -37 l 91 -40 q 85 -34 86 -32 l 218 284 q 223 295 223 300 q 223 311 191 337 q 160 363 126 363 q 179 323 179 263 q 179 240 166 214 q 152 188 119 156 q 86 123 68 100 l 66 103 q 77 120 77 123 l 71 128 q 17 166 17 222 q 17 253 31 284 q 46 315 93 356 q 102 364 110 372 q 118 379 134 390 q 149 400 155 400 q 193 400 243 357 l 251 351 q 253 351 259 360 q 264 369 267 370 q 271 370 271 365 z m 108 156 q 115 156 129 180 q 144 204 144 237 q 144 275 120 307 q 96 339 85 339 q 79 339 65 314 q 52 289 52 256 q 52 210 74 183 q 96 156 108 156 z m 285 238 l 291 233 q 347 192 347 131 q 347 108 334 82 q 320 56 287 23 q 254 -9 236 -32 l 234 -29 q 245 -12 245 -9 l 239 -4 q 185 34 185 90 q 185 122 200 153 q 215 185 251 217 q 288 248 295 262 l 297 259 q 297 255 285 238 z m 276 24 q 283 24 297 48 q 312 72 312 105 q 312 143 288 175 q 264 207 253 207 q 247 207 233 182 q 220 157 220 124 q 220 79 242 51 q 264 24 276 24 z"},"m":{"x_min":0,"x_max":337,"ha":337,"o":"m 185 191 q 199 208 222 226 q 245 243 260 258 l 262 256 l 249 240 q 249 236 262 224 q 275 212 293 212 q 303 212 322 222 l 324 220 q 301 206 289 194 q 276 182 262 182 q 245 182 231 197 q 216 211 214 211 q 211 211 198 198 q 185 184 185 176 l 185 68 q 185 50 208 39 l 214 34 l 211 32 q 182 26 161 -11 q 155 -20 153 -20 l 151 -16 l 161 1 q 161 8 148 20 q 134 31 128 31 q 125 31 117 27 l 115 30 l 122 35 q 148 47 148 67 l 148 172 q 148 186 138 195 q 128 204 122 204 q 117 204 103 190 q 88 176 81 162 l 81 71 q 81 52 107 33 l 104 31 q 82 27 61 -4 q 54 -14 52 -14 l 50 -10 l 55 -2 q 55 7 43 18 q 31 30 27 30 q 23 30 11 23 q 8 23 8 26 l 13 29 q 44 45 44 70 l 44 169 q 44 181 35 189 q 26 197 20 197 q 8 197 -6 174 l -8 178 q -8 183 5 198 q 18 212 37 226 q 55 239 62 258 l 64 262 q 67 262 67 260 q 67 255 54 234 q 54 231 68 222 q 81 212 81 196 l 81 173 q 87 187 120 212 q 152 236 158 244 q 164 251 172 267 l 174 264 q 174 260 157 234 l 164 227 q 185 210 185 191 z m 278 -19 q 276 -20 276 -17 q 276 -14 284 -6 l 279 1 q 249 27 249 93 q 249 140 277 171 q 305 202 313 202 l 317 200 l 314 198 q 284 179 284 124 q 284 73 296 53 q 307 34 327 34 q 332 34 345 45 l 347 43 q 347 41 331 28 q 314 16 278 -19 z"},"#":{"x_min":0,"x_max":216,"ha":216,"o":"m 159 211 q 166 211 174 211 l 191 211 q 194 211 203 219 l 205 215 q 205 212 182 192 q 160 173 155 166 q 152 166 152 169 l 158 180 l 145 182 l 110 107 l 146 106 q 149 106 158 114 l 160 110 q 160 107 137 87 q 115 68 110 61 q 107 61 107 64 l 113 75 l 97 77 l 71 20 l 68 18 q 62 18 62 23 l 87 77 l 72 78 q 67 78 64 77 l 38 20 l 35 18 q 33 18 30 25 l 54 78 l 20 79 q 17 79 9 68 l 7 72 q 7 77 30 97 q 54 118 56 122 q 59 122 59 119 l 55 110 l 68 108 l 103 183 l 65 184 q 62 184 54 173 q 52 173 52 177 q 52 182 75 202 q 99 223 101 227 q 104 227 104 224 l 100 215 l 116 213 l 135 254 q 137 257 142 257 q 146 257 145 253 l 126 212 q 129 212 132 212 q 138 212 148 211 l 168 254 q 169 257 175 257 q 178 257 178 255 z m 135 182 l 113 183 l 78 107 l 100 107 z"},",":{"x_min":0,"x_max":86,"ha":86,"o":"m 54 37 q 54 34 66 17 q 77 -1 77 -19 q 77 -38 49 -65 q 21 -91 10 -90 l 17 -83 q 42 -61 42 -41 q 42 -21 33 -7 q 23 7 16 7 q 13 7 2 1 l -2 3 q -2 5 26 24 q 53 43 69 65 l 70 63 q 70 59 54 37 z"},"n":{"x_min":0,"x_max":236,"ha":236,"o":"m 81 184 q 95 203 118 218 q 142 234 149 243 q 157 251 169 270 l 171 267 q 171 263 158 243 q 158 236 168 228 q 179 219 198 219 q 206 219 220 227 l 222 225 q 207 214 189 200 q 172 185 160 185 q 145 185 132 198 q 119 210 116 210 q 113 210 101 199 q 89 189 81 173 l 81 67 q 81 39 107 30 l 114 26 l 108 22 q 76 14 57 -21 l 53 -27 q 51 -27 51 -24 q 51 -21 55 -14 q 60 -7 60 -4 q 60 0 48 13 q 37 25 27 25 q 22 25 13 22 l 10 24 q 10 26 19 30 q 44 42 44 60 l 44 169 q 44 180 34 189 q 24 199 16 199 q 10 199 -2 188 l -4 191 q -4 195 24 216 q 53 237 57 244 q 62 251 67 266 l 69 263 q 69 255 57 231 q 81 207 81 195 z m 240 59 l 242 57 q 242 53 216 26 q 190 -1 176 -29 l 174 -27 q 174 -23 178 -15 q 183 -7 183 -3 q 183 0 176 5 q 157 21 150 44 q 144 66 144 92 q 144 148 174 178 q 205 208 210 208 l 213 206 l 210 203 q 175 178 175 126 q 175 46 221 46 q 229 46 240 59 z"},"h":{"x_min":0,"x_max":233,"ha":233,"o":"m 77 170 q 87 181 106 196 q 125 211 136 222 q 147 233 157 253 q 160 253 160 249 q 160 246 155 236 q 155 227 164 218 q 173 209 185 209 q 197 209 220 229 q 223 229 223 226 q 205 210 189 194 q 174 178 157 178 q 145 178 121 200 q 88 174 77 160 l 77 78 q 77 44 105 31 l 112 26 l 108 23 q 83 20 59 -18 q 52 -29 48 -28 q 57 -9 57 -5 q 57 4 46 14 q 36 24 29 24 q 22 24 14 20 q 5 16 3 16 q 0 16 0 19 l 9 25 q 40 38 40 60 l 40 305 q 40 346 66 375 q 91 405 133 405 q 161 405 178 390 q 195 375 195 357 q 195 323 168 323 q 157 323 150 331 q 142 338 142 350 q 142 370 163 375 l 169 378 q 169 383 160 390 q 151 397 132 397 q 106 397 92 383 q 77 369 77 325 z m 179 143 q 179 124 192 102 q 204 80 204 53 q 204 20 178 -21 q 152 -62 118 -95 q 84 -128 80 -128 l 78 -125 l 86 -117 q 168 -44 168 20 q 168 35 158 59 q 148 83 148 100 q 148 137 171 165 q 193 193 199 193 q 202 193 202 190 l 199 187 q 179 164 179 143 z"},"z":{"x_min":0,"x_max":134,"ha":134,"o":"m 13 79 l 10 81 q 10 85 31 101 q 51 117 59 130 q 67 144 67 156 q 67 175 56 189 q 45 203 30 203 q 15 203 -5 180 l -7 183 q -7 187 7 200 q 21 213 43 227 q 65 241 79 266 l 83 271 l 85 269 q 85 265 68 241 l 75 236 q 111 216 111 188 q 111 165 65 127 l 54 116 l 61 114 q 87 109 97 95 q 107 81 107 61 q 107 47 100 32 q 93 17 62 -14 q 32 -46 24 -66 q 15 -86 15 -106 q 15 -124 25 -136 q 35 -149 51 -149 q 58 -149 62 -145 q 66 -140 66 -137 l 62 -135 q 46 -129 46 -116 q 46 -106 53 -100 q 61 -93 71 -93 q 81 -93 88 -100 q 94 -106 94 -117 q 94 -131 81 -142 q 67 -153 52 -153 q 33 -153 22 -139 q 11 -125 11 -105 q 11 -91 15 -75 q 19 -60 36 -32 q 52 -4 57 13 q 61 29 61 44 q 61 62 52 72 q 42 82 30 82 q 21 82 13 79 z"},"B":{"x_min":0,"x_max":818,"ha":818,"o":"m 443 342 q 459 305 459 263 q 459 183 409 133 q 359 83 302 83 q 263 83 239 101 q 215 119 215 144 q 215 163 225 174 q 236 186 253 186 q 294 186 294 151 q 294 137 285 128 q 276 119 264 119 q 248 119 234 132 q 234 112 252 101 q 271 89 305 89 q 339 89 375 126 q 410 164 410 235 q 410 294 382 338 q 354 382 304 400 l 298 402 q 277 410 244 410 q 187 410 153 380 q 119 350 119 312 q 119 308 111 308 q 103 308 103 320 q 103 374 150 410 q 197 447 270 447 q 290 447 313 442 l 319 441 q 401 419 440 347 q 474 387 543 427 q 547 429 549 430 q 589 455 606 482 l 611 487 l 615 486 q 615 479 600 462 q 584 445 584 443 q 584 434 596 424 l 602 420 q 655 387 655 348 q 655 298 602 252 q 631 242 655 218 q 657 216 661 211 q 675 195 682 179 l 685 173 q 693 152 693 131 q 693 74 653 35 q 613 -4 555 -4 q 522 -4 496 17 q 470 39 470 68 q 470 86 481 100 q 491 114 509 119 l 515 120 l 523 121 q 542 121 553 110 q 565 99 565 82 q 565 66 556 56 q 546 47 531 47 q 500 47 500 78 q 500 99 530 104 q 530 112 511 112 q 496 112 486 98 q 476 83 476 65 q 476 42 498 23 q 521 4 547 4 q 588 4 609 41 q 631 78 631 139 q 631 151 629 158 l 628 165 q 625 185 613 208 l 609 213 q 601 229 586 240 q 553 218 528 218 q 523 218 515 220 l 509 223 q 505 227 505 233 q 505 241 509 245 l 515 251 q 529 260 560 260 q 571 260 590 256 q 609 279 609 302 q 609 319 600 335 q 592 351 569 367 q 547 382 542 389 q 536 396 530 410 q 525 410 500 392 q 474 374 443 342 z m 578 244 q 564 252 549 252 q 534 252 525 246 q 515 241 515 233 q 515 223 529 223 q 553 223 578 244 z m 543 427 q 520 438 509 455 q 498 471 498 487 q 498 493 501 493 q 507 466 517 453 q 528 439 549 430 q 576 418 596 424 q 620 431 638 454 q 656 477 659 505 q 593 537 518 537 q 461 537 410 518 q 428 505 439 488 q 450 471 450 458 q 450 449 443 449 q 406 449 400 514 q 345 489 319 441 q 312 429 304 400 q 300 384 300 363 q 300 274 368 224 l 373 219 q 373 217 370 217 q 366 217 346 234 q 326 251 310 286 q 294 321 294 367 q 294 387 298 402 q 304 425 313 442 q 340 492 393 522 q 352 545 277 545 q 167 545 94 485 q 20 426 20 333 q 20 233 107 180 q 112 222 134 250 q 103 275 103 320 q 103 324 111 324 q 119 324 119 312 q 119 277 139 256 q 158 281 183 294 q 209 308 233 308 q 288 308 288 267 q 288 247 269 236 q 250 224 222 224 q 169 224 139 246 q 117 212 115 176 q 149 157 190 152 q 203 150 203 148 l 194 146 q 162 146 115 168 q 116 124 145 98 q 173 72 210 72 q 215 72 232 75 l 235 73 q 235 71 225 69 q 216 67 206 67 q 162 67 135 95 q 107 123 107 169 l 107 173 q 59 198 31 243 q 3 288 3 345 q 3 433 85 492 q 167 551 270 551 q 353 551 399 525 l 399 534 q 399 573 417 602 q 436 631 470 646 q 474 655 479 655 q 482 655 485 653 l 489 655 q 491 662 498 662 l 504 659 l 508 660 q 511 671 519 671 q 527 671 531 660 l 535 660 q 539 664 542 664 q 549 664 551 659 l 555 658 l 559 660 q 563 660 568 653 q 610 638 637 602 q 665 566 666 516 q 725 484 757 436 q 789 388 789 333 q 789 252 727 199 q 768 173 792 128 q 817 83 817 37 q 817 -35 762 -84 q 707 -134 632 -134 q 600 -134 562 -122 q 568 -140 568 -163 q 568 -219 521 -258 q 474 -297 413 -297 q 368 -297 324 -277 q 281 -257 258 -228 q 235 -199 235 -188 l 237 -185 l 240 -189 q 250 -212 274 -237 q 299 -262 339 -277 q 379 -291 416 -291 q 470 -291 512 -252 q 554 -212 554 -160 q 554 -138 547 -117 q 516 -104 498 -86 q 480 -69 480 -54 q 480 -46 490 -46 q 503 -46 524 -64 q 546 -83 559 -113 q 597 -125 638 -125 q 698 -125 749 -79 q 800 -34 800 47 q 800 86 778 128 q 756 170 720 193 q 703 180 685 173 q 666 165 629 158 q 624 157 609 157 q 582 157 555 166 q 529 175 515 186 l 515 176 q 528 173 528 164 q 528 160 524 156 q 520 153 515 153 l 515 120 q 515 112 512 112 q 509 112 509 119 l 509 153 q 504 153 500 156 q 496 160 496 164 q 496 173 509 176 l 509 264 q 509 272 507 277 q 505 282 505 286 q 505 292 509 295 l 509 300 q 497 303 497 314 q 497 318 501 323 q 504 327 509 327 l 509 332 q 505 335 505 341 q 505 345 507 350 q 509 355 509 363 l 509 384 q 509 392 512 392 q 515 392 515 384 l 515 363 q 515 355 517 350 q 519 345 519 341 q 519 335 515 332 l 515 327 q 520 327 523 323 q 527 318 527 314 q 527 303 515 300 l 515 295 q 519 292 519 286 q 519 282 517 277 q 515 272 515 264 l 515 191 l 519 188 q 557 164 604 164 q 621 164 628 165 q 647 167 682 179 q 697 184 714 196 q 688 211 661 211 q 627 211 613 208 q 598 205 595 205 q 591 205 591 208 l 609 213 q 635 218 655 218 l 659 218 q 691 218 721 201 q 781 251 781 331 q 781 383 751 428 q 721 473 665 502 q 662 474 644 451 q 626 428 602 420 q 574 411 543 427 z m 440 464 q 440 474 430 488 q 421 502 405 515 q 408 489 416 474 q 425 459 436 459 q 440 459 440 464 z m 143 252 q 171 229 216 229 q 244 229 259 240 q 275 252 275 271 q 275 301 230 301 q 181 301 143 252 z m 544 -108 q 534 -83 518 -68 q 503 -53 494 -53 q 488 -53 488 -58 q 488 -69 503 -83 q 518 -97 544 -108 z m 660 519 q 659 565 632 599 q 604 633 566 648 l 559 646 q 553 646 551 652 l 548 652 l 542 649 q 539 649 535 653 l 530 653 q 527 641 519 641 q 511 641 506 652 q 503 647 498 647 q 495 647 491 649 l 489 648 q 489 640 477 640 l 471 641 q 404 606 404 531 l 404 528 q 459 554 516 554 q 591 554 660 519 z m 176 -19 q 176 18 222 48 q 268 78 329 78 q 393 78 434 41 l 439 37 q 444 37 464 63 q 467 63 467 59 q 467 55 451 38 q 436 21 416 10 q 370 -17 354 -42 l 352 -44 l 349 -42 q 349 -34 389 2 q 389 9 362 26 q 334 42 285 42 q 241 42 212 25 q 183 9 183 -20 q 183 -27 179 -27 q 176 -27 176 -19 z m 183 -20 q 183 -49 210 -70 q 237 -91 285 -91 l 297 -91 q 303 -78 313 -70 q 324 -62 333 -62 q 347 -62 347 -72 q 347 -90 309 -96 q 306 -105 306 -118 q 306 -148 336 -171 q 367 -193 403 -193 q 435 -193 463 -174 l 469 -171 l 471 -173 q 471 -177 450 -188 q 428 -198 401 -198 q 361 -198 327 -173 q 293 -147 293 -110 q 293 -104 295 -97 l 286 -97 q 234 -97 205 -75 q 176 -52 176 -19 q 176 -12 179 -12 q 183 -12 183 -20 z m 311 -89 q 325 -87 333 -83 q 341 -79 341 -75 q 341 -69 333 -69 q 320 -69 311 -89 z"},"K":{"x_min":0,"x_max":768,"ha":768,"o":"m 381 294 q 348 270 332 230 q 352 197 352 161 q 352 137 334 109 q 317 81 267 39 q 218 -2 199 -25 q 199 -22 206 -9 q 206 -3 177 11 q 148 25 114 25 q 78 25 49 7 l 45 4 q 10 -21 10 -72 q 10 -77 7 -77 q 5 -77 5 -67 q 5 -21 36 15 l 40 19 q 88 69 155 69 q 207 69 246 41 l 253 36 q 258 36 288 63 q 318 91 318 126 q 318 148 297 183 q 276 217 271 235 q 266 252 266 268 q 266 304 286 338 q 306 372 355 408 q 404 443 422 467 l 424 465 q 424 461 418 455 q 412 449 412 446 q 412 436 425 428 q 438 420 456 420 q 466 420 494 429 q 497 429 497 426 q 475 412 462 402 q 449 392 437 386 q 425 381 406 381 q 385 381 356 401 q 349 401 325 375 q 302 349 302 311 q 302 284 315 260 q 328 237 330 234 q 344 271 381 299 l 386 302 q 394 308 425 325 q 455 342 467 361 l 469 363 l 471 360 q 471 355 458 344 q 446 333 446 330 q 446 321 468 308 q 490 295 496 284 q 503 272 503 260 q 503 235 483 212 q 463 188 434 174 q 450 172 463 159 q 476 146 488 106 q 500 66 511 56 q 522 47 536 47 q 550 47 572 66 l 574 64 q 574 59 558 45 q 542 31 516 18 q 490 6 471 -20 l 470 -18 q 470 -9 481 0 q 488 6 488 9 q 472 22 465 34 q 458 45 442 86 q 426 127 419 136 q 412 146 399 146 q 392 146 386 140 q 383 136 383 140 q 383 144 386 147 q 405 166 423 174 q 461 192 461 221 q 461 233 454 246 q 446 258 427 272 q 407 286 398 304 l 386 297 z m 36 15 q 4 62 4 118 q 4 170 48 210 q 35 239 35 268 q 35 314 73 350 q 110 386 162 389 q 177 485 241 542 q 306 600 389 600 q 477 600 544 542 q 612 484 632 389 q 697 381 734 343 q 772 304 772 253 q 772 187 714 145 q 724 121 724 90 q 724 20 671 -24 q 617 -69 540 -69 q 443 -69 384 -10 q 309 -69 203 -69 q 157 -69 115 -50 q 73 -31 45 4 q 38 12 36 15 z m 230 207 q 230 234 179 246 q 189 219 201 205 q 212 191 220 191 q 230 191 230 207 z m 610 228 q 606 229 596 229 q 572 229 555 218 q 538 206 538 190 q 538 183 542 178 q 547 173 554 173 q 586 173 610 228 z m 628 390 q 607 480 543 534 q 479 587 387 587 q 301 587 241 531 q 181 475 166 389 q 205 389 233 373 q 237 420 264 459 q 292 498 333 515 q 333 521 340 521 q 343 521 346 519 q 346 527 354 527 q 358 527 360 524 l 364 525 q 367 530 372 530 q 375 530 379 526 q 383 527 394 527 q 391 530 377 534 q 377 539 394 539 q 397 539 404 535 q 411 531 413 525 l 418 524 q 420 528 425 528 q 431 528 433 521 l 436 520 q 438 523 442 523 q 450 523 450 515 l 452 514 q 454 516 457 516 q 463 516 463 509 q 500 488 528 452 q 555 416 560 379 q 584 391 608 391 q 622 391 628 390 z m 49 7 q 76 -27 117 -46 q 158 -65 202 -65 q 312 -65 381 -7 q 363 11 353 33 q 343 55 343 59 q 343 63 345 63 q 351 29 384 -5 q 426 33 422 68 l 424 58 q 424 45 415 27 q 406 9 387 -8 q 447 -65 539 -65 q 611 -65 661 -21 q 711 24 711 89 q 711 117 704 139 q 665 116 622 116 q 578 116 541 137 q 504 157 504 162 l 506 163 l 509 161 q 563 120 623 120 q 668 120 702 144 q 679 214 615 227 q 590 169 551 169 q 540 169 533 176 q 527 182 527 192 q 527 210 546 222 q 564 233 595 233 q 606 233 612 232 q 633 280 633 337 q 633 364 629 385 q 623 386 607 386 q 584 386 561 373 q 562 366 562 350 q 562 329 554 309 q 545 289 531 289 q 513 289 513 313 q 513 329 525 346 q 536 364 556 376 q 550 414 524 450 q 498 485 460 505 l 456 504 q 450 504 450 510 l 448 511 q 446 508 442 508 q 434 508 434 516 l 432 517 q 430 513 425 513 q 417 513 417 521 l 413 522 q 411 516 405 511 q 399 507 393 507 q 382 507 382 511 q 396 516 397 523 l 380 522 q 380 515 372 515 q 366 515 362 519 q 362 512 354 512 q 349 512 346 515 q 346 509 339 509 q 336 509 334 511 q 294 494 268 456 q 242 419 237 371 q 256 360 265 347 q 275 335 274 331 l 271 334 q 258 356 237 368 l 237 357 q 237 337 250 301 q 246 301 239 322 q 233 343 233 361 l 233 370 q 207 385 166 385 q 164 368 164 360 q 164 295 178 251 q 207 245 223 232 q 240 219 240 204 q 240 185 224 185 q 197 185 174 247 q 160 249 152 249 q 100 249 61 212 q 76 178 104 159 q 133 140 167 140 q 235 140 265 189 l 268 193 l 269 191 q 269 182 243 159 q 217 136 173 136 q 135 136 103 154 q 71 171 52 203 q 16 160 16 103 q 16 59 40 19 q 43 14 49 7 z m 386 272 q 386 264 388 258 q 390 251 390 247 q 390 241 386 238 l 386 233 q 397 233 397 222 q 397 212 386 210 l 386 205 q 390 202 390 196 q 390 192 388 185 q 386 179 386 171 l 386 17 q 386 9 383 9 q 381 9 381 17 l 381 171 q 381 179 379 185 q 377 192 377 196 q 377 202 381 205 l 381 210 q 370 212 370 222 q 370 233 381 233 l 381 238 q 377 241 377 247 q 377 251 379 258 q 381 264 381 272 l 381 363 q 381 371 383 371 q 386 371 386 363 z m 172 252 q 158 294 158 343 q 158 364 161 385 q 114 382 82 346 q 50 311 50 262 q 50 240 58 219 q 84 238 110 246 q 136 254 152 253 z m 711 151 q 757 188 757 252 q 757 303 724 340 q 692 376 633 384 q 637 353 637 334 q 637 279 617 231 q 681 220 711 151 z m 557 350 q 557 365 556 370 q 522 345 522 315 q 522 297 533 297 q 544 297 551 313 q 557 330 557 350 z m 10 -72 q 10 -126 59 -165 q 108 -204 186 -204 q 215 -204 247 -193 q 278 -183 302 -164 q 298 -149 298 -130 q 298 -107 305 -91 q 312 -75 321 -75 q 328 -75 333 -84 q 337 -93 337 -106 q 337 -137 307 -169 q 320 -212 358 -233 q 396 -255 444 -255 q 501 -255 544 -222 q 587 -188 587 -140 q 587 -113 562 -89 l 560 -85 q 565 -85 578 -103 q 591 -121 591 -143 q 591 -188 547 -227 q 504 -265 443 -265 q 398 -265 358 -241 q 318 -217 304 -172 q 257 -213 191 -213 q 109 -213 57 -173 q 5 -132 5 -67 q 5 -62 7 -62 q 10 -62 10 -72 z m 305 -161 q 334 -135 334 -107 q 334 -98 330 -89 q 325 -80 320 -80 q 314 -80 308 -94 q 302 -109 302 -129 q 302 -146 305 -161 z"},"R":{"x_min":0,"x_max":721,"ha":721,"o":"m 334 163 q 367 150 397 149 l 397 288 q 373 317 371 352 l 371 358 q 372 375 376 393 q 381 411 403 447 q 424 483 428 510 q 404 516 383 516 q 347 516 318 504 q 318 480 326 468 q 335 455 347 455 q 358 455 359 460 l 356 465 q 356 471 361 471 q 367 471 367 464 q 367 460 361 456 q 355 451 347 451 q 331 451 319 466 q 308 480 308 500 q 255 473 235 417 q 227 395 227 370 l 227 367 q 227 312 269 278 l 272 275 l 270 273 q 264 273 242 299 q 221 326 221 369 l 221 373 q 221 399 229 420 q 252 479 308 505 q 310 519 314 529 q 286 536 278 568 q 173 524 144 430 q 139 414 139 390 q 139 305 177 253 l 180 249 q 193 233 213 219 l 212 217 q 189 231 177 246 l 174 250 q 134 303 134 389 q 134 408 139 429 q 165 529 277 580 q 279 611 298 630 q 318 648 345 648 q 393 648 420 596 q 527 580 592 516 q 657 452 657 372 q 657 302 619 248 q 580 193 510 165 q 528 169 553 169 q 627 169 685 115 q 743 62 743 -7 q 743 -75 690 -118 q 637 -160 551 -160 q 503 -160 465 -143 q 427 -125 406 -103 q 386 -81 386 -78 l 388 -76 l 391 -79 q 449 -154 548 -154 q 627 -154 678 -113 q 730 -72 730 -3 q 730 62 677 113 q 624 164 548 164 q 523 164 492 157 q 484 156 484 158 q 484 161 491 163 q 564 187 604 239 q 645 292 645 363 q 645 444 586 504 q 527 563 427 580 q 438 552 438 517 l 438 514 q 499 497 535 454 q 571 412 571 357 q 571 317 544 286 q 517 255 475 252 q 468 251 463 252 q 428 255 402 282 l 402 149 q 422 149 442 152 l 450 151 l 443 148 q 423 145 402 145 l 402 121 q 420 133 444 145 q 451 148 451 146 q 452 144 445 140 q 426 131 402 115 l 402 78 q 414 66 414 63 l 413 61 q 406 69 402 73 l 402 15 q 402 7 399 7 q 397 7 397 15 l 397 78 q 392 84 378 97 q 373 92 369 89 l 367 90 q 370 94 375 99 q 354 120 323 136 l 309 143 q 280 157 249 163 l 230 166 q 224 167 209 167 q 124 167 70 126 q 16 85 16 14 q 16 -59 74 -104 q 132 -149 216 -149 q 239 -149 266 -144 q 274 -112 295 -91 q 316 -70 337 -70 q 357 -70 357 -88 q 357 -107 335 -123 q 314 -138 276 -147 q 274 -163 274 -171 q 274 -212 297 -239 q 320 -266 358 -266 q 390 -266 412 -244 q 434 -222 434 -192 q 434 -173 423 -159 q 413 -145 400 -145 q 392 -145 390 -149 q 388 -154 388 -163 q 388 -171 382 -171 q 374 -171 374 -163 q 374 -155 382 -148 q 390 -141 400 -141 q 416 -141 427 -157 q 438 -173 438 -193 q 438 -225 414 -249 q 390 -272 356 -272 q 315 -272 289 -243 q 263 -214 263 -170 q 263 -164 265 -150 q 236 -156 209 -156 q 125 -156 62 -110 q 0 -64 0 14 q 0 82 60 127 q 120 172 204 172 q 215 172 232 170 l 249 167 q 282 161 310 147 l 325 139 q 354 122 378 102 q 392 114 397 117 l 397 145 q 374 146 333 159 l 326 164 q 327 166 334 163 z m 333 159 q 330 153 325 139 l 323 136 q 314 116 305 102 q 353 77 353 38 q 353 5 335 -12 q 316 -29 307 -29 l 304 -28 l 307 -24 q 323 -13 323 10 q 323 42 279 66 q 221 -1 161 -1 q 123 -1 99 17 q 75 35 75 61 q 75 80 88 93 q 100 106 119 106 q 133 106 144 97 q 154 89 154 76 q 154 62 145 53 q 136 44 124 44 q 107 44 93 60 l 89 63 l 88 58 q 88 32 107 18 q 127 4 162 4 q 188 4 218 21 q 249 39 274 69 q 244 86 234 102 q 223 117 223 136 q 223 150 230 166 l 232 170 q 242 188 254 198 q 267 209 269 209 l 272 207 l 269 204 q 249 189 249 170 l 249 163 q 251 132 297 106 q 307 130 309 143 l 310 147 q 313 164 313 179 q 313 235 290 289 q 268 342 227 370 l 221 373 q 190 391 156 391 q 145 391 139 390 l 134 389 q 93 384 69 360 q 46 337 46 303 q 46 272 67 252 q 88 232 121 232 q 152 232 174 250 l 177 253 q 182 257 190 266 l 192 264 q 192 261 180 249 l 177 246 q 153 228 120 228 q 80 228 56 254 q 32 281 32 318 q 32 351 62 385 q 92 418 139 429 l 144 430 q 158 432 166 432 q 201 432 229 420 l 235 417 q 299 389 331 319 q 342 339 371 358 l 376 362 q 395 375 435 396 q 475 418 486 433 q 498 448 501 465 q 504 465 504 462 q 504 445 491 430 q 478 416 478 412 q 478 403 500 385 q 522 366 529 353 q 536 340 536 328 q 536 292 481 256 l 475 252 l 436 230 q 475 224 491 163 l 493 156 q 497 143 501 116 q 506 90 511 76 q 517 62 531 52 q 544 43 561 43 q 577 43 590 60 l 593 63 l 594 61 q 594 56 578 39 q 562 22 534 5 q 507 -11 482 -31 q 482 -28 492 -20 q 501 -11 516 1 l 510 5 q 481 23 469 49 q 458 74 452 104 q 446 135 445 140 l 444 145 l 443 148 l 442 152 q 431 196 402 198 l 397 198 q 385 198 373 184 l 371 186 q 371 194 397 213 l 402 216 q 415 225 432 234 q 450 242 463 252 l 467 256 q 488 275 488 303 q 488 316 482 328 q 477 340 458 354 q 438 368 430 386 q 425 386 402 372 l 397 369 l 376 356 l 371 352 q 349 337 333 313 q 347 280 347 247 q 347 207 334 163 z m 481 256 q 518 261 541 290 q 565 319 565 355 q 565 410 531 450 q 497 491 437 508 q 435 484 405 432 q 375 380 376 362 l 376 356 q 377 321 397 295 l 397 369 q 397 375 399 375 q 402 375 402 372 l 402 289 q 429 259 467 256 q 475 255 481 256 z m 397 83 l 397 112 q 386 104 381 99 z m 277 -141 q 346 -124 346 -92 q 346 -78 327 -78 q 314 -78 299 -95 q 283 -113 277 -141 z m 653 -7 l 657 -7 q 663 -7 663 -12 q 663 -28 656 -28 q 649 -28 649 -25 q 647 -31 645 -35 q 648 -38 648 -41 q 648 -48 639 -48 l 636 -52 l 637 -56 q 637 -62 628 -62 q 599 -91 549 -91 q 490 -91 459 -62 q 428 -34 428 -7 l 430 1 l 431 -8 q 431 -32 462 -59 q 492 -86 549 -86 q 599 -86 625 -59 l 624 -56 q 624 -49 633 -49 l 635 -46 q 633 -44 633 -41 q 633 -33 642 -33 q 644 -29 643 -27 q 636 -25 636 -20 q 636 -4 643 -4 l 646 -5 l 649 -5 l 650 0 q 644 1 644 7 q 644 13 650 15 q 650 18 649 20 q 644 20 644 26 q 644 30 647 32 q 638 62 614 81 q 591 100 562 100 l 543 102 l 562 104 q 593 104 618 84 q 642 65 651 33 q 657 33 657 26 q 657 21 653 20 l 654 15 q 659 13 659 7 q 659 2 654 0 z m 195 -68 l 203 -68 q 239 -68 267 -51 l 271 -49 l 273 -51 q 273 -55 250 -63 q 228 -72 202 -72 l 195 -72 q 194 -76 188 -76 q 184 -76 182 -71 l 178 -71 q 176 -80 172 -80 q 167 -79 167 -76 l 168 -69 l 164 -68 q 163 -77 159 -77 q 154 -77 154 -73 l 155 -66 l 151 -65 q 149 -68 145 -68 q 139 -68 139 -61 q 103 -47 85 -25 q 68 -2 68 5 l 70 8 l 72 4 q 94 -41 140 -58 l 146 -56 q 152 -56 152 -62 l 155 -63 q 157 -55 160 -55 q 166 -55 166 -59 l 165 -65 l 168 -66 q 170 -58 173 -58 q 179 -58 179 -62 l 178 -67 l 182 -67 q 185 -64 189 -64 q 194 -64 195 -68 z m 415 597 q 390 643 344 643 q 321 643 303 626 q 286 609 286 584 q 329 600 367 600 q 392 600 415 597 z m 430 535 q 431 554 422 581 q 398 585 368 585 q 328 585 287 571 q 293 538 316 533 q 322 544 331 550 q 340 556 346 556 q 361 556 361 548 q 361 541 348 534 q 335 528 322 528 q 320 523 318 509 q 348 521 385 521 q 404 521 429 516 z m 324 532 q 337 532 346 538 q 355 543 355 547 q 355 551 345 551 q 342 551 336 546 q 329 541 324 532 z"},"T":{"x_min":0,"x_max":717,"ha":717,"o":"m 579 432 q 579 471 536 503 q 493 534 445 534 q 386 534 347 502 q 357 497 392 476 q 426 456 452 448 q 478 441 501 441 q 513 441 538 446 q 538 442 525 438 q 513 434 499 434 q 478 434 453 441 q 428 449 392 471 q 355 493 344 499 q 335 491 325 478 l 324 480 q 324 485 340 501 q 334 505 331 506 l 325 504 q 319 504 319 511 q 314 514 302 518 q 301 514 307 509 q 314 503 314 500 l 312 495 q 304 505 298 507 q 282 511 284 523 l 276 525 q 274 522 270 522 q 264 522 264 527 l 254 528 q 252 525 248 525 q 243 525 242 529 l 237 529 q 229 529 225 528 q 206 501 206 469 l 206 454 q 206 450 212 431 q 223 397 254 375 l 258 373 l 255 372 q 251 372 233 387 q 215 402 205 431 l 200 453 q 199 458 199 470 q 199 499 214 527 q 126 512 67 465 q 8 417 8 353 q 8 292 50 260 q 92 228 166 228 l 178 228 q 196 228 229 240 q 256 250 285 272 l 287 270 q 253 246 228 235 q 200 223 177 223 l 166 223 q 90 223 46 257 q 3 291 3 355 q 3 421 65 470 q 127 519 217 532 q 243 573 295 598 q 348 622 403 622 q 485 622 547 592 q 609 562 643 512 q 677 462 677 414 q 677 366 642 331 q 679 315 699 284 q 719 253 719 214 q 719 182 699 156 q 678 130 642 117 q 649 102 649 81 q 649 31 611 -14 q 573 -58 505 -85 q 518 -106 518 -129 q 518 -176 470 -211 q 422 -245 358 -245 q 282 -245 228 -207 q 175 -168 175 -105 q 172 -106 165 -106 q 100 -106 58 -68 q 15 -30 15 34 q 15 93 59 140 q 103 186 173 200 q 202 206 226 204 q 287 199 319 178 q 351 157 351 152 l 349 150 l 345 153 q 299 194 226 198 q 203 200 173 194 q 108 181 69 138 q 31 94 31 33 q 31 -25 70 -62 q 110 -100 167 -100 l 175 -100 q 177 -70 195 -50 q 170 -32 157 -16 q 143 0 143 3 l 144 6 l 146 3 q 167 -26 198 -47 q 216 -28 239 -28 q 258 -28 258 -45 q 258 -59 244 -73 q 267 -82 292 -88 q 304 -62 334 -46 q 364 -30 399 -30 q 429 -30 457 -42 q 484 -55 500 -77 q 568 -54 606 -11 q 644 32 644 86 q 644 100 639 116 q 620 109 595 109 q 565 109 537 119 l 534 120 q 504 130 478 151 l 478 57 q 478 47 475 47 q 472 47 472 53 l 472 155 q 464 162 462 164 q 460 167 455 173 q 446 167 432 156 l 430 157 q 442 169 452 176 q 439 193 431 210 q 423 227 423 229 l 425 232 l 427 228 q 438 200 456 178 q 458 180 470 185 q 468 191 468 195 q 468 201 472 204 l 472 209 q 461 211 461 221 q 461 232 472 232 l 472 237 q 468 240 468 246 q 468 250 470 257 q 472 263 472 271 l 472 285 q 460 287 456 290 q 452 293 455 293 l 472 290 l 472 340 q 472 348 475 348 q 478 348 478 340 l 478 289 q 491 285 523 285 q 550 285 580 297 q 610 308 633 329 q 607 340 575 340 q 547 340 503 323 l 501 324 q 501 327 528 336 q 555 345 575 345 q 608 345 637 333 q 671 369 671 412 q 671 487 602 547 q 534 606 409 606 q 354 606 305 587 q 255 567 229 533 l 242 533 q 243 537 249 537 q 253 537 255 532 l 265 531 q 267 534 271 534 q 277 534 277 529 l 285 527 q 288 532 295 532 q 300 532 307 530 q 313 528 318 528 q 321 528 327 529 l 329 526 q 329 523 323 523 l 312 523 q 306 523 304 521 q 316 517 321 514 q 323 516 326 516 q 332 516 332 509 l 343 504 q 384 539 447 539 q 495 539 540 506 q 584 473 584 431 q 584 424 582 424 q 579 424 579 432 z m 584 431 q 584 399 553 377 q 522 355 481 355 q 421 355 342 389 q 245 344 229 240 l 228 235 q 226 217 226 204 l 226 198 q 228 119 272 75 q 316 31 390 31 q 433 31 472 53 l 478 57 q 521 83 534 120 l 536 123 l 537 119 q 529 75 477 36 q 426 -2 356 -2 q 277 -2 225 45 q 172 91 172 176 q 172 188 173 194 l 173 200 q 175 216 177 223 l 178 228 q 193 283 236 326 q 279 369 335 392 q 254 430 212 431 l 205 431 q 148 431 113 408 q 78 385 78 348 q 78 320 97 306 q 116 292 145 292 q 160 292 184 307 l 186 305 q 186 302 170 293 q 154 285 135 285 q 113 285 93 302 q 73 319 73 347 q 73 383 107 411 q 141 439 200 453 l 206 454 q 235 460 264 460 q 288 460 317 454 q 345 447 397 424 q 449 400 473 395 q 498 389 518 389 q 548 389 563 401 q 579 413 579 432 q 579 439 582 439 q 584 439 584 431 z m 640 124 q 669 138 687 165 q 704 193 704 224 q 704 256 687 284 q 670 312 638 327 q 614 305 582 292 q 550 280 522 280 q 497 280 478 284 l 478 271 q 478 263 480 257 q 482 250 482 246 q 482 240 478 237 l 478 232 q 488 232 488 221 q 488 211 478 209 l 478 204 q 482 201 482 195 q 482 191 481 189 q 500 196 526 196 q 565 196 596 177 q 626 157 640 124 z m 637 122 q 624 154 594 172 q 564 191 525 191 q 503 191 480 184 q 478 178 478 170 l 478 156 q 532 114 598 114 q 618 114 637 122 z m 472 161 l 472 170 q 472 179 471 181 q 460 177 459 175 l 464 169 z m 495 -79 q 479 -58 452 -46 q 425 -34 399 -34 q 367 -34 338 -49 q 310 -64 298 -89 q 333 -97 373 -97 q 438 -97 495 -79 z m 238 -70 q 252 -58 252 -46 q 252 -34 236 -34 q 218 -34 202 -50 q 221 -62 238 -70 z m 235 -74 q 215 -63 199 -53 q 184 -72 181 -99 q 211 -94 235 -74 z m 181 -104 l 181 -109 q 181 -166 234 -202 q 287 -239 359 -239 q 423 -239 468 -206 q 513 -173 513 -128 q 513 -107 501 -87 q 445 -107 387 -107 q 337 -107 296 -96 q 293 -104 293 -114 q 293 -137 309 -151 q 325 -164 348 -164 q 364 -164 374 -158 q 385 -152 385 -143 q 385 -134 376 -134 q 378 -136 378 -141 q 378 -145 372 -145 q 363 -145 363 -138 q 363 -127 375 -127 q 390 -127 390 -142 q 390 -153 379 -161 q 367 -169 348 -169 q 324 -169 305 -154 q 287 -139 287 -114 q 287 -103 290 -94 q 268 -89 240 -76 q 218 -97 181 -104 z m 347 301 q 347 289 353 277 q 359 265 384 244 q 409 224 416 208 q 423 193 423 177 q 423 141 392 115 q 362 89 337 89 q 318 89 304 99 q 290 110 290 124 q 290 153 319 153 q 329 153 335 145 q 341 137 341 127 q 341 113 325 106 l 322 104 q 322 101 329 99 q 336 96 343 96 q 357 96 373 112 q 389 127 389 144 q 389 159 383 173 q 376 188 350 208 q 324 229 318 242 q 311 256 311 271 q 311 303 339 328 q 368 353 376 353 l 381 351 l 376 348 q 347 329 347 301 z"},"P":{"x_min":0,"x_max":804,"ha":804,"o":"m 542 266 l 542 278 q 542 290 540 308 q 538 326 538 337 q 538 370 544 370 q 550 370 550 337 q 550 326 548 308 q 546 290 546 278 l 546 267 l 544 259 z m 653 479 q 677 452 677 418 q 677 398 665 376 q 644 335 612 337 q 594 338 584 343 q 574 348 575 351 l 578 350 q 590 341 609 340 q 640 338 661 379 q 672 399 672 419 q 672 449 650 474 l 646 478 q 604 520 540 520 q 490 520 452 492 q 414 465 414 423 q 414 420 416 410 q 425 391 457 376 q 467 374 471 374 q 497 374 519 396 q 541 417 541 442 q 541 451 537 457 q 534 462 530 462 q 527 462 527 458 q 527 450 519 450 q 511 450 511 459 q 511 462 515 466 q 519 469 523 469 q 532 469 538 462 q 545 456 545 445 q 545 417 522 394 q 499 371 470 371 q 464 371 461 372 q 418 386 411 413 q 410 417 410 423 q 410 467 450 496 q 489 526 540 526 q 604 526 649 483 z m 313 379 q 315 348 326 319 q 362 310 385 283 q 408 256 408 224 q 413 221 422 217 l 421 215 q 416 216 408 220 q 406 198 392 179 l 424 176 q 438 174 447 172 l 479 163 q 511 182 546 188 l 564 190 q 568 191 575 191 l 588 191 q 653 188 691 148 q 697 148 697 142 l 696 139 q 700 135 703 131 q 711 131 711 123 q 711 119 707 117 q 711 102 711 90 l 711 83 q 715 79 715 76 q 715 71 708 69 l 706 63 q 708 61 708 58 q 708 52 701 52 q 689 32 667 20 q 645 9 622 9 q 579 9 546 29 l 546 14 l 544 9 l 542 14 l 542 31 q 526 43 521 48 l 517 53 q 506 65 507 69 q 514 60 519 55 l 523 50 q 534 39 542 34 l 542 129 q 512 148 479 159 q 471 154 457 142 l 455 143 q 455 147 475 160 q 465 163 444 168 q 430 171 422 172 l 389 175 q 383 171 381 171 q 375 171 373 176 l 363 176 q 341 176 331 175 q 292 171 261 162 q 192 142 155 98 q 117 54 117 -6 q 117 -70 161 -109 q 205 -148 291 -148 q 324 -148 359 -135 q 357 -121 357 -112 q 357 -86 371 -67 q 384 -49 405 -49 q 430 -49 430 -78 q 430 -92 412 -108 q 395 -125 364 -137 q 373 -184 417 -208 q 462 -233 535 -233 q 604 -233 657 -196 q 710 -159 710 -105 q 710 -82 702 -62 q 644 -90 573 -90 q 530 -90 489 -77 q 483 -92 483 -108 q 483 -137 501 -153 q 519 -170 548 -170 q 573 -170 593 -156 q 612 -143 612 -127 l 607 -117 q 607 -110 612 -110 q 620 -110 620 -122 q 620 -139 598 -156 q 576 -174 546 -174 q 516 -174 494 -156 q 473 -139 473 -112 q 473 -92 482 -74 q 434 -56 406 -32 q 379 -7 379 -1 l 380 1 l 381 -1 q 418 -49 484 -70 q 501 -40 537 -22 q 572 -5 611 -5 q 673 -5 705 -53 q 790 -4 790 93 q 790 151 756 194 q 721 236 664 251 q 649 255 637 255 l 631 255 q 614 255 614 258 l 629 260 l 638 260 q 652 260 668 256 q 729 241 767 194 q 804 146 804 92 q 804 47 779 7 q 754 -33 708 -58 q 719 -80 719 -104 q 719 -161 663 -204 q 607 -246 535 -246 q 463 -246 417 -218 q 370 -190 360 -139 q 325 -153 290 -153 q 200 -153 151 -109 q 103 -66 103 -3 q 103 58 144 102 q 185 147 259 167 q 286 174 333 179 q 342 180 363 180 l 381 180 q 389 180 396 192 q 402 204 403 223 q 348 254 322 316 q 312 318 305 318 l 294 318 q 292 313 287 313 q 283 313 281 316 l 274 315 q 274 307 266 307 q 260 307 259 311 l 253 309 q 253 302 245 302 q 241 302 237 305 q 236 292 222 292 q 217 292 204 286 q 204 290 209 293 q 213 297 214 300 q 204 297 191 297 q 189 292 183 292 q 177 292 175 297 l 168 297 q 167 292 161 292 q 155 292 153 297 l 148 298 q 146 295 142 295 q 136 295 136 300 q 73 309 38 346 q 4 383 4 437 q 4 501 48 540 q 92 579 162 579 q 217 579 253 552 q 267 581 296 600 q 326 618 357 618 q 397 618 422 598 q 469 620 531 620 q 627 620 703 559 q 779 498 779 410 q 779 366 754 333 q 729 301 685 287 q 662 280 638 281 q 598 282 577 296 q 555 309 555 313 l 556 315 l 560 312 q 589 286 638 285 q 663 285 686 292 q 728 305 750 336 q 773 367 773 410 q 773 490 702 547 q 630 604 527 604 q 478 604 433 588 q 443 575 443 558 q 443 536 422 519 q 401 502 382 502 q 362 502 362 514 q 362 522 370 522 q 378 522 379 515 q 380 508 385 508 q 401 508 420 522 q 438 537 438 561 q 438 574 428 586 q 322 542 312 430 q 311 412 313 379 z m 650 474 q 646 467 630 451 q 614 435 614 426 q 614 417 634 402 q 653 387 661 379 l 665 376 q 690 351 690 314 q 690 301 686 292 l 685 287 q 680 273 668 256 l 664 251 q 632 207 588 191 q 568 184 546 188 q 511 194 511 226 q 511 241 520 252 q 528 263 542 266 l 548 267 q 564 267 574 258 q 585 249 585 233 q 585 222 576 214 q 566 206 555 206 q 546 206 537 211 q 528 216 526 223 q 526 191 564 190 q 568 190 575 191 q 595 194 613 213 q 631 231 637 255 l 638 260 q 639 264 639 271 q 639 278 638 281 l 638 285 q 633 315 612 337 l 601 348 q 563 384 563 393 q 563 401 560 401 q 557 401 530 383 q 502 364 478 342 q 491 316 491 284 q 491 220 447 172 l 444 168 q 396 121 339 121 q 282 121 261 162 l 259 167 q 257 177 257 182 q 257 200 268 212 q 279 224 296 224 q 313 224 324 215 q 335 206 335 190 q 335 185 333 179 l 331 175 q 321 156 301 156 q 287 156 278 164 q 278 150 294 138 q 311 126 340 126 q 394 126 422 172 l 424 176 q 443 206 443 252 q 443 305 411 342 q 379 380 323 380 q 315 380 313 379 l 307 378 q 299 377 268 368 q 238 360 202 360 q 158 360 126 384 q 95 407 95 445 q 95 466 104 480 q 114 494 117 494 l 119 491 l 118 489 q 111 478 111 463 q 111 442 135 425 q 159 408 191 408 q 217 408 254 418 q 292 427 306 429 l 312 430 q 326 432 334 432 q 376 432 411 413 l 416 410 q 439 397 457 376 l 461 372 q 469 362 476 347 q 512 382 584 425 q 628 451 646 478 l 649 483 q 652 488 653 491 l 655 488 q 655 485 653 479 z m 699 -57 q 673 -10 606 -10 q 571 -10 539 -27 q 506 -44 491 -73 q 529 -84 574 -84 q 645 -84 699 -57 z m 363 -133 q 420 -109 420 -75 q 420 -57 402 -57 q 385 -57 373 -74 q 362 -91 362 -114 z m 306 429 q 316 546 417 596 q 391 613 357 613 q 326 613 298 594 q 271 576 259 546 q 282 526 282 503 q 282 482 266 482 q 256 482 250 492 q 244 503 244 518 q 244 532 250 546 q 214 573 162 573 q 96 573 53 537 q 10 500 10 440 q 10 388 43 351 q 76 314 137 304 q 139 307 143 307 q 149 307 149 302 l 153 302 q 155 307 161 307 q 167 307 169 301 l 175 301 q 177 307 183 307 q 189 307 191 301 l 214 304 q 213 306 207 309 q 200 312 201 317 q 207 313 212 313 q 215 313 219 314 q 222 315 226 315 q 235 315 237 310 q 237 317 245 317 q 250 317 252 313 l 258 315 q 258 322 266 322 q 270 322 273 319 q 276 320 281 320 q 283 325 288 325 q 293 325 294 321 q 297 322 305 322 q 315 322 320 321 q 310 351 307 378 q 304 408 306 429 z m 277 503 q 277 523 257 540 q 254 528 254 516 q 254 487 267 487 q 277 487 277 503 z m 403 227 q 401 257 380 281 q 358 305 328 314 q 353 256 403 227 z m 706 84 l 706 90 q 706 105 702 116 q 695 116 695 123 q 695 126 697 128 q 696 131 693 136 l 690 136 q 684 136 684 142 l 686 146 q 651 186 586 186 q 564 186 546 183 l 546 132 q 581 108 599 85 q 616 62 616 58 l 614 56 l 610 61 q 584 100 546 126 l 546 32 q 580 13 620 13 q 642 13 664 23 q 686 34 697 53 q 695 55 695 58 q 695 64 702 64 l 704 70 q 699 72 699 76 q 699 82 706 84 z m 700 111 q 704 111 704 109 q 705 107 705 100 q 705 90 701 90 q 697 90 695 92 q 694 94 694 100 q 694 111 700 111 z m 542 134 l 542 182 q 509 177 483 162 q 515 151 542 134 z m 521 48 q 509 33 484 9 q 458 -14 441 -36 l 439 -34 q 439 -29 458 -5 q 458 9 422 33 q 386 57 335 57 q 291 57 259 37 q 227 18 227 -15 q 227 -37 245 -51 q 262 -65 286 -65 q 305 -65 326 -52 l 327 -54 q 327 -57 314 -63 q 301 -69 284 -69 q 262 -69 242 -54 q 223 -40 223 -15 q 223 33 268 65 q 312 97 358 97 q 446 97 499 45 l 503 41 q 508 41 517 53 l 519 55 l 523 61 l 533 72 l 535 68 q 535 63 523 50 z m 716 111 q 722 111 722 100 q 722 90 717 90 q 713 90 712 92 q 711 94 711 100 q 711 107 712 109 q 712 111 716 111 z"},"|":{"x_min":0,"x_max":133,"ha":133,"o":"m 79 460 l 79 -200 l 52 -200 l 52 460 z"},"t":{"x_min":0,"x_max":140,"ha":140,"o":"m 42 236 q 42 276 49 294 q 56 312 82 332 q 108 351 111 351 l 113 348 l 112 346 q 95 331 89 317 q 83 303 83 268 l 83 236 l 111 236 q 118 236 118 229 q 118 223 111 223 l 83 223 l 83 142 q 83 79 17 36 q 13 34 8 31 l 7 34 l 7 37 q 9 38 18 43 q 27 49 34 64 q 42 80 42 124 l 42 223 l 20 223 q 14 223 14 229 q 14 236 20 236 z m 141 37 l 143 35 q 112 11 91 -10 q 71 -31 68 -31 l 66 -29 q 78 -16 78 -12 q 78 -4 63 11 q 49 26 21 26 q 18 26 3 17 q 0 17 0 20 q 0 22 26 38 q 53 54 68 54 q 81 54 119 26 q 123 26 130 31 q 137 37 141 37 z"},"M":{"x_min":0,"x_max":935,"ha":935,"o":"m 223 12 q 226 39 238 63 q 206 97 206 151 q 206 161 207 166 q 187 161 171 161 q 101 161 52 208 q 3 254 3 328 q 3 412 69 468 q 134 525 221 525 q 241 525 259 522 q 330 613 461 618 q 471 654 501 675 q 532 696 572 696 q 609 696 638 669 q 666 642 666 606 q 666 579 648 562 q 668 548 687 528 q 714 537 750 537 q 815 537 869 490 q 923 442 923 385 q 923 337 876 298 q 928 259 928 200 q 928 152 895 122 q 862 91 820 91 l 813 91 q 830 52 830 16 q 830 -59 766 -106 q 702 -154 611 -154 q 586 -154 553 -149 q 502 -180 431 -180 q 341 -180 281 -130 q 221 -81 221 -9 q 221 2 222 7 z m 643 565 q 657 581 657 606 q 657 641 631 665 q 605 690 567 690 q 530 690 503 671 q 475 652 467 618 q 507 618 550 607 q 554 627 573 627 q 581 627 586 624 q 592 621 592 617 q 592 610 587 610 q 583 610 583 616 q 583 623 571 623 q 556 623 554 606 q 603 593 643 565 z m 465 553 q 458 570 458 592 q 458 599 459 603 q 331 596 267 520 q 304 513 334 495 q 345 509 357 518 l 357 521 q 357 527 364 527 l 368 526 l 371 528 l 368 535 q 368 540 372 540 q 375 540 379 533 l 381 535 q 381 541 388 541 l 392 540 q 422 554 450 554 q 460 554 465 553 z m 637 560 q 602 581 555 593 q 559 574 576 563 q 592 552 614 552 q 627 552 637 560 z m 535 508 q 535 520 518 531 q 500 542 473 548 q 483 526 499 514 q 514 501 526 501 q 535 501 535 508 z m 690 330 q 674 317 670 317 l 668 318 l 684 330 q 699 341 713 361 q 730 386 730 417 q 730 475 685 523 q 639 506 613 462 l 610 458 l 608 460 q 608 466 626 489 q 644 511 682 526 q 665 543 642 557 q 631 548 615 548 q 592 548 574 561 q 555 573 551 594 q 504 603 468 603 l 464 603 l 464 592 q 464 571 471 552 q 501 547 520 535 q 539 523 539 509 q 539 497 525 497 q 508 497 491 511 q 475 525 466 549 q 461 550 450 550 q 425 550 394 535 q 394 529 387 529 l 381 529 q 385 522 385 520 q 385 515 381 515 q 378 515 373 525 l 370 521 q 370 515 363 515 l 359 515 q 345 504 337 494 q 366 478 399 442 l 397 441 l 395 443 q 367 472 334 491 q 311 460 311 426 l 310 418 l 308 427 q 310 461 332 492 q 300 511 264 516 q 237 483 230 442 q 226 420 227 397 q 230 333 265 291 q 268 297 268 302 l 270 306 l 272 302 q 272 295 268 287 q 306 247 373 233 q 389 229 410 228 q 436 226 450 226 q 478 226 508 234 q 540 242 565 256 q 588 269 602 285 q 593 291 588 296 l 590 298 q 600 290 604 287 q 616 302 616 319 l 618 329 l 620 320 q 620 303 607 285 q 634 267 667 260 q 683 256 698 255 q 717 253 729 253 q 808 253 865 299 q 840 318 817 318 l 807 320 l 817 322 q 840 322 868 303 q 908 338 908 388 q 908 449 858 491 q 809 532 743 532 q 716 532 690 525 q 734 473 734 417 q 734 386 716 360 q 703 341 690 330 z m 716 360 l 736 359 q 759 359 780 373 q 801 387 804 409 l 807 415 l 808 410 q 808 389 780 361 q 752 333 690 330 l 684 330 q 665 330 644 337 q 623 344 585 371 q 547 398 526 405 q 506 412 488 412 q 430 412 407 372 l 405 369 l 404 371 q 404 386 438 415 q 473 443 531 443 q 553 443 577 436 q 601 428 642 397 q 683 365 713 361 z m 488 294 q 466 289 444 289 q 424 289 409 293 q 402 295 401 298 q 400 301 408 299 q 428 294 445 294 q 468 294 488 299 q 507 303 526 315 q 550 330 567 354 l 569 356 l 571 355 q 548 325 527 311 q 507 298 488 294 z m 409 293 q 412 276 412 259 q 412 247 410 228 q 410 223 409 220 q 403 181 389 147 l 387 143 q 383 134 373 116 q 362 97 339 72 q 316 48 291 33 l 286 30 q 259 16 235 10 l 222 7 q 205 5 196 5 q 165 5 145 21 q 124 37 124 58 q 124 72 134 81 q 144 91 160 91 q 172 91 181 83 q 189 76 189 63 q 189 52 182 45 q 175 38 166 38 q 152 38 147 46 q 147 30 162 20 q 177 10 197 10 q 206 10 223 12 l 235 15 q 257 19 281 32 l 286 35 q 312 50 334 76 q 352 97 361 125 l 366 141 l 367 146 q 375 175 375 204 q 375 218 374 225 q 374 229 373 233 q 366 306 327 351 q 288 395 227 397 l 222 397 q 170 396 143 371 q 115 346 115 313 q 115 306 109 306 q 104 306 104 314 q 104 361 138 398 q 171 435 225 441 l 230 442 l 240 442 q 276 442 308 427 l 311 426 q 390 387 408 299 z m 527 311 q 530 292 546 276 q 562 260 565 256 l 568 253 q 583 231 583 204 q 583 169 565 144 q 546 119 541 119 l 539 122 q 547 137 547 151 q 547 167 542 183 q 536 199 512 229 l 508 234 q 488 262 488 294 l 488 299 q 491 341 521 361 q 552 382 563 382 l 565 380 l 560 377 q 525 359 525 329 q 525 319 526 315 z m 221 175 q 252 186 271 203 q 290 219 290 234 q 290 246 276 246 q 261 246 244 225 q 228 204 221 175 z m 802 98 q 779 143 736 166 q 739 111 802 98 z m 743 14 q 739 -27 714 -49 q 689 -71 651 -71 q 629 -71 611 -65 q 608 -110 566 -141 q 593 -143 609 -143 q 690 -143 756 -98 q 821 -53 821 20 q 821 59 805 92 q 773 97 753 118 q 733 139 732 168 q 715 175 692 180 q 669 186 647 181 q 637 179 620 174 q 620 180 647 185 q 662 188 692 184 q 714 181 732 172 q 734 198 750 214 q 766 230 787 230 q 809 230 824 217 q 840 205 840 182 q 839 173 839 170 q 839 147 857 147 q 865 147 870 154 l 872 152 q 872 149 868 146 q 863 142 857 142 q 844 142 835 156 q 826 169 826 182 q 826 201 816 213 q 806 225 787 225 q 768 225 753 210 q 737 195 736 170 q 784 148 810 97 q 813 96 821 96 q 859 96 887 126 q 915 156 915 203 q 915 258 871 294 q 808 249 728 249 q 716 249 697 251 q 683 252 666 257 q 634 265 605 282 q 592 267 568 253 q 544 239 512 229 q 476 218 445 218 q 420 218 409 220 l 374 225 q 306 240 266 282 q 240 235 183 235 q 149 235 127 258 q 104 280 104 314 q 104 321 109 321 q 115 321 115 313 q 115 282 135 261 q 155 240 184 240 q 238 240 263 285 q 225 332 222 397 q 221 418 225 441 q 232 482 256 517 q 241 520 222 520 q 140 520 79 466 q 19 411 19 331 q 19 259 61 213 q 102 166 173 166 q 188 166 208 171 q 217 203 238 226 q 259 249 276 249 q 295 249 295 233 q 295 218 274 200 q 253 182 220 170 q 218 158 218 153 q 218 101 241 70 q 262 104 297 124 q 316 135 342 141 q 357 145 367 146 q 374 147 389 147 l 394 147 q 415 147 415 144 l 398 143 l 387 143 q 379 143 366 141 l 346 138 q 321 134 298 120 q 263 99 247 62 q 264 44 286 35 l 291 33 q 321 20 360 21 l 383 22 q 398 22 413 29 q 435 38 458 58 l 459 55 q 434 34 412 26 q 399 21 384 19 q 369 17 360 17 q 320 17 286 30 l 281 32 q 261 41 244 56 q 239 43 235 15 l 235 10 q 234 3 234 -10 q 234 -76 289 -125 q 344 -174 432 -174 q 496 -174 547 -148 q 410 -120 389 -7 q 380 43 406 79 q 417 94 422 93 q 412 81 408 75 q 387 42 394 -3 q 413 -121 560 -140 q 604 -110 607 -64 q 569 -50 569 -27 q 569 -11 583 -11 q 595 -11 602 -24 q 610 -36 611 -58 q 629 -63 651 -63 q 730 -63 739 11 q 741 32 739 47 q 733 81 704 97 q 680 110 649 108 q 643 107 626 105 q 626 110 648 112 q 679 115 702 103 q 737 85 743 44 q 745 31 743 14 z m 408 75 q 415 62 415 45 q 415 39 413 29 l 412 26 q 406 8 394 -3 l 389 -7 q 376 -17 370 -17 l 368 -14 l 372 -10 q 384 -1 384 13 l 384 19 l 383 22 q 379 40 339 72 l 334 76 q 303 101 298 120 l 297 124 l 296 135 q 296 172 314 191 q 332 211 340 211 l 342 209 l 340 207 q 323 197 323 176 q 323 159 342 141 l 346 138 q 356 130 361 125 l 373 116 q 396 99 406 79 z m 487 176 q 487 163 493 150 q 500 137 525 117 q 550 98 556 83 q 563 68 563 53 q 563 23 534 4 q 505 -16 496 -16 l 494 -13 l 500 -8 q 524 5 524 23 q 524 35 518 47 q 513 59 490 78 q 466 97 460 110 q 454 124 454 137 q 454 175 474 193 q 493 212 505 212 l 507 210 l 504 208 q 487 195 487 176 z m 739 11 q 707 -9 695 -34 l 692 -38 l 691 -35 q 691 -27 700 -16 q 709 -4 709 -2 l 705 1 q 659 30 649 108 l 648 112 q 646 136 646 153 q 646 173 647 181 l 647 185 q 651 224 666 257 l 667 260 q 685 294 705 311 q 725 328 730 328 l 732 327 l 727 319 q 706 295 698 255 l 697 251 q 692 221 692 184 l 692 180 q 692 135 702 103 l 704 97 q 716 65 739 47 q 741 45 743 44 q 754 38 765 38 q 770 38 789 54 l 790 52 q 790 46 743 14 z m 607 -57 q 606 -41 598 -29 q 590 -17 582 -17 q 576 -17 576 -25 q 576 -45 607 -57 z"},"g":{"x_min":0,"x_max":214,"ha":214,"o":"m 136 52 q 136 47 121 34 q 106 20 67 -17 q 64 -17 64 -14 l 72 -3 l 67 1 q 16 37 16 103 q 16 131 32 159 q 47 188 91 219 q 135 251 151 269 l 153 266 q 133 245 133 242 q 133 240 154 225 q 175 210 200 203 q 200 201 192 198 q 171 190 171 172 l 171 78 q 171 60 189 40 q 208 20 212 7 q 217 -7 217 -20 q 217 -69 180 -104 q 144 -140 95 -140 q 66 -140 46 -126 q 26 -113 26 -91 q 26 -76 35 -66 q 45 -57 59 -57 q 73 -57 83 -66 q 92 -75 92 -88 q 92 -98 85 -105 q 78 -112 68 -112 q 58 -112 45 -107 q 45 -132 94 -132 q 133 -132 162 -108 q 191 -85 191 -49 q 191 -34 186 -20 q 180 -5 162 11 q 144 27 140 35 q 136 43 136 52 z m 133 60 l 133 188 q 133 191 118 201 q 103 212 100 212 q 94 212 76 185 q 58 158 58 113 q 58 76 73 57 q 89 37 108 37 q 117 37 125 45 q 133 53 133 60 z"},"j":{"x_min":0,"x_max":138,"ha":138,"o":"m 48 380 q 58 380 66 372 q 74 365 74 355 q 74 345 66 337 q 59 329 49 329 q 40 329 32 337 q 24 345 24 355 q 24 365 31 372 q 39 380 48 380 z m 86 75 q 86 57 91 49 q 96 40 107 31 q 119 22 125 10 q 131 -1 131 -27 q 131 -73 102 -107 q 73 -141 38 -141 q 20 -141 6 -129 q -9 -116 -9 -102 q -9 -87 -1 -77 q 7 -68 19 -68 q 30 -68 39 -76 q 48 -84 48 -95 q 48 -104 42 -111 q 36 -118 28 -118 q 20 -118 6 -114 q 6 -120 15 -127 q 24 -134 37 -134 q 64 -134 87 -112 q 109 -90 109 -59 q 109 -37 101 -24 q 93 -11 78 3 q 63 17 56 28 q 49 39 49 57 l 49 172 q 49 179 39 188 q 30 197 26 197 q 14 197 4 178 l 0 175 q -2 175 -2 179 q -2 183 12 195 q 25 208 38 215 q 51 223 80 256 l 83 254 l 82 252 q 65 236 65 229 q 65 226 76 215 q 88 204 110 198 q 86 186 86 175 z"},"i":{"x_min":0,"x_max":122,"ha":122,"o":"m 47 379 q 57 379 65 371 q 73 364 73 354 q 73 344 66 337 q 59 329 49 329 q 39 329 31 337 q 23 344 23 354 q 23 364 30 371 q 38 379 47 379 z m 77 64 q 77 52 85 42 q 94 31 103 31 q 114 31 124 40 l 126 37 q 126 34 106 19 q 86 4 53 -26 l 51 -24 q 51 -20 57 -15 q 63 -10 63 -5 l 57 3 q 40 21 40 39 l 40 176 q 40 183 31 190 q 21 197 17 197 q 14 197 1 188 l -1 192 q 52 232 68 252 l 71 255 q 74 255 74 252 q 74 249 56 228 q 56 223 69 214 q 82 205 97 199 q 77 190 77 179 z"},"y":{"x_min":0,"x_max":224,"ha":224,"o":"m 79 157 q 105 193 129 215 q 152 236 173 263 l 175 260 l 156 233 q 156 228 164 221 q 171 215 183 215 q 196 215 216 227 q 219 227 219 224 l 192 197 q 170 175 146 175 q 134 175 114 189 q 89 163 79 146 l 79 69 q 79 51 91 41 q 102 31 120 31 q 132 31 148 46 q 139 74 139 95 q 139 127 161 157 q 182 187 187 187 q 190 187 190 184 l 187 179 q 173 161 173 146 q 173 129 186 95 q 198 60 198 35 q 198 -7 176 -48 q 154 -88 123 -114 q 92 -140 77 -140 q 47 -140 32 -128 q 17 -115 17 -94 q 17 -79 27 -69 q 36 -60 50 -60 q 63 -60 71 -68 q 79 -76 79 -88 q 79 -98 72 -105 q 64 -112 55 -112 q 39 -112 34 -108 q 34 -117 45 -124 q 56 -132 81 -132 q 100 -132 129 -97 q 158 -62 158 -7 q 158 11 150 38 q 142 32 113 16 q 84 0 70 -19 l 66 -22 q 62 -22 62 -10 q 62 -2 46 9 q 31 20 24 20 q 18 20 6 18 l 2 20 q 2 23 13 26 q 42 35 42 55 l 42 164 q 42 178 34 187 q 25 196 22 196 q 17 196 1 178 l -1 181 q -1 188 40 223 q 58 239 68 259 l 71 257 q 71 253 63 242 q 55 230 55 228 l 60 225 q 79 213 79 192 z"},"@":{"x_min":0,"x_max":381,"ha":381,"o":"m 211 55 q 196 34 161 9 q 132 -12 118 -34 l 115 -37 q 113 -37 113 -34 q 113 -30 123 -18 q 134 -6 134 -1 l 128 6 q 98 38 98 89 q 98 157 175 219 q 198 238 221 267 l 223 265 q 223 262 204 238 q 251 202 267 201 q 273 201 273 198 q 247 184 247 175 l 247 81 q 247 52 258 38 q 269 23 279 23 q 289 23 304 50 q 320 77 320 126 q 320 195 281 242 q 241 289 173 289 q 156 289 124 265 q 92 242 70 203 q 48 165 48 120 q 48 29 90 -20 q 132 -69 203 -69 q 224 -69 250 -52 q 276 -35 318 8 q 322 8 322 3 l 321 0 l 302 -18 q 246 -72 221 -86 q 196 -100 177 -100 q 114 -100 65 -50 q 16 0 16 76 q 16 129 47 185 q 78 240 125 276 q 172 312 210 312 q 274 312 314 264 q 354 215 354 156 q 354 123 328 73 q 302 22 270 -1 q 260 -8 228 -31 l 227 -29 q 227 -25 248 -6 l 240 1 q 211 21 211 55 z m 210 67 l 210 178 q 210 185 195 196 q 179 207 174 207 q 168 207 154 178 q 139 150 139 109 q 139 76 151 57 q 162 37 178 37 q 194 37 210 67 z"},".":{"x_min":0,"x_max":108,"ha":108,"o":"m 54 49 q 65 49 73 41 q 81 33 81 22 q 81 11 73 3 q 65 -5 54 -5 q 43 -5 35 3 q 27 11 27 22 q 27 33 35 41 q 43 49 54 49 z"},"p":{"x_min":0,"x_max":227,"ha":227,"o":"m 77 168 q 136 215 166 255 l 171 260 l 173 258 q 173 253 167 247 q 161 240 161 238 q 161 233 171 225 q 181 217 193 217 q 200 217 220 229 l 222 227 q 222 224 195 204 q 167 184 160 184 q 143 184 129 203 q 84 165 77 158 l 77 40 q 92 45 106 45 q 130 45 147 30 l 151 28 q 154 28 163 41 q 172 53 172 68 q 172 81 164 106 q 156 131 156 143 q 156 171 197 199 q 202 202 206 204 l 208 202 q 193 189 193 176 q 193 163 200 138 q 207 114 207 101 q 207 84 196 66 q 185 48 151 20 q 116 -7 105 -21 l 103 -18 q 103 -16 107 -11 q 111 -7 111 -4 q 111 3 103 11 q 96 20 77 21 l 77 -72 q 77 -92 82 -97 q 86 -103 93 -103 l 96 -104 l 91 -109 q 54 -131 36 -158 l 31 -162 l 29 -160 q 29 -158 32 -154 q 40 -143 40 -119 l 40 15 q 21 9 -5 -13 q -8 -13 -8 -10 q 20 14 40 25 l 40 175 q 40 188 30 197 q 21 206 15 206 q 7 206 0 198 q -8 190 -10 188 l -15 192 q -7 201 12 217 q 32 232 66 264 l 68 262 q 68 259 48 238 l 55 231 q 77 215 77 194 z"},"X":{"x_min":0,"x_max":691,"ha":691,"o":"m 642 491 q 642 513 633 534 q 616 536 606 536 q 579 536 558 529 q 565 520 565 514 l 564 512 q 558 523 555 529 q 483 507 448 427 l 446 422 l 444 425 q 444 434 471 474 q 499 513 552 533 q 517 585 447 585 q 406 585 372 564 q 337 543 326 508 q 370 480 370 443 q 370 420 353 420 q 339 420 329 439 q 318 458 318 480 q 318 488 320 500 q 268 532 194 532 q 179 532 158 530 q 141 495 141 452 q 141 436 146 414 q 152 389 168 365 q 212 301 297 301 q 303 301 315 303 q 318 303 318 300 q 318 297 290 297 q 251 297 218 315 q 184 333 162 366 q 146 390 141 414 q 136 436 136 455 q 136 495 151 529 q 86 519 52 483 q 17 447 17 394 q 17 331 65 295 q 113 260 177 260 q 228 260 256 279 l 258 280 l 260 279 q 260 275 236 265 q 213 255 176 255 q 105 255 56 289 q 7 323 7 383 q 7 441 46 482 q 84 523 153 535 q 184 598 250 633 q 316 669 400 669 q 480 669 543 634 q 606 598 635 540 q 699 530 737 486 q 776 441 776 381 q 776 330 741 293 q 707 256 658 256 q 624 256 595 276 q 567 295 567 322 q 567 339 578 339 q 588 339 588 327 q 588 322 582 319 q 575 316 575 312 q 575 296 598 280 q 621 263 651 263 q 704 263 733 300 q 762 336 762 397 q 762 446 729 485 q 695 523 638 533 q 647 512 647 491 q 647 483 645 483 q 642 483 642 491 z m 643 459 q 631 416 601 388 q 571 361 535 361 q 500 361 473 384 l 469 387 q 417 355 405 256 l 405 251 q 404 248 404 240 q 403 232 403 229 l 413 229 q 454 229 471 242 l 476 246 l 480 250 q 483 250 483 246 q 482 243 481 240 q 463 204 412 204 l 403 204 q 406 128 440 85 q 474 41 502 41 q 539 41 568 69 l 572 73 l 573 71 q 573 65 553 49 q 533 33 507 19 q 480 4 462 -22 l 460 -20 q 460 -16 468 -3 l 462 1 q 377 45 376 159 q 339 82 273 34 q 208 -14 199 -32 q 199 -25 224 1 q 224 9 200 35 q 175 60 147 60 q 130 60 115 57 l 105 55 q 69 45 50 20 q 31 -6 31 -39 q 31 -48 26 -48 q 22 -48 22 -42 q 22 -4 45 29 q 67 62 107 79 l 118 83 q 142 92 171 92 q 198 92 222 83 q 246 75 274 44 q 283 44 322 86 q 360 129 364 206 l 348 206 q 296 206 275 184 l 272 181 l 270 185 q 270 194 290 213 q 310 232 346 232 l 362 232 q 362 237 359 251 l 359 256 q 335 363 248 364 l 182 365 l 168 365 l 162 366 q 114 372 89 399 q 64 426 64 458 q 64 460 67 467 l 68 463 q 80 417 141 414 l 146 414 q 172 414 200 417 q 229 421 242 421 q 300 421 339 386 q 378 351 390 282 q 412 359 485 412 q 521 437 538 466 l 540 470 l 542 468 q 542 462 530 447 q 518 433 518 430 q 518 422 536 414 q 555 406 572 406 q 593 406 612 420 q 631 435 638 461 l 639 465 q 642 477 642 491 q 642 499 645 499 q 647 499 647 491 q 647 477 644 463 z m 638 461 q 625 466 612 466 l 597 467 q 597 470 611 470 q 628 470 639 465 l 644 463 q 649 461 661 454 l 664 454 q 670 454 670 447 q 677 440 678 438 l 681 439 q 689 439 689 431 q 689 428 686 426 l 692 413 q 698 413 698 407 q 698 402 694 401 q 695 398 695 392 q 695 368 682 350 q 669 332 650 332 q 641 332 634 336 q 627 339 627 345 q 627 352 631 352 q 635 352 635 345 q 635 336 650 336 q 667 336 679 353 q 691 370 691 391 q 691 398 690 401 q 685 401 685 407 q 685 410 687 412 q 686 416 681 424 q 673 424 673 431 l 674 435 q 672 438 667 443 l 663 442 q 657 442 657 450 q 651 456 643 459 z m 471 242 q 439 250 405 251 q 381 252 359 251 q 259 247 195 202 q 131 157 118 83 q 115 66 115 57 l 115 50 q 115 0 147 -34 q 180 -68 229 -68 q 253 -68 269 -59 q 284 -50 284 -40 q 284 -31 289 -31 q 293 -31 293 -37 q 293 -48 270 -62 q 247 -77 221 -77 q 171 -77 138 -40 q 105 -3 105 50 l 105 55 q 105 67 107 79 q 120 155 188 203 q 257 250 359 256 q 377 257 405 256 q 445 254 476 246 l 483 244 q 583 218 642 150 q 700 83 700 1 q 700 -61 664 -110 q 627 -160 565 -188 q 502 -216 442 -216 q 415 -216 386 -213 q 392 -225 392 -240 q 392 -271 368 -291 q 345 -312 312 -312 q 268 -312 243 -288 q 219 -264 219 -251 l 220 -248 l 222 -251 q 244 -305 314 -305 q 344 -305 366 -286 q 388 -267 388 -240 q 388 -224 382 -212 q 327 -203 327 -186 q 327 -177 341 -177 q 366 -177 383 -206 q 417 -210 441 -210 q 536 -210 610 -151 q 684 -92 684 5 q 684 86 630 150 q 577 214 481 240 z m 31 -39 q 31 -93 75 -123 q 119 -154 196 -154 q 294 -154 348 -94 q 320 -61 320 -19 q 320 -1 327 9 q 334 18 345 18 q 359 18 368 6 q 377 -6 377 -29 q 377 -62 355 -92 q 390 -124 457 -124 q 520 -124 565 -87 q 610 -51 610 6 q 610 53 578 86 q 546 120 503 120 l 487 121 q 487 124 500 124 q 547 124 581 90 q 614 55 614 3 q 614 -56 566 -96 q 519 -137 457 -137 q 429 -137 400 -127 q 372 -116 351 -97 q 297 -159 192 -159 q 116 -159 69 -127 q 22 -95 22 -42 q 22 -33 26 -33 q 31 -33 31 -39 z m 629 540 q 603 592 541 624 q 479 656 403 656 q 324 656 258 625 q 191 593 161 536 q 182 538 195 538 q 273 538 323 510 q 335 547 372 569 q 409 591 452 591 q 522 591 556 534 q 582 542 609 542 q 617 542 629 540 z m 362 437 q 362 471 324 498 q 322 486 322 480 q 322 458 332 441 q 342 425 353 425 q 362 425 362 437 z m 352 -89 q 372 -59 372 -30 q 372 -10 364 1 q 356 13 344 13 q 336 13 330 5 q 323 -2 323 -18 q 323 -62 352 -89 z m 378 -205 q 363 -182 339 -182 q 332 -182 332 -188 q 332 -198 378 -205 z"},"*":{"x_min":0,"x_max":111,"ha":111,"o":"m 84 430 q 88 430 99 438 l 102 435 l 97 431 q 83 417 73 411 q 62 404 53 393 q 48 393 48 397 l 60 410 q 60 419 34 443 l 20 395 q 19 392 15 392 q 6 392 8 398 l 23 450 l -29 433 q -36 433 -36 440 l -34 444 l 16 462 q -9 489 -16 489 q -23 489 -31 479 q -35 479 -35 483 q -18 495 15 526 q 19 526 17 523 q 16 520 8 508 q 12 499 31 477 l 45 523 q 46 526 50 526 q 54 526 56 524 q 59 522 58 519 l 43 470 l 82 484 l 85 485 l 89 483 q 93 480 93 477 q 93 474 90 473 l 50 459 q 80 429 84 430 z"},"Y":{"x_min":0,"x_max":732,"ha":732,"o":"m 567 153 q 577 135 580 125 l 582 119 q 587 101 587 84 q 587 46 577 14 l 575 8 q 553 -58 478 -100 q 420 -138 359 -138 q 342 -138 323 -133 q 303 -128 274 -113 q 246 -97 236 -93 l 228 -89 q 193 -75 157 -75 q 148 -75 134 -77 q 130 -78 124 -80 q 105 -87 95 -103 q 85 -118 85 -135 q 85 -142 83 -142 q 80 -142 80 -134 q 80 -103 112 -75 l 118 -71 q 161 -41 215 -41 q 267 -41 319 -71 l 324 -74 q 382 -108 425 -108 q 470 -108 504 -72 q 539 -36 540 31 l 540 37 q 539 79 513 121 l 509 126 q 493 150 483 171 l 480 177 q 467 211 467 243 q 467 280 484 308 q 501 336 523 351 q 545 365 549 365 l 550 363 l 546 360 q 502 333 502 292 q 502 273 509 252 q 516 231 537 200 q 558 169 563 159 z m 619 497 q 619 567 543 625 q 467 683 362 683 q 256 683 184 621 q 111 558 111 472 q 111 458 112 451 l 120 397 q 135 338 176 302 q 232 323 297 323 l 347 323 q 362 323 383 319 q 386 347 395 361 q 403 376 406 376 l 407 374 l 405 372 q 390 352 387 318 l 397 315 q 411 312 416 310 l 416 410 q 416 416 418 416 q 421 416 421 410 l 421 308 q 427 306 429 304 q 451 324 464 356 l 467 361 l 468 358 q 468 354 459 337 q 451 320 433 302 q 456 292 456 287 l 454 286 q 440 294 430 299 l 421 291 l 421 214 q 446 190 480 177 q 508 166 563 159 q 571 158 590 158 q 658 158 698 191 q 737 223 737 276 q 737 313 712 339 q 687 365 647 365 q 611 365 584 345 q 558 324 558 293 q 558 272 574 258 q 589 244 612 244 q 634 244 649 256 q 664 268 664 283 q 664 293 657 299 q 650 305 639 305 q 621 305 621 294 q 624 286 624 282 q 624 274 616 274 q 609 274 609 285 q 609 293 618 301 q 627 309 640 309 q 653 309 661 301 q 669 293 669 283 q 669 266 652 253 q 636 240 611 240 q 587 240 571 256 q 554 271 554 294 q 554 325 581 347 q 608 370 647 370 q 692 370 721 342 q 750 313 750 272 q 750 218 706 185 q 661 152 593 152 q 575 152 567 153 q 514 159 483 171 q 447 185 421 209 l 421 140 q 434 119 438 97 q 466 120 509 126 q 554 132 580 125 q 635 110 667 63 q 700 16 700 -43 q 700 -141 623 -209 q 546 -278 441 -278 q 387 -278 344 -259 q 312 -289 258 -289 q 210 -289 178 -266 q 145 -243 144 -202 q 115 -198 98 -179 q 80 -161 80 -134 q 80 -126 83 -126 q 85 -126 85 -135 q 85 -160 101 -178 q 117 -195 144 -199 q 145 -184 154 -175 q 162 -166 173 -166 q 190 -166 190 -181 q 190 -190 179 -197 q 168 -203 155 -203 l 149 -203 q 149 -238 184 -261 q 219 -283 261 -283 q 309 -283 340 -257 q 322 -249 302 -231 l 304 -229 l 306 -230 q 322 -246 343 -255 q 358 -241 366 -227 q 373 -213 373 -209 q 373 -207 376 -207 q 376 -211 369 -227 q 362 -242 347 -257 q 391 -273 444 -273 q 540 -273 613 -210 q 686 -147 686 -33 q 686 22 659 64 q 632 105 582 119 q 555 126 513 121 q 470 115 439 91 l 440 74 q 440 13 391 -32 q 397 -72 419 -72 q 421 -72 424 -68 q 426 -64 433 -64 q 444 -64 444 -73 q 444 -84 431 -84 q 414 -84 402 -71 q 391 -58 387 -36 q 359 -61 324 -74 l 236 -93 q 230 -94 218 -94 q 166 -94 124 -80 l 112 -75 q 60 -54 32 -12 q 5 30 5 87 q 5 148 49 208 q 93 269 171 300 q 131 336 115 397 l 107 451 q 106 458 106 472 q 106 559 180 626 q 253 693 357 693 q 467 693 546 630 q 624 567 624 498 q 624 490 622 490 q 619 490 619 497 z m 624 498 q 624 456 593 423 q 562 389 512 389 q 487 389 456 409 q 424 428 397 428 q 357 428 332 384 l 328 379 l 326 381 q 326 385 342 409 q 358 433 385 451 q 413 469 444 469 q 464 469 478 464 q 491 458 506 447 q 522 437 534 431 q 546 426 564 426 q 587 426 603 448 q 619 469 619 497 q 619 505 622 505 q 624 505 624 498 z m 540 31 q 532 33 529 33 q 509 33 509 20 q 509 7 499 7 q 491 7 491 16 q 491 26 501 33 q 511 39 529 39 q 532 39 540 37 q 562 32 577 14 q 602 -15 602 -44 q 602 -101 562 -141 l 563 -145 q 563 -152 555 -152 q 553 -152 551 -151 q 550 -153 547 -155 l 547 -157 q 547 -163 540 -163 l 536 -162 l 533 -166 q 533 -172 526 -172 q 523 -172 521 -170 q 488 -185 453 -185 q 447 -185 436 -180 q 449 -182 455 -182 q 490 -182 520 -166 q 520 -159 527 -159 q 529 -159 531 -161 l 534 -157 q 534 -150 541 -150 l 545 -151 l 548 -148 l 547 -145 q 547 -137 555 -137 l 559 -138 l 564 -133 l 561 -132 q 559 -131 559 -128 q 559 -126 563 -117 q 568 -108 571 -108 l 574 -109 l 576 -113 l 574 -120 q 598 -86 598 -45 q 598 -17 575 8 q 560 24 540 31 z m 285 421 q 324 428 351 453 q 378 479 378 502 q 378 516 370 526 q 361 536 352 536 q 345 536 340 532 q 335 528 335 525 l 337 519 q 337 512 331 512 q 325 512 325 521 q 325 529 333 534 q 340 540 352 540 q 366 540 375 530 q 383 519 383 503 q 383 479 356 452 q 329 426 289 418 q 233 406 213 453 q 207 466 207 485 q 207 524 251 557 l 251 560 q 251 566 258 566 l 263 567 q 263 573 270 573 l 275 573 q 275 581 283 581 l 288 579 q 304 587 320 590 q 317 595 312 595 q 308 595 293 591 q 290 591 290 594 q 290 597 294 596 q 298 596 307 600 q 315 604 320 604 q 334 604 337 594 l 340 594 q 342 602 350 602 q 357 602 359 596 l 362 596 q 364 601 369 601 q 374 601 376 596 l 379 596 q 380 599 385 599 q 390 599 390 595 q 438 588 469 566 q 500 545 514 523 q 529 501 529 497 l 527 494 l 525 498 q 484 578 391 590 q 390 586 384 586 q 378 586 376 591 q 374 586 369 586 q 363 586 360 591 q 357 583 350 583 q 342 583 338 589 q 339 581 335 575 q 331 570 323 569 q 315 568 302 562 l 301 564 q 301 569 311 572 q 321 575 321 582 l 321 586 q 301 580 291 573 q 291 566 283 566 q 281 566 276 567 q 276 560 269 560 l 264 560 q 264 553 257 553 l 253 554 q 211 522 211 485 q 211 468 218 452 q 235 412 285 421 z m 289 418 q 329 385 347 323 l 348 319 q 355 291 355 267 l 355 260 q 354 228 341 193 l 340 188 q 334 172 321 150 q 377 129 377 89 q 377 62 362 43 q 346 24 341 24 l 339 26 q 350 43 350 52 q 350 63 343 73 q 335 82 314 91 q 292 99 286 102 q 231 40 155 40 l 144 40 l 138 41 q 110 45 95 60 q 80 75 80 95 q 80 112 91 124 q 102 136 118 136 q 138 136 148 119 q 149 117 151 113 q 152 110 152 105 q 152 89 140 80 q 136 77 133 76 q 125 74 121 74 q 115 74 106 78 q 97 82 95 88 q 95 55 136 47 l 142 46 q 146 45 156 45 q 228 45 278 105 q 238 127 238 171 q 238 179 239 182 l 240 187 q 246 205 258 217 q 269 228 273 228 l 276 226 q 262 209 262 194 l 263 189 q 267 169 308 155 q 316 174 319 192 l 319 197 q 320 201 320 210 q 320 232 317 255 l 316 260 q 312 291 299 319 l 297 323 q 259 398 166 398 q 152 398 146 397 q 141 397 120 397 l 102 397 q 62 397 34 423 q 5 450 5 485 q 5 504 10 518 q 15 531 17 531 l 19 527 q 15 520 15 505 q 15 482 35 467 q 54 451 91 451 l 112 451 q 118 452 135 454 q 152 456 173 456 q 193 456 213 453 l 218 452 q 256 443 285 421 z m 299 319 q 232 319 180 298 q 228 260 298 260 l 316 260 q 335 261 355 266 q 372 269 384 275 q 382 291 382 299 l 382 315 q 371 317 348 319 z m 317 255 l 302 255 q 226 255 175 296 q 101 266 59 208 q 18 151 18 84 q 18 35 44 -7 q 70 -49 118 -71 q 128 -75 134 -77 q 173 -90 217 -90 q 224 -90 228 -89 l 319 -71 q 359 -55 386 -31 l 385 -17 q 385 38 416 76 l 416 137 q 391 175 340 188 q 333 190 319 192 q 312 193 299 193 q 279 193 263 189 q 246 185 239 182 q 179 161 151 113 q 146 105 140 80 q 139 76 139 69 q 139 56 142 46 l 144 40 q 162 3 214 3 q 242 3 264 17 q 286 31 286 42 l 283 52 q 283 61 292 61 q 300 61 300 51 q 300 36 274 18 q 248 -1 216 -1 q 155 -1 138 41 l 136 47 q 133 58 133 71 l 133 76 q 133 97 148 119 q 180 166 240 187 q 256 193 262 194 q 286 198 299 198 q 313 198 319 197 l 341 193 q 390 181 416 147 l 416 214 q 393 238 385 270 q 375 265 355 260 q 337 255 317 255 z m 432 93 q 429 115 421 128 l 421 82 q 428 90 432 93 z m 587 -94 q 595 -94 595 -102 q 595 -109 587 -109 q 579 -109 579 -102 q 579 -94 587 -94 z m 589 -120 q 589 -122 584 -131 q 579 -141 576 -141 q 571 -141 571 -135 q 571 -133 576 -125 q 581 -116 584 -116 q 589 -116 589 -120 z m 391 -26 q 434 16 434 75 q 434 83 433 87 l 421 75 l 421 68 q 421 63 418 63 q 416 63 416 69 q 390 34 390 -12 q 390 -22 391 -26 z m 600 -56 q 593 -56 593 -62 q 593 -69 599 -69 q 606 -69 606 -62 q 606 -56 600 -56 z m 595 -75 q 588 -75 588 -81 q 588 -88 594 -88 q 601 -88 601 -81 q 601 -75 595 -75 z m 149 -200 l 155 -200 q 167 -200 176 -195 q 185 -189 185 -183 q 185 -171 172 -171 q 166 -171 158 -179 q 150 -187 149 -200 z m 416 293 l 416 306 q 402 312 387 314 q 386 310 386 297 q 386 289 388 277 q 401 282 416 293 z m 426 301 l 421 304 l 421 297 z m 416 219 l 416 287 q 398 275 389 272 q 395 242 416 219 z"},"c":{"x_min":0,"x_max":161,"ha":161,"o":"m 158 229 q 161 229 161 226 q 161 222 142 203 q 124 184 111 184 q 97 184 76 204 q 70 204 62 183 q 53 162 53 117 q 53 83 71 60 q 88 37 111 37 q 123 37 147 64 l 149 60 q 149 56 129 37 q 109 18 92 7 q 75 -3 61 -23 l 59 -20 l 71 -1 l 66 2 q 16 33 16 98 q 16 161 80 224 q 96 240 120 270 l 122 267 l 104 241 q 126 221 138 221 q 148 221 158 229 z"},"!":{"x_min":0,"x_max":110,"ha":110,"o":"m 98 423 l 103 419 q 92 400 89 390 q 85 379 85 351 l 86 282 q 86 190 77 145 q 68 100 33 57 q 30 53 28 50 l 27 53 l 27 56 q 42 75 45 90 q 47 104 47 227 l 46 329 q 34 322 29 316 l 27 319 l 28 322 q 51 342 70 376 q 89 409 98 423 z m 62 50 q 73 50 82 42 q 91 33 91 23 q 91 12 83 4 q 75 -5 64 -5 q 54 -5 45 4 q 37 13 37 23 q 37 34 44 42 q 52 50 62 50 z"},"/":{"x_min":0,"x_max":189,"ha":189,"o":"m 223 457 l -37 -163 l -39 -165 l -42 -163 l -42 -158 l 212 458 q 214 461 219 461 q 223 461 223 457 z"},"[":{"x_min":0,"x_max":135,"ha":135,"o":"m 29 403 q 20 397 17 394 q 14 391 11 391 q 8 391 8 393 q 8 396 27 413 q 94 473 108 490 q 123 507 128 506 q 128 498 73 443 l 73 -242 q 109 -208 113 -205 q 117 -201 121 -201 l 123 -203 q 123 -207 77 -248 q 31 -289 20 -303 q 9 -318 5 -318 l 4 -316 q 4 -311 29 -281 z"},"6":{"x_min":0,"x_max":210,"ha":210,"o":"m 73 187 q 86 204 114 228 q 141 251 148 265 l 150 262 q 150 258 138 241 l 145 235 q 200 187 200 134 q 200 111 187 85 q 173 59 140 26 q 107 -6 89 -29 l 87 -26 q 98 -9 98 -6 l 94 -2 q 33 33 33 181 q 33 271 68 338 q 104 405 150 405 q 167 405 177 393 q 188 382 188 366 q 188 354 180 346 q 173 339 161 339 q 150 339 142 346 q 135 354 135 364 q 135 372 140 377 q 146 383 154 383 q 164 383 172 379 q 172 387 166 393 q 161 399 151 399 q 109 399 91 347 q 73 294 73 187 z m 73 178 q 73 102 92 62 q 111 23 127 23 q 154 50 159 64 q 165 78 165 108 q 165 144 141 177 q 116 210 106 210 q 100 210 73 178 z"},"r":{"x_min":0,"x_max":180,"ha":180,"o":"m 84 178 q 106 203 126 219 q 146 235 157 256 l 159 253 l 152 237 q 152 234 161 228 q 170 222 177 222 q 183 222 190 229 q 193 229 193 226 q 183 212 176 201 q 168 190 160 186 q 152 181 144 181 q 134 181 114 199 q 111 199 102 190 q 93 180 84 165 l 84 58 q 84 49 96 40 q 107 31 113 31 q 116 31 133 44 l 135 41 q 135 39 112 23 q 90 7 81 -2 q 71 -11 56 -31 l 54 -28 q 54 -25 61 -17 q 67 -8 67 -5 q 67 -1 56 12 q 45 25 35 25 q 31 25 19 19 l 16 21 q 16 23 31 31 q 47 39 47 55 l 47 168 q 47 179 37 188 q 28 198 23 198 q 15 198 -3 172 q -6 172 -6 176 q -6 187 34 218 q 54 233 66 258 q 69 258 69 255 q 69 251 56 231 q 84 206 84 192 z"},"2":{"x_min":0,"x_max":180,"ha":180,"o":"m 85 242 q 112 228 130 204 q 147 180 147 152 q 147 116 90 69 q 34 23 25 23 q 25 26 31 30 q 83 67 93 87 q 104 108 104 141 q 104 167 84 187 q 63 207 56 207 q 50 207 40 200 q 15 183 12 183 q 8 183 9 188 q 58 220 88 255 l 95 262 l 97 259 q 97 250 85 242 z m 169 37 l 171 35 q 134 10 97 -31 l 95 -29 q 106 -16 106 -12 q 106 -5 95 8 q 84 22 66 22 q 36 22 0 -9 l -5 -13 l -6 -11 q -6 -6 29 19 q 63 45 93 45 q 118 45 142 29 l 147 26 q 151 26 158 31 q 166 37 169 37 z"},"{":{"x_min":0,"x_max":185,"ha":185,"o":"m 117 -211 q 66 -87 59 40 q 59 53 35 80 q 12 107 12 112 q 12 118 32 143 q 52 167 53 179 q 68 321 132 427 q 154 462 160 462 q 164 462 164 459 l 162 456 q 144 434 123 367 q 102 300 95 204 q 94 192 71 168 q 48 144 48 141 q 48 138 71 110 q 94 83 95 69 q 99 -13 119 -95 q 139 -177 149 -177 q 151 -177 157 -173 q 162 -169 166 -169 l 168 -171 l 165 -175 q 135 -197 116 -225 q 114 -228 112 -228 q 109 -228 109 -225 q 109 -222 112 -219 q 115 -215 117 -211 z"},"9":{"x_min":0,"x_max":210,"ha":210,"o":"m 149 49 q 135 32 108 8 q 82 -15 74 -29 q 72 -29 72 -26 q 72 -22 84 -5 l 77 2 q 22 54 22 102 q 22 125 35 151 q 49 177 82 209 q 115 242 133 265 l 135 262 q 124 245 124 242 l 128 239 q 189 203 189 55 q 189 -37 153 -89 q 116 -141 78 -141 q 55 -141 38 -128 q 21 -115 21 -95 q 21 -82 30 -73 q 39 -65 51 -65 q 64 -65 72 -73 q 80 -81 80 -93 q 80 -102 74 -108 q 67 -114 59 -114 q 49 -114 39 -109 q 39 -118 52 -126 q 64 -135 80 -135 q 108 -135 129 -90 q 149 -45 149 49 z m 149 60 q 149 136 130 174 q 111 212 96 212 q 89 208 79 198 q 68 188 63 175 q 57 162 57 128 q 57 92 82 59 q 106 26 116 26 q 125 26 149 60 z"}," ":{"x_min":0,"x_max":90,"ha":90,"o":""},"I":{"x_min":0,"x_max":610,"ha":610,"o":"m 327 214 q 269 184 264 122 q 288 103 288 83 q 288 66 279 66 q 270 66 263 79 q 256 92 256 110 q 256 118 257 122 q 241 132 225 136 l 224 106 l 223 101 l 221 106 l 221 137 q 210 140 199 140 l 195 140 q 194 136 188 136 q 184 136 182 139 l 175 138 q 173 132 167 132 l 161 134 l 154 132 q 156 130 156 127 q 156 119 148 119 q 140 119 138 126 l 132 123 q 132 117 125 117 l 121 118 q 92 105 68 103 q 69 70 80 45 q 88 26 93 19 q 130 -38 204 -38 q 256 -38 296 -6 l 300 -3 l 302 -5 q 302 -11 271 -27 q 240 -43 202 -43 q 128 -43 87 16 q 82 24 74 39 q 62 63 59 103 q 33 103 17 112 q 2 122 2 138 q 2 150 12 150 q 20 150 20 143 q 20 140 14 137 q 8 134 8 131 q 8 120 23 113 q 38 106 59 106 l 59 115 q 59 163 88 202 q 51 226 31 267 q 11 308 11 355 q 11 418 45 471 q 80 523 143 554 l 143 560 q 143 594 170 621 q 198 648 234 648 q 268 648 298 630 q 328 611 344 580 q 451 560 517 494 q 583 428 583 342 q 583 297 564 256 q 544 214 511 190 q 560 167 588 124 q 617 81 617 32 q 617 -34 568 -82 q 520 -129 456 -129 q 443 -129 438 -128 q 442 -139 442 -152 q 442 -192 411 -218 q 380 -244 335 -244 q 279 -244 245 -208 q 215 -217 182 -217 q 111 -217 69 -177 q 27 -137 27 -70 q 27 -65 30 -65 q 33 -65 33 -75 q 33 -134 72 -172 q 111 -210 180 -210 q 210 -210 239 -201 q 221 -178 221 -146 q 218 -147 212 -147 q 195 -147 178 -140 q 161 -134 137 -110 q 116 -88 103 -88 q 92 -88 83 -96 q 73 -105 73 -115 q 73 -127 79 -127 q 82 -127 87 -125 q 92 -125 92 -131 q 92 -136 83 -136 q 79 -136 74 -131 q 69 -125 69 -118 q 69 -104 80 -94 q 91 -84 107 -84 q 117 -84 127 -89 q 138 -93 157 -113 q 177 -132 189 -138 q 201 -143 213 -143 l 221 -143 q 223 -132 229 -124 q 235 -116 242 -116 q 250 -116 250 -124 q 250 -141 225 -145 l 225 -152 q 225 -177 243 -200 q 292 -184 321 -152 q 350 -120 350 -83 q 350 -71 347 -59 q 332 -54 324 -46 q 316 -38 316 -31 q 316 -23 323 -23 q 342 -23 350 -54 q 367 -59 389 -59 q 438 -59 475 -35 q 511 -10 511 28 q 511 56 489 79 q 467 102 440 102 q 419 102 403 88 q 387 75 387 57 q 387 28 417 28 q 426 28 432 34 q 438 40 443 40 q 449 40 449 35 q 449 30 440 26 q 431 21 420 21 q 407 21 395 30 q 383 39 383 54 q 383 76 400 91 q 418 106 441 106 q 470 106 493 81 q 516 56 516 24 q 516 -12 477 -38 q 438 -65 390 -65 q 372 -65 352 -61 q 354 -73 354 -82 q 354 -124 326 -157 q 298 -191 249 -207 q 284 -239 335 -239 q 377 -239 405 -214 q 432 -188 432 -150 q 432 -135 428 -127 q 388 -122 388 -105 q 388 -96 401 -96 q 424 -96 437 -124 q 441 -125 454 -125 q 515 -125 560 -81 q 605 -36 605 28 q 605 75 578 119 q 551 162 505 186 q 478 168 445 168 q 405 168 405 187 q 405 207 438 207 q 474 207 507 192 q 539 214 557 255 q 575 295 575 340 q 575 424 515 484 q 455 545 351 564 q 357 547 357 528 q 357 503 349 481 q 361 483 367 483 q 417 483 453 448 q 489 413 489 363 q 489 332 478 309 q 467 287 453 279 l 452 277 q 451 272 445 272 l 441 272 l 439 268 q 439 260 430 260 q 426 260 424 261 l 416 258 l 415 255 q 433 252 435 249 q 437 245 437 242 q 437 237 433 237 l 430 239 q 428 238 428 245 l 426 248 q 425 250 421 250 q 418 250 414 249 q 410 243 404 243 q 400 243 394 247 q 381 241 377 239 q 368 235 327 214 z m 377 239 q 400 197 400 163 q 400 126 370 92 q 341 58 265 19 q 226 -1 213 -20 l 211 -19 q 211 -16 221 -4 q 221 1 195 15 q 169 28 145 28 q 114 28 93 19 l 87 16 q 61 3 47 -21 q 33 -45 33 -75 q 33 -81 30 -81 q 27 -81 27 -70 q 27 -3 74 39 l 80 45 q 119 75 173 75 q 221 75 262 40 q 271 31 274 31 q 285 31 318 65 q 351 100 351 143 q 351 171 331 208 l 327 214 l 325 218 q 312 243 312 269 q 312 323 359 366 q 325 353 294 353 q 275 353 263 359 q 251 364 238 375 q 224 386 213 391 q 202 396 185 396 q 159 396 144 382 q 128 367 128 343 q 128 323 141 309 q 153 295 171 295 q 187 295 196 303 q 206 311 206 323 q 206 326 204 335 l 206 337 q 211 337 211 324 q 211 309 199 299 q 187 290 168 290 q 148 290 134 306 q 119 322 119 348 q 119 383 149 411 q 180 439 219 439 q 234 439 250 433 q 265 427 287 405 q 310 383 321 378 q 333 373 344 373 q 361 373 396 388 l 398 386 l 390 379 q 349 354 349 314 q 349 285 375 243 z m 500 188 q 471 201 442 201 q 410 201 410 188 q 410 182 420 177 q 429 172 441 172 q 473 172 500 188 z m 221 141 l 221 192 q 192 182 165 182 q 128 182 96 198 q 68 160 68 114 l 68 106 q 92 108 119 123 q 119 129 126 129 q 129 129 131 127 l 138 130 q 134 134 134 137 q 134 146 143 146 q 152 146 152 136 l 159 139 q 159 147 167 147 q 172 147 174 142 l 182 143 q 184 148 189 148 q 194 148 195 144 l 198 144 q 210 144 221 141 z m 284 80 q 284 100 264 115 q 264 101 268 86 q 272 72 278 72 q 284 72 284 80 z m 345 -53 q 338 -28 324 -28 q 321 -28 321 -33 q 321 -44 345 -53 z m 426 -123 q 417 -101 404 -101 q 394 -101 394 -107 q 394 -118 426 -123 z m 225 -142 q 245 -139 245 -126 q 245 -121 239 -121 q 230 -121 225 -142 z m 339 581 q 309 635 241 635 q 206 635 177 612 q 148 590 148 561 l 148 556 q 211 585 285 585 q 315 585 339 581 z m 375 243 l 392 251 l 393 253 q 393 258 396 261 q 399 265 404 265 q 413 271 413 275 q 413 278 411 280 q 408 281 408 285 q 408 289 412 289 q 418 289 418 280 q 418 273 410 263 l 414 261 l 421 268 q 421 276 430 276 q 436 276 438 274 l 439 278 q 439 284 445 284 l 450 283 q 452 291 463 300 q 473 310 479 321 q 484 333 484 358 q 484 405 450 439 q 416 473 369 473 q 359 473 345 471 q 329 440 311 440 q 303 440 303 449 q 303 471 343 480 q 352 505 352 528 q 352 548 346 565 q 312 571 276 571 q 207 571 150 545 q 155 525 172 507 q 185 511 202 511 q 222 511 222 500 q 222 492 203 492 q 188 492 174 500 q 129 486 101 447 q 72 408 72 361 q 72 323 88 300 q 105 276 125 276 l 134 274 l 125 272 q 104 272 86 296 q 67 321 67 364 q 67 410 94 451 q 122 492 167 506 q 150 520 145 543 q 83 514 50 464 q 16 415 16 355 q 16 309 36 269 q 56 229 92 207 q 134 260 197 260 q 209 260 221 257 l 221 286 q 221 293 225 293 q 229 293 229 286 l 228 255 q 257 246 257 228 q 257 208 227 195 l 225 141 q 242 137 258 127 q 267 189 325 218 z m 180 502 q 189 496 201 496 q 214 496 214 500 q 214 505 204 505 q 192 505 180 502 z m 338 470 q 309 465 309 451 q 309 445 314 445 q 325 445 338 470 z m 221 197 l 221 248 q 206 250 199 250 q 140 250 100 203 q 130 187 166 187 q 194 187 221 197 z m 227 200 q 253 211 253 226 q 253 241 228 247 z"},"H":{"x_min":0,"x_max":752,"ha":752,"o":"m 331 105 l 318 105 q 295 105 269 110 q 267 101 263 98 l 265 111 q 157 136 107 232 q 64 218 38 178 q 12 139 12 91 q 12 47 38 8 l 44 0 q 70 -34 111 -52 q 151 -71 197 -71 q 250 -71 288 -45 q 327 -19 345 24 l 347 22 q 347 16 329 -10 q 311 -37 276 -56 q 241 -76 196 -76 q 151 -76 110 -57 q 68 -38 40 -4 l 34 3 q 1 49 1 101 q 1 151 29 187 q 57 223 105 237 q 82 285 82 341 q 82 430 134 500 q 186 570 278 601 q 282 653 322 685 q 361 718 414 718 q 471 718 514 684 q 556 651 556 637 l 555 635 l 553 638 q 503 713 408 713 q 360 713 323 682 q 287 652 282 602 q 334 619 390 619 q 467 619 534 585 q 602 550 641 494 q 681 438 681 386 q 681 330 653 288 q 624 246 573 227 q 542 215 508 217 q 468 219 442 230 q 443 228 443 224 q 443 218 439 215 l 439 210 q 443 210 447 206 q 451 202 451 197 q 451 186 439 183 l 439 178 l 443 172 q 474 193 522 203 q 551 209 585 208 q 664 205 709 162 q 754 120 754 59 q 754 16 722 -17 q 691 -49 650 -55 q 660 -79 660 -99 q 660 -168 608 -215 q 555 -261 484 -261 q 432 -261 382 -231 q 333 -200 319 -146 q 263 -179 201 -179 q 120 -179 66 -146 q 13 -113 13 -58 q 13 -51 16 -51 q 18 -51 18 -59 q 18 -103 70 -138 q 122 -174 199 -174 q 268 -174 317 -140 q 315 -125 315 -113 q 315 -92 325 -75 q 335 -58 345 -58 q 364 -58 364 -81 q 364 -116 323 -144 q 335 -195 383 -222 q 431 -249 485 -249 q 551 -249 601 -208 q 651 -166 651 -105 q 651 -80 641 -55 q 609 -54 589 -44 q 569 -34 569 -21 q 569 -1 589 -1 q 625 -1 648 -50 q 688 -47 714 -16 q 740 14 740 55 q 740 115 701 158 q 663 201 587 203 q 553 204 525 199 q 478 191 443 167 q 443 165 440 158 q 438 152 438 144 l 438 46 q 443 42 443 32 q 443 21 431 21 q 415 21 400 38 q 385 54 385 76 q 385 126 429 162 l 428 169 q 428 175 432 178 l 432 183 q 420 186 420 197 q 420 202 424 206 q 428 210 432 210 l 432 215 q 428 218 428 224 q 428 229 431 236 l 423 242 l 418 246 q 391 269 391 305 q 391 328 403 342 q 414 357 430 357 l 433 357 l 433 399 q 433 405 436 405 q 438 405 438 396 l 438 356 q 455 352 455 337 q 455 323 438 319 l 438 249 q 438 242 440 236 q 467 224 502 222 q 538 221 570 232 q 619 249 647 287 q 675 326 675 374 q 675 467 592 534 q 510 600 386 600 q 330 600 282 585 q 285 549 308 516 q 335 529 366 529 q 393 529 414 517 q 435 505 435 487 q 435 478 422 470 q 409 462 394 462 q 337 462 303 510 q 256 486 227 442 l 229 438 q 229 432 221 432 l 219 428 l 221 424 q 221 418 214 418 l 211 411 q 215 409 215 405 q 215 398 207 398 l 204 389 q 208 387 208 382 q 208 375 200 375 l 199 367 q 206 367 206 359 q 206 352 198 350 l 198 345 q 198 333 200 316 q 203 317 204 326 q 206 334 209 334 l 211 317 q 211 310 214 301 q 218 291 218 288 q 218 280 212 277 l 218 269 q 227 269 227 260 q 227 257 224 254 q 227 248 229 246 l 232 247 q 235 247 238 244 q 241 241 241 238 q 241 235 238 232 l 244 226 q 252 226 252 218 q 252 215 250 213 l 255 207 q 261 207 261 201 q 261 198 258 196 q 272 170 272 136 q 272 127 270 114 q 298 109 323 109 l 332 109 l 339 107 z m 433 319 q 424 319 424 331 q 424 340 433 340 l 433 354 l 430 354 q 414 354 404 339 q 394 325 394 308 q 394 271 422 248 l 426 245 l 432 240 q 433 243 433 249 z m 433 47 l 433 144 q 433 152 431 158 q 389 124 389 75 q 389 56 400 42 q 412 29 416 29 q 419 29 419 38 q 419 47 433 47 z m 639 -50 q 616 -7 587 -7 q 576 -7 576 -18 q 576 -31 593 -40 q 610 -49 639 -50 z m 321 -137 q 356 -110 356 -82 q 356 -64 344 -64 q 337 -64 328 -78 q 319 -93 319 -112 q 319 -121 321 -137 z m 301 513 q 281 542 278 584 q 190 556 141 491 q 93 426 93 340 q 93 284 113 239 q 128 242 142 242 q 175 242 198 224 q 222 206 222 184 q 222 174 216 174 q 211 174 211 186 q 211 209 190 223 q 169 237 141 237 q 127 237 115 234 q 157 140 266 115 q 268 126 268 137 q 268 169 254 195 q 248 195 248 201 l 250 205 q 248 209 244 211 q 236 211 236 218 q 236 221 239 223 l 232 230 q 229 230 226 233 q 223 235 223 238 q 223 240 225 244 l 219 252 q 209 252 209 260 q 209 264 212 267 q 211 270 208 275 l 205 275 q 195 275 192 289 q 188 302 179 321 l 183 323 q 187 323 189 320 q 191 316 196 316 q 194 334 194 347 l 194 350 q 187 354 187 359 q 187 366 195 368 l 196 376 q 192 378 192 382 q 192 385 194 387 q 197 390 199 390 l 202 399 q 199 402 199 405 q 199 413 207 413 l 210 419 q 208 421 208 424 q 208 430 216 430 l 218 433 q 216 435 216 438 q 216 444 224 444 q 256 490 301 513 z m 311 513 q 347 472 397 472 q 410 472 420 477 q 430 482 430 490 q 430 503 410 514 q 390 525 367 525 q 338 525 311 513 z m 438 339 q 442 337 442 328 l 444 325 q 446 325 449 329 q 452 332 452 336 q 452 349 438 353 z m 332 109 q 335 120 335 130 q 335 157 327 174 q 320 191 304 211 q 289 231 281 248 q 274 264 274 290 q 274 339 316 380 q 358 420 427 444 q 469 458 498 504 l 501 508 l 503 506 q 503 494 468 456 q 468 450 487 441 q 506 432 529 432 q 545 432 577 453 q 580 453 580 450 q 580 445 548 417 q 516 388 475 388 q 454 388 438 396 l 433 399 q 423 404 413 414 q 402 424 399 424 q 394 424 373 413 q 351 402 335 380 q 319 357 319 328 q 319 305 326 291 q 333 276 353 253 q 373 230 376 207 q 391 228 418 246 l 422 248 l 433 255 l 438 258 q 446 263 470 276 q 494 290 505 301 q 517 312 529 330 l 531 327 q 531 323 525 315 q 519 308 519 303 q 519 291 542 265 q 564 240 570 232 l 573 227 q 581 217 585 208 q 586 205 587 203 q 592 190 592 179 q 592 151 579 122 q 566 93 521 50 q 476 6 465 -15 q 455 -36 455 -55 q 455 -77 465 -89 q 475 -100 491 -100 q 504 -100 518 -92 q 521 -92 521 -96 q 521 -104 504 -119 q 487 -135 470 -135 q 452 -135 439 -121 q 427 -107 427 -85 q 427 -64 437 -41 q 447 -17 487 26 q 526 69 536 92 q 546 115 546 136 q 546 173 525 199 l 522 203 q 516 211 508 217 l 502 222 q 488 234 468 267 q 462 267 438 252 l 433 249 l 426 245 l 423 242 q 390 221 377 201 q 378 197 378 190 q 378 153 359 116 q 340 79 293 41 q 247 4 228 -23 l 226 -22 q 226 -19 232 -7 q 232 -2 199 11 q 167 25 137 25 q 76 25 44 0 l 40 -4 q 18 -26 18 -59 q 18 -66 16 -66 q 13 -66 13 -58 q 13 -26 34 3 l 38 8 q 62 38 101 54 q 139 71 178 71 q 229 71 269 42 l 276 38 q 282 38 302 58 q 321 78 331 105 z"},"4":{"x_min":0,"x_max":193,"ha":193,"o":"m 143 48 l 163 48 q 178 48 194 58 l 197 56 q 182 43 175 35 q 168 27 154 27 l 143 27 l 143 -14 q 143 -35 149 -35 q 152 -35 163 -29 l 166 -31 q 166 -35 137 -65 q 108 -96 108 -109 q 108 -119 109 -130 q 110 -142 110 -144 q 110 -153 104 -153 q 101 -143 102 -102 q 103 -61 103 -1 l 103 27 l 16 27 q 6 27 -12 6 q -14 6 -14 10 q 33 66 59 106 q 85 146 146 253 q 150 253 149 247 q 143 241 143 220 z m 103 48 l 103 134 l 100 154 q 97 154 78 122 q 59 89 43 70 q 27 51 28 48 z"},"~":{"x_min":0,"x_max":240,"ha":240,"o":"m 213 153 l 218 149 q 214 145 207 136 q 199 126 184 116 q 170 105 164 97 q 160 97 160 101 q 163 106 167 111 l 161 107 q 142 98 125 98 q 117 98 97 118 q 78 137 63 137 q 37 137 8 102 l 4 98 l 0 102 q 3 106 11 115 q 20 125 34 135 q 48 146 54 154 q 58 154 58 150 q 55 145 50 140 q 53 141 57 144 q 76 153 92 153 q 102 153 122 133 q 143 114 154 114 q 181 114 210 149 z"},"D":{"x_min":0,"x_max":706,"ha":706,"o":"m 407 319 q 407 292 423 260 q 438 228 438 200 q 438 167 409 136 q 380 105 371 105 l 369 107 l 372 111 q 389 129 389 149 q 389 176 376 212 q 363 248 363 271 q 363 295 375 321 l 377 325 q 391 348 408 361 q 425 375 428 375 l 431 373 l 428 370 q 409 354 407 325 z m 375 321 q 341 319 305 310 q 305 305 298 305 q 293 305 292 308 l 287 307 q 285 300 279 300 q 274 300 272 305 q 270 304 267 304 q 267 294 250 294 q 244 294 233 290 l 232 292 q 232 296 236 298 q 240 300 240 303 l 223 303 q 221 298 215 298 q 209 298 207 304 l 199 305 q 199 302 193 302 q 187 302 187 307 q 143 315 115 334 l 115 328 q 115 281 132 242 q 168 254 206 254 q 267 254 308 234 q 349 213 367 187 q 385 161 385 154 l 383 152 l 380 156 q 336 246 211 246 q 172 246 137 233 q 151 209 172 190 q 187 194 203 194 q 237 194 265 180 q 293 167 293 162 l 291 160 l 287 163 q 248 189 202 189 q 193 189 177 187 q 235 143 331 143 l 342 142 l 326 140 q 231 140 172 186 q 133 177 110 151 q 87 125 87 93 q 87 49 123 28 q 125 26 132 24 q 147 18 168 18 q 194 18 219 35 l 224 37 l 227 36 q 227 32 207 22 q 186 11 166 11 q 145 11 126 19 l 118 22 q 76 46 76 94 q 76 126 101 152 q 126 178 167 189 q 145 209 132 231 q 78 210 47 170 q 16 130 16 81 q 16 24 54 -11 q 91 -47 154 -47 q 228 -47 286 3 l 290 7 l 291 5 q 291 2 272 -14 q 254 -29 221 -42 q 188 -54 148 -54 q 88 -54 46 -14 q 3 26 3 82 q 3 135 36 177 q 69 220 127 240 q 109 278 109 328 l 109 338 q 52 378 52 460 q 52 524 111 577 q 171 629 245 629 q 279 629 305 623 q 327 663 365 684 q 403 705 450 705 q 514 705 563 661 q 613 618 613 557 q 613 511 583 481 q 694 398 694 290 q 694 199 645 121 q 681 96 700 59 q 720 22 720 -18 q 720 -99 647 -154 q 574 -209 481 -209 q 356 -209 292 -146 q 260 -158 227 -158 q 190 -158 164 -147 q 137 -135 137 -130 l 139 -128 l 143 -130 q 178 -150 227 -150 q 257 -150 287 -141 q 275 -128 265 -106 l 267 -104 l 269 -107 q 279 -125 292 -139 q 342 -122 364 -93 q 347 -79 347 -58 q 347 -36 362 -36 q 370 -36 375 -44 q 381 -52 381 -64 q 381 -77 371 -92 q 399 -112 450 -117 q 451 -113 457 -113 q 462 -113 463 -117 l 468 -117 q 468 -110 476 -110 q 482 -110 484 -116 l 493 -115 q 487 -114 487 -108 q 487 -104 495 -102 q 504 -100 506 -100 q 512 -100 512 -105 q 514 -109 509 -111 l 517 -108 q 517 -101 525 -101 q 529 -101 532 -104 l 536 -102 q 536 -96 543 -96 l 547 -97 q 612 -65 612 -3 q 612 22 594 40 q 576 57 551 57 q 527 57 509 41 q 490 25 490 3 q 490 -13 505 -13 q 513 -13 513 -21 q 513 -27 504 -27 q 496 -27 491 -18 q 486 -10 486 3 q 486 25 505 44 q 525 63 551 63 q 579 63 598 44 q 617 25 617 -3 q 617 -68 549 -102 q 549 -108 542 -108 q 539 -108 537 -106 l 533 -108 q 533 -116 525 -116 q 521 -116 518 -112 q 513 -113 511 -114 q 515 -116 515 -122 q 515 -125 496 -129 q 490 -129 490 -123 q 490 -119 493 -118 l 484 -119 q 482 -125 476 -125 q 471 -125 469 -121 l 463 -121 q 461 -125 456 -125 q 451 -125 450 -121 q 400 -118 368 -96 q 345 -125 297 -144 q 354 -196 463 -196 q 565 -196 638 -145 q 711 -94 711 -12 q 711 22 693 57 q 675 92 642 116 q 618 81 613 81 l 611 83 q 628 103 639 118 q 610 138 570 145 q 548 149 537 149 l 533 149 q 461 149 401 99 l 398 97 l 396 99 q 438 131 470 143 q 502 155 539 155 q 554 155 574 151 q 614 143 642 122 q 688 198 688 290 q 688 340 659 389 q 629 438 576 475 q 552 454 517 454 q 479 454 456 476 q 432 497 432 530 q 411 533 390 533 q 363 533 331 528 q 341 515 341 501 q 341 476 321 476 q 310 476 301 487 q 292 499 287 518 q 209 495 161 441 l 158 437 q 120 392 115 340 q 149 318 188 311 q 189 314 194 314 q 199 314 200 309 q 205 309 207 308 q 210 313 215 313 q 221 313 223 307 l 240 307 q 229 312 229 316 l 230 318 q 237 315 242 315 q 245 315 249 316 q 253 317 256 317 q 266 317 267 308 l 271 308 q 271 315 279 315 q 284 315 286 310 l 292 311 q 292 317 299 317 q 304 317 305 314 q 354 324 377 325 q 395 326 407 325 q 459 320 490 292 q 522 263 522 224 q 522 200 509 181 q 496 163 479 163 q 472 163 466 167 q 460 171 460 176 q 460 184 467 184 q 471 184 471 179 q 471 167 481 167 q 494 167 506 183 q 517 199 517 225 q 517 263 486 290 q 456 317 407 321 q 394 322 375 321 z m 148 474 q 148 507 181 532 q 215 557 256 557 q 272 557 285 554 q 288 588 302 618 q 275 623 247 623 q 173 623 116 572 q 58 521 58 454 q 58 383 110 344 q 116 398 154 444 l 157 447 q 208 505 285 531 l 285 549 q 274 553 257 553 q 216 553 184 529 q 152 505 152 474 l 150 466 z m 570 145 q 551 118 510 90 q 470 61 370 17 q 334 1 321 -20 l 319 -22 l 316 -20 q 316 -15 328 -1 q 328 6 297 28 q 267 50 224 50 q 167 50 132 24 q 128 21 126 19 q 117 11 107 -4 l 105 -2 q 105 5 118 22 l 123 28 q 169 88 254 88 q 331 88 377 36 l 382 31 q 387 31 452 65 q 517 99 537 149 l 539 155 q 552 187 552 236 q 552 304 512 348 q 473 393 413 393 q 388 393 351 385 q 313 376 286 376 q 246 376 210 392 q 174 409 158 437 l 154 444 q 148 458 148 474 l 150 482 l 152 474 q 152 461 157 447 l 161 441 q 178 413 228 413 q 256 413 314 428 q 373 443 409 443 q 493 443 547 389 q 602 336 602 256 q 602 196 574 151 z m 367 -88 q 374 -74 374 -61 q 374 -54 370 -48 q 366 -43 361 -43 q 358 -43 355 -48 q 353 -53 353 -60 q 353 -77 367 -88 z m 579 484 q 608 512 608 558 q 608 613 562 653 q 516 693 448 693 q 403 693 367 675 q 332 656 311 622 q 360 611 386 592 q 411 572 411 568 l 409 567 l 406 570 q 365 604 308 617 q 293 586 292 552 q 308 547 318 540 q 349 548 390 548 q 413 548 433 544 q 438 573 455 591 q 473 609 495 609 q 511 609 521 599 q 532 590 532 577 q 532 553 511 553 q 497 553 497 564 q 497 570 503 570 q 509 570 509 563 q 510 557 514 557 q 528 557 528 577 q 528 588 518 596 q 509 604 494 604 q 474 604 458 587 q 442 570 438 543 q 514 530 579 484 z m 310 538 q 303 544 292 547 l 292 533 q 304 537 310 538 z m 572 477 q 509 519 437 529 q 438 497 461 478 q 484 459 517 459 q 547 459 572 477 z m 293 520 q 296 500 304 490 q 312 480 321 480 q 327 480 331 485 q 335 491 335 497 q 335 514 323 527 q 303 523 293 520 z"},"^":{"x_min":0,"x_max":311,"ha":311,"o":"m 161 478 l 299 246 l 269 246 l 156 436 l 42 246 l 12 246 l 152 478 z"},"0":{"x_min":0,"x_max":206,"ha":206,"o":"m 123 241 l 129 236 q 185 195 185 134 q 185 111 172 85 q 158 59 125 26 q 92 -6 74 -29 q 72 -29 72 -26 q 83 -9 83 -6 l 77 -1 q 23 37 23 93 q 23 125 38 156 q 53 188 89 219 q 125 251 133 265 l 135 262 q 135 258 123 241 z m 114 27 q 121 27 135 51 q 150 75 150 108 q 150 146 126 178 q 102 210 91 210 q 84 210 71 185 q 58 160 58 127 q 58 82 80 54 q 102 27 114 27 z"},"F":{"x_min":0,"x_max":620,"ha":620,"o":"m 87 333 q 87 396 163 434 l 167 436 q 221 461 284 461 q 316 461 350 451 q 385 441 430 412 q 475 382 491 376 q 508 370 523 370 q 572 370 579 417 l 580 422 l 582 420 q 582 389 556 365 q 530 341 480 341 q 419 341 357 384 q 335 366 328 356 l 326 352 q 318 341 318 324 q 318 302 329 283 l 333 276 q 338 267 353 247 q 367 228 373 217 q 380 241 400 257 q 419 273 442 273 q 460 273 479 261 q 498 250 498 234 q 498 223 483 210 q 468 198 459 198 q 449 198 434 215 q 419 232 409 232 q 395 232 390 229 q 385 226 378 211 q 392 188 392 155 q 392 142 389 129 l 383 115 q 374 95 351 74 l 347 70 q 308 37 238 7 q 204 -8 191 -34 l 190 -36 l 187 -35 q 187 -30 199 -11 q 199 0 174 18 q 148 35 97 35 q 65 35 39 15 q 12 -6 12 -34 q 12 -41 9 -41 q 6 -41 6 -32 q 6 16 53 45 q 101 74 147 74 q 201 74 247 35 q 256 26 259 26 q 265 26 292 41 q 320 56 337 78 l 340 83 q 348 95 348 110 q 348 116 347 122 l 345 137 q 339 163 315 200 q 291 237 286 251 q 281 265 281 276 q 281 282 282 288 l 283 293 q 290 325 318 357 l 321 361 q 342 380 353 386 q 312 416 286 426 q 261 436 236 436 q 201 436 168 424 l 164 422 q 94 396 94 332 q 94 325 90 325 q 87 325 87 333 z m 94 332 q 94 318 102 305 q 131 350 177 372 q 167 393 164 422 q 163 432 163 434 l 163 439 q 163 513 219 561 q 276 610 359 610 q 441 610 494 567 q 546 524 546 471 q 546 440 528 419 q 511 399 484 399 q 469 399 457 407 q 444 416 444 418 l 447 420 l 451 417 q 466 404 485 404 q 510 404 525 423 q 541 442 541 472 q 541 521 490 559 q 438 596 357 596 q 273 596 220 551 q 167 505 167 445 l 167 436 q 167 432 168 424 q 171 394 182 374 q 212 389 243 389 q 259 389 272 384 q 284 396 298 402 q 287 394 275 383 q 297 376 321 361 l 328 356 q 385 318 428 318 q 445 318 469 323 q 493 329 507 329 q 552 329 577 304 q 601 280 601 243 q 601 200 564 165 q 527 131 463 119 l 463 90 l 481 91 q 556 91 608 52 q 661 14 661 -41 q 661 -96 615 -132 q 568 -168 507 -168 q 465 -168 433 -155 q 412 -198 367 -224 q 323 -249 279 -249 q 215 -249 176 -218 q 137 -187 134 -128 q 6 -116 6 -32 q 6 -25 9 -25 q 12 -25 12 -34 q 12 -71 43 -94 q 74 -118 134 -121 q 134 -109 138 -96 l 132 -96 q 104 -96 84 -80 q 63 -63 63 -37 q 63 -19 77 -7 q 92 6 111 6 q 133 6 144 -7 q 156 -20 156 -26 l 154 -27 q 140 2 111 2 q 93 2 80 -10 q 67 -21 67 -38 q 67 -60 87 -76 q 107 -92 133 -92 l 140 -92 q 151 -69 168 -69 q 174 -69 174 -75 q 174 -91 143 -95 q 138 -107 138 -121 l 138 -124 q 149 -125 162 -125 q 179 -125 199 -123 q 194 -108 194 -95 q 194 -56 227 -28 q 260 0 304 0 q 326 0 345 -8 q 350 24 373 48 q 363 59 347 70 l 337 78 q 324 87 278 116 q 232 146 212 169 q 193 161 161 161 q 161 149 169 140 q 176 131 205 124 q 272 106 272 68 q 272 61 268 56 q 264 51 257 51 q 247 51 247 58 q 247 65 254 65 q 258 65 260 62 q 261 59 263 59 q 268 59 268 70 q 268 81 260 88 q 252 96 219 103 q 186 110 172 125 q 158 140 157 161 q 122 167 103 188 q 83 209 83 242 q 83 268 98 298 q 87 313 87 333 q 87 340 90 340 q 94 340 94 332 z m 269 381 q 255 384 241 384 q 212 384 183 372 q 200 339 230 319 q 244 355 269 381 z m 318 357 q 295 373 272 380 q 246 352 236 315 q 255 303 283 293 q 294 289 329 283 q 361 278 391 278 q 437 278 493 303 l 497 305 l 499 304 q 499 299 465 286 q 430 273 388 273 q 354 273 333 276 q 305 280 282 288 q 254 298 235 310 q 232 296 232 279 q 232 228 261 190 q 291 153 345 137 q 357 134 389 129 q 399 127 411 127 q 430 127 456 131 l 456 177 q 456 183 459 183 q 463 183 463 177 l 463 132 q 526 142 561 172 q 595 202 595 247 q 595 280 571 302 q 547 325 513 325 q 494 325 469 319 q 445 313 426 313 q 409 313 389 319 q 370 324 335 346 l 326 352 z m 228 314 q 196 336 179 369 q 129 347 107 299 q 128 276 164 276 q 172 276 180 278 q 181 288 184 294 q 186 299 186 297 l 183 279 q 201 285 227 309 z m 230 227 q 224 248 224 274 q 224 287 225 299 q 207 281 182 273 q 180 267 180 258 q 180 243 187 220 q 200 230 215 230 q 224 230 230 227 z m 184 218 q 177 238 177 253 q 177 262 179 272 q 170 269 159 269 q 126 269 104 291 q 96 269 96 248 q 96 218 112 195 q 128 173 157 168 q 159 197 184 218 z m 238 208 l 235 215 q 229 221 216 221 q 203 221 189 214 q 196 192 212 175 q 227 182 238 208 z m 208 173 q 193 191 186 212 q 164 195 161 167 q 194 167 208 173 z m 435 -151 q 465 -162 506 -162 q 566 -162 609 -129 q 653 -97 653 -51 q 653 3 605 40 q 557 77 488 77 q 471 77 463 76 l 463 11 q 479 24 503 24 q 524 24 543 15 q 562 6 572 -10 q 578 -10 578 -16 q 578 -19 576 -22 q 586 -22 586 -28 q 586 -33 578 -37 q 581 -39 581 -43 q 581 -47 576 -49 q 570 -68 553 -80 q 536 -91 516 -91 q 501 -91 491 -86 q 481 -81 481 -72 q 481 -63 489 -63 q 498 -63 498 -69 q 498 -73 493 -78 q 493 -82 500 -84 q 507 -87 515 -87 q 535 -87 551 -77 q 566 -66 571 -49 q 568 -47 568 -43 q 568 -39 573 -36 q 561 -36 561 -31 q 561 -24 571 -22 q 565 -22 565 -16 l 566 -12 q 558 2 540 11 q 522 19 503 19 q 475 19 463 4 l 463 -4 q 463 -9 459 -9 q 456 -9 456 -4 l 456 75 q 410 68 382 47 q 447 -17 447 -93 q 447 -125 435 -151 z m 429 -149 q 440 -124 440 -93 q 440 -20 378 43 q 351 22 348 -10 q 373 -23 373 -42 q 373 -53 365 -53 q 358 -53 351 -44 q 344 -35 344 -20 l 344 -15 q 325 -5 305 -5 q 262 -5 234 -30 q 207 -55 207 -93 q 207 -106 212 -121 q 272 -108 311 -62 l 314 -59 l 316 -62 q 276 -109 213 -124 q 222 -147 240 -160 q 259 -174 281 -174 q 300 -174 315 -163 q 331 -152 331 -134 q 331 -128 323 -128 q 312 -128 312 -120 q 312 -112 321 -112 q 335 -112 335 -134 q 335 -153 319 -166 q 303 -178 279 -178 q 253 -178 232 -164 q 210 -150 200 -126 q 184 -129 164 -129 q 150 -129 138 -128 q 142 -178 181 -207 q 220 -235 281 -235 q 324 -235 366 -214 q 408 -193 428 -153 q 397 -140 380 -121 q 363 -102 363 -94 q 363 -92 365 -92 q 381 -130 429 -149 z m 364 -37 q 364 -27 348 -17 q 348 -28 351 -35 q 354 -43 359 -43 q 364 -43 364 -37 z m 145 -91 q 154 -89 161 -86 q 167 -82 167 -79 q 167 -75 164 -75 q 155 -75 145 -91 z m 347 122 q 275 141 243 199 q 237 182 216 171 q 235 150 281 121 q 326 93 340 83 l 351 74 q 363 66 377 52 q 409 80 456 89 l 456 117 q 430 113 409 113 q 396 113 383 115 q 359 119 347 122 z m 401 523 q 423 513 439 498 q 455 483 454 479 q 431 502 417 510 q 402 519 399 519 l 393 518 q 388 518 386 524 l 382 526 q 379 523 376 523 q 373 523 369 527 l 364 527 q 362 518 353 518 q 344 518 340 527 q 337 522 332 522 l 324 525 l 322 525 q 320 517 314 517 q 307 517 305 519 q 286 512 257 493 q 286 515 304 523 q 308 530 314 530 q 318 530 320 528 l 323 529 q 325 536 332 536 l 338 533 l 342 533 q 344 543 353 543 q 362 543 365 533 l 369 532 q 373 536 376 536 q 382 536 384 530 q 386 529 388 527 l 393 529 q 399 529 401 523 z"},"`":{"x_min":0,"x_max":250,"ha":250,"o":"m 171 360 q 174 360 174 357 q 174 354 162 335 q 149 317 146 317 q 140 317 114 343 q 88 368 83 368 l 80 370 q 80 375 88 386 q 95 397 98 397 q 104 397 131 372 q 157 347 161 347 q 163 347 171 360 z"},"k":{"x_min":0,"x_max":240,"ha":240,"o":"m 178 269 q 178 266 168 255 q 157 244 157 240 q 157 232 176 223 q 194 213 200 205 q 205 197 205 188 q 205 175 196 165 q 188 154 167 139 q 146 123 147 119 q 184 105 188 61 q 190 42 204 33 q 218 24 228 24 q 235 24 250 42 q 250 38 237 23 q 224 8 200 -6 q 177 -21 166 -41 l 164 -43 l 162 -39 q 162 -34 183 -12 l 179 -8 q 161 5 151 50 q 142 91 107 93 l 101 95 l 115 105 q 166 138 166 161 q 166 174 162 180 q 157 186 146 192 q 134 199 121 211 q 119 211 102 196 q 86 181 77 166 l 77 67 q 77 42 98 33 q 105 29 105 26 l 102 23 q 77 10 55 -19 l 48 -23 q 55 -10 55 -6 q 55 0 44 10 q 33 20 29 20 q 16 20 16 23 l 21 26 q 40 35 40 60 l 40 308 q 40 349 65 379 q 90 408 131 408 q 159 408 176 393 q 193 377 193 359 q 193 346 185 337 q 178 329 165 329 q 154 329 146 336 q 139 343 139 354 q 139 381 172 382 q 172 387 162 395 q 152 402 135 402 q 108 402 93 381 q 77 361 77 328 l 77 178 q 104 207 128 225 q 152 243 178 269 z"},"u":{"x_min":0,"x_max":236,"ha":236,"o":"m 149 77 l 149 171 q 149 175 140 184 q 130 193 126 193 q 121 193 109 180 l 107 182 q 107 192 151 223 q 166 234 179 256 q 182 256 182 253 q 182 250 168 229 q 168 225 182 213 q 195 201 203 201 l 217 206 l 219 204 q 186 185 186 179 l 186 60 q 186 51 196 43 q 207 34 212 34 q 218 34 233 51 l 235 48 q 235 44 210 19 q 185 -6 168 -29 l 166 -26 q 166 -22 171 -16 q 177 -10 177 -6 l 171 1 q 149 22 149 41 l 149 68 q 131 39 107 20 q 83 1 59 -28 q 56 -28 56 -25 q 56 -22 62 -15 q 68 -8 68 -5 q 68 5 50 16 q 31 28 24 28 q 20 28 11 23 l 9 25 q 9 29 19 34 q 42 45 42 68 l 42 176 q 42 184 34 192 q 26 201 22 201 q 14 201 -5 179 l -7 182 q -7 191 24 218 q 55 245 59 245 l 61 242 l 53 232 l 57 229 q 79 217 79 198 l 79 63 q 79 54 89 44 q 99 33 108 33 q 120 33 149 77 z"},"]":{"x_min":0,"x_max":135,"ha":135,"o":"m 72 452 q 35 418 31 415 q 28 411 24 411 l 22 413 q 22 417 68 458 q 114 499 125 513 q 136 528 139 528 l 141 526 q 141 521 116 491 l 116 -193 q 125 -188 128 -184 q 131 -181 134 -181 q 137 -181 137 -183 q 137 -186 117 -203 q 51 -263 36 -280 q 21 -297 17 -296 q 17 -288 72 -233 z"},"U":{"x_min":0,"x_max":751,"ha":751,"o":"m 407 198 q 391 203 361 214 q 352 190 352 157 q 352 94 382 42 l 385 37 q 393 24 407 10 z m 462 256 q 439 257 412 268 l 412 202 q 438 194 456 187 q 477 178 501 169 l 507 166 l 507 173 q 507 210 539 234 q 571 259 615 259 q 674 259 714 216 q 754 173 754 109 q 754 67 729 29 q 705 -9 661 -33 q 659 -112 610 -162 q 561 -211 488 -211 q 461 -211 437 -202 q 417 -234 385 -252 q 353 -270 315 -270 q 262 -270 222 -237 q 183 -205 183 -157 q 183 -120 198 -91 l 187 -91 q 113 -91 59 -45 q 5 0 5 68 q 5 134 54 178 q 104 223 173 223 q 214 223 250 205 q 287 187 287 180 l 285 179 l 280 182 q 232 218 173 218 q 110 218 64 176 q 18 134 18 72 q 18 4 67 -41 q 116 -86 186 -86 q 196 -86 201 -85 q 225 -41 259 -41 q 276 -41 276 -51 q 276 -64 256 -75 q 236 -85 205 -90 q 196 -110 196 -133 q 196 -196 230 -229 q 265 -261 331 -261 q 397 -261 432 -200 q 402 -187 386 -164 q 369 -141 369 -115 q 369 -94 378 -81 q 386 -68 401 -68 q 421 -68 438 -88 q 456 -109 456 -132 q 456 -164 442 -192 q 467 -203 491 -203 q 562 -203 607 -157 q 653 -111 656 -36 q 613 -59 561 -59 q 507 -59 458 -35 q 408 -11 377 32 l 373 38 q 343 84 343 138 q 343 183 357 216 l 339 223 q 323 229 303 240 q 205 293 188 386 q 184 408 184 434 q 184 510 247 562 q 311 613 395 613 q 503 613 574 553 q 645 493 645 415 q 645 357 605 311 q 565 264 500 256 q 487 254 462 256 z m 618 80 q 581 126 512 158 q 516 137 527 125 q 538 113 550 113 q 553 113 554 118 q 556 123 560 123 q 564 123 564 119 q 564 108 550 108 q 536 108 524 122 q 511 136 508 160 l 501 163 q 475 174 456 182 q 445 186 431 190 q 417 194 412 196 l 412 4 q 475 -53 570 -53 q 617 -53 656 -31 q 656 30 621 76 z m 621 76 q 595 35 561 13 q 527 -9 516 -26 l 513 -24 q 513 -21 528 -2 l 522 2 q 456 43 456 182 l 456 187 q 456 225 462 256 l 463 260 q 480 334 517 374 q 554 413 564 413 l 566 412 l 559 406 q 525 388 513 349 q 500 311 500 260 l 500 256 q 499 248 499 238 q 499 231 500 218 q 500 205 500 197 q 500 176 501 169 l 501 163 q 505 104 521 77 q 536 51 554 45 q 573 39 576 39 q 583 39 595 50 q 606 62 618 80 q 623 87 624 85 q 625 83 621 76 z m 500 260 q 559 268 595 312 q 631 356 631 416 q 631 495 565 551 q 499 607 391 607 q 308 607 248 556 q 188 505 188 434 q 188 409 193 385 q 210 299 301 248 l 340 229 q 343 228 350 225 q 356 223 359 221 q 371 250 395 276 q 358 298 339 329 q 320 359 320 367 l 322 371 l 324 366 q 350 306 399 279 q 404 284 407 286 l 407 389 q 381 397 368 413 q 355 429 355 434 l 357 437 l 358 435 q 375 403 407 393 l 407 415 q 407 422 410 422 q 412 422 412 415 l 412 391 q 423 388 438 388 q 471 388 489 404 q 507 419 507 446 q 507 487 463 512 l 460 510 q 454 508 451 514 l 450 518 q 445 513 442 513 q 438 513 435 517 l 435 522 q 434 520 430 518 q 423 517 420 521 q 420 514 414 509 q 408 503 403 503 q 397 503 392 508 q 407 516 405 524 q 392 524 380 521 q 380 513 372 513 q 367 513 365 517 l 362 516 q 363 513 358 510 q 354 509 351 512 q 307 492 280 440 l 277 436 l 275 438 q 275 443 294 470 q 313 497 349 514 q 347 520 353 521 l 356 522 q 359 522 361 519 l 365 520 q 365 528 372 528 q 377 528 379 524 q 387 526 403 528 q 401 532 397 532 l 390 532 q 397 539 401 539 q 414 539 421 528 l 425 532 q 433 534 435 526 l 437 525 l 440 528 q 448 529 450 523 l 451 521 l 453 520 l 455 521 l 458 522 q 462 522 464 515 q 488 503 503 485 q 517 467 517 449 q 517 420 496 402 q 474 384 440 384 q 424 384 412 387 l 412 291 q 434 307 440 307 l 442 306 q 423 296 412 287 l 412 273 q 436 263 463 260 q 484 257 500 260 z m 188 386 q 168 391 147 391 q 100 391 72 365 q 44 338 44 296 q 44 270 62 251 q 81 232 106 232 q 132 232 152 247 l 156 248 q 156 245 141 237 q 126 229 105 229 q 69 229 45 257 q 20 285 20 323 q 20 365 58 400 q 95 436 161 436 q 169 436 184 434 l 188 434 q 259 423 300 370 q 341 316 341 254 q 341 236 340 229 l 339 223 q 330 158 292 99 q 325 85 357 46 l 366 37 q 370 37 373 38 l 382 42 q 398 50 407 57 l 412 61 q 441 79 456 101 q 459 101 459 98 q 459 94 448 83 q 437 71 412 55 l 407 51 q 389 41 385 37 l 377 32 q 366 24 359 19 q 324 -6 302 -28 l 299 -26 q 299 -21 316 -4 q 316 0 308 17 q 299 34 256 56 q 190 -5 126 -5 q 94 -5 77 9 q 59 22 59 41 q 59 74 88 74 q 102 74 111 67 q 120 59 120 47 q 120 37 112 30 q 104 22 94 22 q 86 22 73 29 l 72 25 q 72 16 87 8 q 103 0 127 0 q 154 0 188 16 q 221 31 251 58 q 195 87 195 132 q 195 159 209 177 q 223 194 230 194 l 232 192 l 230 189 q 220 178 220 163 q 220 143 233 130 q 246 117 286 102 q 306 141 306 199 q 306 217 303 240 l 301 248 q 279 360 193 385 z m 208 -84 q 235 -80 253 -72 q 270 -64 270 -55 q 270 -45 259 -45 q 228 -45 208 -84 z m 437 -190 q 447 -167 447 -139 q 447 -115 432 -94 q 418 -73 402 -73 q 393 -73 385 -82 q 378 -90 378 -103 q 378 -160 437 -190 z m 407 275 l 407 282 l 402 277 z m 407 204 l 407 271 q 401 273 398 275 q 374 249 363 219 q 394 208 407 204 z m 661 -28 q 700 -4 721 33 q 742 71 742 114 q 742 174 704 213 q 666 253 604 253 q 566 253 539 230 q 511 207 511 173 l 511 164 q 585 128 620 84 q 638 115 638 134 q 638 174 608 174 q 599 174 599 168 l 603 159 l 599 157 q 592 157 592 165 q 592 178 608 178 q 624 178 633 167 q 643 157 643 139 q 643 112 624 80 q 660 31 661 -28 z"},"o":{"x_min":0,"x_max":193,"ha":193,"o":"m 116 241 l 121 238 q 177 208 177 134 q 177 111 164 85 q 150 59 117 26 q 84 -6 66 -29 l 64 -26 q 75 -9 75 -6 l 69 -2 q 15 30 15 93 q 15 125 30 156 q 45 188 81 219 q 117 250 130 271 l 132 268 q 132 264 116 241 z m 109 37 q 125 37 133 60 q 142 83 142 116 q 142 152 121 179 q 101 207 83 207 q 71 207 63 179 q 54 152 54 123 q 54 85 70 61 q 86 37 109 37 z"},"N":{"x_min":0,"x_max":889,"ha":889,"o":"m 295 441 q 360 431 402 388 q 444 344 452 279 l 453 270 q 454 264 454 250 q 454 229 451 210 l 450 205 q 441 159 414 119 q 459 95 459 55 q 459 32 439 10 q 419 -11 414 -11 q 411 -11 411 -9 l 413 -6 q 421 3 421 23 q 421 53 379 74 q 376 71 365 61 q 355 51 349 47 l 346 45 q 286 1 236 1 q 230 1 208 4 q 206 4 200 6 q 176 13 162 28 q 149 42 149 60 q 149 73 160 86 q 172 98 186 98 q 201 98 211 89 q 220 80 220 67 q 220 55 211 46 q 203 37 191 37 q 178 37 164 48 q 164 22 204 10 l 211 8 q 230 5 236 5 q 255 5 285 17 q 315 28 341 47 l 344 50 q 357 59 372 78 q 342 93 331 110 q 320 126 320 149 q 320 184 343 204 q 366 224 376 224 q 379 224 379 221 l 375 217 q 347 199 347 176 q 347 165 356 154 q 366 143 405 123 q 422 157 422 199 l 422 214 l 421 220 q 407 362 291 393 l 285 394 q 270 397 250 397 q 198 397 166 375 q 133 353 133 316 q 133 280 158 258 q 183 235 221 235 q 266 235 304 266 l 309 269 l 311 267 q 311 261 283 245 q 255 229 220 229 q 179 229 147 256 q 116 283 116 324 q 116 373 158 408 q 200 444 260 444 q 271 444 289 442 z m 565 68 q 549 104 549 148 l 549 152 q 549 170 553 198 l 554 203 q 573 295 642 338 q 628 338 612 345 q 596 352 566 376 q 536 400 521 406 q 505 412 492 412 q 485 412 479 410 l 475 409 q 457 403 437 386 l 435 388 q 452 412 466 424 l 469 427 q 497 445 529 445 q 562 445 582 435 q 601 425 620 408 q 639 391 652 383 q 665 376 684 376 q 704 376 717 386 q 731 396 731 405 q 731 416 734 416 l 735 402 q 735 384 711 362 q 687 340 646 338 l 645 336 q 604 288 599 206 l 598 202 l 598 177 q 598 163 599 157 l 599 152 q 604 102 624 74 q 644 46 675 46 q 692 46 721 75 l 723 74 q 723 67 678 33 q 633 0 625 -10 q 617 -19 605 -35 l 602 -34 q 602 -30 614 -16 q 625 -2 625 0 l 620 4 q 584 29 567 63 z m 567 63 q 536 59 518 41 l 518 27 q 518 20 516 20 q 513 20 513 27 l 513 36 q 507 31 497 18 l 495 19 q 495 25 513 43 l 513 135 q 501 132 480 120 l 478 122 q 478 126 513 140 l 513 178 l 508 198 q 473 200 450 205 q 438 208 422 214 q 294 262 285 394 q 284 417 289 442 q 297 479 317 512 q 287 516 263 516 q 162 516 91 465 q 20 413 20 334 q 20 257 76 206 q 133 155 216 155 q 252 155 285 168 l 291 170 l 293 168 q 293 166 266 158 q 238 150 216 150 q 124 150 64 200 q 4 251 4 329 q 4 417 78 469 q 151 522 260 522 q 280 522 320 517 q 354 564 407 591 q 460 617 521 617 q 606 617 674 574 q 742 531 742 471 q 742 444 724 426 q 707 408 680 408 q 663 408 652 415 q 641 422 641 425 l 642 427 l 645 425 q 659 412 681 412 q 705 412 720 429 q 736 446 736 471 q 736 528 676 565 q 617 602 527 602 q 398 602 328 515 q 373 505 391 495 q 422 522 463 535 q 470 542 473 542 q 476 542 478 540 q 483 540 485 541 q 487 547 493 547 l 500 543 l 506 544 q 509 555 517 555 q 525 555 529 543 l 533 543 q 537 547 540 547 q 546 547 549 541 l 553 539 l 557 543 q 561 543 566 536 q 611 522 636 500 q 660 479 660 473 l 659 471 q 646 486 632 498 q 618 511 594 521 q 570 532 563 532 l 557 530 q 552 530 551 534 l 546 535 l 540 532 q 537 532 533 536 l 528 537 q 525 527 517 527 q 509 527 506 537 l 501 537 q 498 532 493 532 l 486 536 l 482 535 q 480 528 474 528 q 470 528 464 531 q 427 521 394 493 q 439 470 469 427 q 474 420 479 410 q 491 386 491 372 l 490 370 q 483 393 475 409 l 466 424 q 439 465 390 490 q 387 488 378 480 q 378 484 388 492 q 366 502 324 511 q 303 481 295 441 q 290 413 291 393 q 300 266 421 220 q 434 215 451 210 q 469 205 511 203 l 513 206 l 513 212 l 510 211 q 501 211 501 224 q 501 237 509 237 q 511 237 513 235 l 513 241 l 508 250 l 510 259 q 502 257 496 257 q 474 257 453 270 q 447 274 446 279 q 446 284 452 279 q 470 262 496 262 q 500 262 512 265 l 513 268 l 513 352 l 510 352 q 497 352 488 345 q 479 339 479 328 q 479 318 482 316 q 485 314 485 310 q 485 305 481 305 q 473 305 473 322 q 473 336 483 345 q 494 355 509 355 l 513 355 l 513 394 q 513 401 516 401 q 518 401 518 394 l 518 354 q 550 344 550 313 q 550 281 520 263 q 521 259 523 250 l 518 241 l 518 235 l 522 237 q 529 237 529 224 q 529 211 523 211 q 520 211 518 213 l 518 206 l 520 203 l 554 203 q 576 203 599 206 q 614 208 640 218 q 639 223 639 233 q 639 258 654 279 q 668 300 686 300 q 701 300 701 281 q 701 247 652 219 q 657 183 685 163 q 712 143 758 143 q 814 143 854 184 q 894 225 894 279 q 894 316 871 346 q 847 376 813 376 q 785 376 764 357 q 743 338 743 316 q 743 303 751 291 q 759 280 770 280 q 780 280 780 286 q 773 292 773 295 q 773 306 786 306 q 799 306 799 293 q 799 285 792 281 q 785 276 775 276 q 760 276 749 287 q 739 298 739 316 q 739 340 762 362 q 786 383 813 383 q 851 383 877 352 q 904 321 904 279 q 904 222 861 180 q 817 139 759 139 q 714 139 682 159 q 649 180 641 214 q 617 204 598 202 q 560 198 553 198 l 523 198 l 518 178 l 518 143 q 529 148 549 152 q 583 159 599 157 q 686 150 742 99 q 799 49 799 -14 q 799 -80 741 -122 q 683 -164 601 -164 q 568 -164 534 -156 q 515 -194 466 -217 q 417 -240 367 -240 q 285 -240 227 -197 q 168 -153 168 -84 q 168 -32 200 6 l 204 10 q 248 53 313 53 q 333 53 344 50 l 349 47 l 365 40 l 363 38 q 352 43 346 45 l 341 47 q 333 50 313 50 q 254 50 211 8 l 208 4 q 179 -32 179 -78 q 179 -147 233 -190 q 288 -233 372 -233 q 419 -233 465 -212 q 511 -190 531 -155 q 487 -142 462 -117 q 437 -93 437 -62 q 437 -48 448 -38 q 458 -27 471 -27 q 500 -27 521 -53 q 543 -80 543 -115 q 543 -133 536 -152 q 564 -159 601 -159 q 678 -159 732 -121 q 786 -83 786 -19 q 786 47 734 96 q 683 145 599 152 q 584 153 549 148 q 539 146 518 139 l 518 47 q 537 62 565 68 q 573 69 574 67 q 575 64 567 63 z m 518 268 q 546 285 546 314 q 546 342 518 350 z m 651 224 q 695 250 695 281 q 695 286 692 290 q 689 293 685 293 q 673 293 662 275 q 651 257 651 234 z m 532 -151 q 539 -133 539 -116 q 539 -84 521 -60 q 502 -35 476 -35 q 464 -35 456 -43 q 448 -52 448 -66 q 448 -126 532 -151 z m 674 -63 q 695 -51 695 -23 q 695 -3 686 17 q 698 -6 698 -24 q 698 -50 676 -66 q 676 -74 669 -74 l 666 -74 q 666 -83 657 -83 l 651 -79 q 648 -84 645 -84 q 643 -84 639 -80 l 634 -80 q 605 -80 586 -64 q 566 -48 566 -43 l 567 -41 l 570 -44 q 596 -76 633 -76 l 638 -75 q 640 -71 644 -71 l 650 -74 q 653 -66 657 -66 q 660 -66 665 -70 l 668 -64 z m 338 -138 q 343 -139 354 -139 q 394 -139 415 -114 l 417 -112 l 419 -114 q 419 -119 400 -131 q 382 -144 354 -144 q 343 -144 337 -143 q 335 -147 331 -147 q 326 -147 324 -141 l 316 -139 q 312 -144 306 -144 q 295 -144 295 -132 q 291 -130 287 -127 l 282 -128 q 274 -128 274 -121 l 275 -119 q 251 -99 251 -73 q 251 -54 264 -40 q 277 -27 295 -27 q 318 -27 333 -40 q 348 -53 348 -64 q 348 -71 343 -71 q 338 -71 338 -63 q 338 -51 326 -42 q 314 -32 296 -32 q 279 -32 267 -44 q 256 -57 256 -73 q 256 -95 278 -115 l 282 -113 q 289 -113 289 -123 q 291 -125 295 -127 q 299 -121 306 -121 q 318 -121 318 -134 q 322 -136 324 -136 q 327 -132 331 -132 q 335 -132 338 -138 z"},"+":{"x_min":0,"x_max":169,"ha":169,"o":"m 164 147 l 166 143 q 166 140 144 119 q 122 98 118 92 q 115 92 115 95 l 121 106 q 102 108 97 108 l 99 82 l 108 86 q 111 86 110 82 q 107 82 85 59 q 64 36 59 36 l 55 38 q 66 44 66 48 l 67 108 q 42 107 14 107 q 10 107 4 95 l 2 99 q 2 106 24 126 q 47 147 49 151 q 52 151 52 148 l 48 139 l 67 137 l 66 162 l 55 156 q 52 156 53 161 q 58 163 79 185 q 100 207 103 207 l 107 205 q 99 197 99 193 l 97 137 q 123 138 152 138 q 156 138 164 147 z"},"G":{"x_min":0,"x_max":952,"ha":952,"o":"m 750 308 q 836 307 890 258 q 944 209 944 143 q 944 78 894 35 q 844 -9 770 -9 q 750 -9 742 -8 q 718 -72 656 -110 q 593 -148 519 -148 q 496 -148 462 -144 q 455 -150 441 -158 q 451 -205 489 -232 q 527 -259 577 -259 q 645 -259 698 -215 q 750 -172 750 -111 q 750 -104 748 -92 l 749 -90 q 755 -90 755 -112 q 755 -172 702 -219 q 650 -265 576 -265 q 523 -265 484 -237 q 444 -209 432 -163 q 387 -185 347 -185 q 285 -185 229 -146 q 172 -106 172 -41 q 172 -31 174 -16 q 99 -12 52 30 q 5 72 5 144 q 5 206 46 253 q 87 300 156 314 q 175 447 279 524 l 279 529 q 279 582 314 625 q 349 667 413 684 q 413 690 420 690 q 424 690 425 687 l 432 689 q 435 695 440 695 q 443 695 447 691 l 453 692 q 457 697 461 697 q 465 697 467 693 q 472 694 481 694 q 481 704 486 704 q 492 704 493 698 q 494 703 499 703 q 504 703 504 694 q 510 694 513 693 q 516 696 519 696 q 524 696 526 691 q 529 691 535 689 q 537 693 541 693 q 547 693 549 686 l 558 683 q 560 685 563 685 q 569 685 569 679 q 633 655 673 610 q 713 565 713 519 q 713 490 703 466 q 751 399 751 327 q 751 313 750 308 z m 698 472 q 705 490 705 517 q 705 563 667 608 q 630 653 567 675 q 565 673 562 673 q 556 673 556 678 l 547 681 q 545 678 541 678 q 535 678 533 684 l 526 685 q 523 681 519 681 q 511 681 511 687 q 509 688 504 688 q 504 677 500 677 q 494 677 493 683 q 492 678 487 678 q 481 678 481 688 q 473 688 469 687 q 467 682 461 682 q 456 682 454 686 l 448 685 q 446 680 440 680 q 436 680 434 683 l 425 681 q 423 678 419 678 l 415 679 q 353 662 319 621 q 285 580 285 528 q 363 582 461 582 q 534 582 595 554 q 657 525 698 472 z m 216 58 q 210 66 200 82 q 174 68 155 68 q 130 68 110 84 q 90 100 86 128 q 81 128 81 134 q 81 138 85 140 l 85 146 q 75 148 75 153 q 75 157 80 157 q 82 157 87 156 l 88 162 q 86 164 86 167 q 86 173 93 173 q 112 210 157 222 q 153 252 154 272 l 155 304 q 92 285 53 237 q 14 189 14 134 q 14 70 58 33 q 102 -4 177 -7 q 187 27 216 58 z m 506 180 q 527 190 550 194 l 550 203 q 550 239 538 267 q 537 271 531 282 q 501 341 440 377 q 428 384 419 387 q 389 398 374 404 l 364 409 q 291 446 281 508 q 181 437 162 315 q 189 319 204 319 q 240 319 267 313 q 292 308 312 299 q 362 277 383 246 q 405 215 405 206 l 403 204 l 402 206 q 375 265 311 293 q 288 303 264 307 q 236 312 209 312 q 185 312 161 306 q 159 283 159 270 q 159 254 161 223 q 175 225 181 225 q 206 225 221 216 q 237 207 236 203 l 233 205 q 210 222 182 222 q 174 222 161 220 q 171 145 202 88 q 208 92 223 103 q 212 91 204 85 l 220 61 q 248 87 274 100 q 300 113 315 118 q 335 125 350 126 q 374 127 404 124 q 428 121 446 113 l 453 109 q 481 94 489 68 q 541 110 550 189 q 528 187 505 175 q 498 171 499 174 q 499 177 506 180 z m 473 7 q 538 13 575 56 q 613 99 613 161 q 613 170 611 188 l 610 193 q 597 255 544 266 l 538 267 q 535 268 523 268 q 510 268 491 261 q 509 227 509 201 q 509 190 506 180 l 505 175 q 494 136 453 109 l 449 106 q 423 90 404 90 q 362 90 351 121 l 350 126 q 349 128 349 132 q 349 149 358 158 q 368 168 383 168 q 395 168 403 160 q 410 152 410 140 q 410 130 404 124 l 399 120 q 393 117 387 117 q 377 117 369 122 q 370 109 382 103 q 394 97 408 97 q 425 97 442 109 l 446 113 q 463 126 463 151 q 463 189 435 231 q 432 230 430 229 q 427 229 427 232 l 431 236 q 399 284 399 327 q 399 356 419 387 l 422 391 q 439 413 459 426 q 479 439 482 439 l 487 437 l 481 433 q 448 410 441 382 l 440 377 q 439 373 439 365 q 439 354 444 339 q 450 325 466 300 q 481 275 486 268 q 508 277 531 282 q 535 283 537 283 l 554 284 q 603 284 639 253 q 676 221 679 173 l 679 166 q 676 88 607 42 q 538 -4 464 -4 l 459 -4 l 450 -3 q 340 5 276 97 l 274 100 q 241 149 241 208 q 241 263 264 307 l 267 313 q 301 374 364 409 l 370 412 q 393 424 395 424 l 400 423 q 384 412 379 408 l 374 404 q 330 369 312 299 l 311 293 q 303 256 303 211 q 303 160 315 118 l 316 114 q 351 7 458 7 z m 459 -4 q 428 -24 390 -24 q 282 -24 220 53 q 195 24 188 -7 q 225 -6 256 2 q 256 -3 236 -9 q 217 -15 186 -16 q 185 -21 185 -34 q 185 -103 233 -139 q 282 -176 346 -176 q 393 -176 431 -157 q 428 -148 428 -137 q 372 -122 339 -99 q 306 -77 306 -73 l 308 -71 l 312 -74 q 361 -117 428 -132 q 429 -102 444 -83 q 458 -65 474 -65 q 496 -65 496 -90 q 496 -114 469 -139 l 500 -140 q 568 -140 636 -104 q 705 -68 731 -7 q 672 -1 645 13 q 617 28 617 32 l 618 34 l 621 32 q 669 4 733 -1 q 743 21 743 50 q 723 55 710 64 q 697 74 697 76 l 699 77 l 703 75 q 722 59 743 54 q 741 129 679 166 q 653 182 611 188 q 591 191 569 191 q 559 191 555 190 q 545 106 490 65 q 492 55 492 50 q 492 26 473 7 q 468 2 459 -4 z m 198 85 q 167 142 157 219 q 115 208 97 172 q 99 170 99 167 q 99 161 92 161 l 91 155 q 101 154 101 150 q 101 145 95 145 l 89 145 l 89 140 q 94 140 94 134 q 94 130 90 128 q 94 101 112 86 q 130 71 155 71 q 176 71 198 85 z m 544 266 q 555 236 555 204 l 555 195 l 570 196 q 591 196 610 193 q 655 186 679 173 q 750 135 752 52 q 755 51 765 51 q 799 51 827 67 q 855 83 863 111 q 860 111 860 116 q 860 120 865 122 l 865 127 l 859 126 q 855 126 855 131 q 855 136 864 137 l 864 141 q 859 143 859 147 q 859 150 862 152 q 853 187 825 207 q 796 226 763 226 l 751 225 l 749 226 q 749 230 762 230 q 797 230 826 210 q 856 189 866 153 q 872 153 872 147 q 872 143 868 141 l 868 137 q 873 138 875 138 q 880 138 880 134 q 880 128 869 127 l 869 122 q 873 121 873 116 q 873 110 867 110 q 858 82 828 64 q 799 47 765 47 q 755 47 752 48 q 752 23 744 -2 q 750 -3 767 -3 q 837 -3 881 38 q 925 79 925 141 q 925 197 878 248 q 832 300 749 302 q 741 253 718 223 q 694 192 690 192 l 688 193 l 692 198 q 735 244 742 302 q 694 301 641 280 l 637 278 l 635 279 q 635 282 667 294 q 699 307 743 308 l 744 328 q 744 396 698 457 q 686 436 668 424 q 649 413 632 413 q 609 413 594 425 q 579 436 579 455 q 579 475 594 475 q 607 475 607 462 q 607 447 593 447 q 587 447 584 451 q 584 437 597 427 q 611 417 631 417 q 648 417 666 429 q 683 440 694 463 q 611 564 459 564 q 365 564 286 512 q 294 449 370 412 q 375 410 379 408 l 396 402 q 416 394 422 391 l 441 382 q 507 343 537 283 q 539 280 544 266 z m 523 455 q 523 445 551 426 q 580 408 588 396 q 596 384 596 372 q 596 348 576 330 q 557 312 550 312 l 548 316 l 549 318 q 556 325 556 342 q 556 350 551 357 q 546 364 525 375 q 503 387 497 398 q 490 410 490 423 q 490 448 515 469 q 540 490 553 490 q 556 490 556 487 l 551 484 q 523 472 523 455 z m 466 7 q 486 25 486 51 q 486 58 485 61 q 468 50 451 50 q 440 50 431 54 q 423 59 423 65 q 423 68 429 74 l 430 72 q 427 68 427 65 q 427 60 434 57 q 441 54 451 54 q 467 54 484 65 q 477 90 449 106 l 442 109 q 424 117 399 120 q 374 123 351 121 q 340 120 316 114 q 297 109 276 97 q 246 81 223 57 q 282 -17 385 -17 q 423 -17 450 -3 q 462 3 466 7 z m 461 -138 q 490 -115 490 -90 q 490 -71 475 -71 q 459 -71 449 -88 q 439 -104 439 -134 q 447 -136 461 -138 z m 455 -143 l 439 -140 l 440 -152 z"},"q":{"x_min":0,"x_max":218,"ha":218,"o":"m 141 59 q 133 47 113 28 q 92 9 77 0 q 62 -10 47 -33 q 44 -33 44 -30 q 44 -27 65 -3 l 61 1 q 16 34 16 98 q 16 171 113 242 q 130 255 150 274 l 153 272 l 132 248 q 155 231 172 217 q 182 209 200 209 l 204 207 q 204 205 198 202 q 178 191 178 169 l 178 -59 q 178 -81 183 -87 q 187 -93 193 -94 q 199 -95 199 -98 l 194 -101 q 167 -108 132 -147 l 124 -154 q 122 -155 122 -152 l 125 -148 q 141 -131 141 -105 z m 141 70 l 141 184 q 141 191 121 205 q 101 218 96 218 q 89 218 73 191 q 57 164 57 110 q 57 72 73 54 q 88 36 107 36 q 115 36 128 51 q 141 65 141 70 z"},"d":{"x_min":0,"x_max":194,"ha":194,"o":"m 99 235 q 94 242 81 257 q 67 273 60 287 q 53 302 53 326 q 53 351 67 370 q 81 389 86 389 q 89 389 89 386 q 89 384 85 380 q 74 370 74 348 q 74 336 81 323 q 88 310 126 275 q 164 240 176 211 q 189 182 189 154 q 189 72 107 20 q 81 4 74 -17 l 71 -21 q 67 -21 67 -18 q 67 -16 74 -1 l 69 3 q 16 39 16 105 q 16 146 39 180 q 62 214 99 235 z m 102 232 q 54 202 54 123 q 54 83 72 60 q 89 37 111 37 q 126 37 136 60 q 146 83 146 115 q 146 140 139 165 q 133 191 118 210 q 104 229 102 232 z"},"1":{"x_min":0,"x_max":138,"ha":138,"o":"m 127 37 q 125 35 116 27 q 81 0 56 -32 l 54 -35 l 50 -33 q 68 -9 70 -5 q 56 15 56 48 l 56 200 q 56 207 49 212 q 42 218 37 218 q 34 218 0 199 l -2 203 l 9 211 q 53 237 65 260 l 70 266 q 73 266 73 263 q 73 260 72 252 q 72 247 85 238 q 98 229 105 227 q 113 226 113 223 q 93 214 93 203 l 93 51 q 93 35 104 25 q 111 29 125 40 q 128 40 127 37 z"},"5":{"x_min":0,"x_max":179,"ha":179,"o":"m 158 235 q 163 235 171 244 q 180 253 183 253 q 187 253 186 250 q 158 228 138 190 l 130 182 q 135 188 135 191 q 135 194 127 194 l 68 194 q 56 194 53 172 q 52 164 52 128 q 52 93 50 80 q 48 67 42 60 q 35 53 32 53 l 29 55 l 31 57 q 44 65 44 148 q 44 241 57 240 l 56 237 q 56 235 63 235 z m 112 114 q 120 114 147 79 q 174 43 174 -2 q 174 -48 137 -94 q 100 -140 70 -140 q 42 -140 24 -127 q 5 -114 5 -94 q 5 -81 14 -72 q 22 -64 35 -64 q 48 -64 56 -72 q 64 -80 64 -92 q 64 -101 58 -107 q 52 -113 43 -113 q 32 -113 23 -108 q 23 -118 36 -126 q 48 -134 69 -134 q 94 -134 119 -104 q 144 -74 144 -44 q 144 4 117 41 q 89 78 79 78 q 74 78 55 61 q 36 43 32 43 l 30 45 l 33 49 q 49 60 69 82 q 89 105 97 109 q 105 114 112 114 z"}}}
